<svg xmlns="http://www.w3.org/2000/svg" version="1.1" width="1024" height="680">
<rect x="0" y="0" width="1024" height="680" fill="#484b4f" />
<g transform="scale(4.000000) translate(0.5 0.5)">
<polygon fill="#000000" fill-opacity="0.501961" points="252,185 -16,161 267,102" />
<polygon fill="#7f8186" fill-opacity="0.501961" points="-16,108 144,-16 271,111" />
<polygon fill="#010a0d" fill-opacity="0.501961" points="6,185 195,112 -16,112" />
<polygon fill="#a9937b" fill-opacity="0.501961" points="120,111 16,71 211,91" />
<polygon fill="#5a5d62" fill-opacity="0.501961" points="4,-16 271,10 -5,95" />
<polygon fill="#00060a" fill-opacity="0.501961" points="-16,185 -16,136 161,163" />
<polygon fill="#575c63" fill-opacity="0.501961" points="271,107 253,-16 -16,18" />
<polygon fill="#00000d" fill-opacity="0.501961" points="252,115 266,171 196,185" />
<polygon fill="#323838" fill-opacity="0.501961" points="49,162 226,110 74,112" />
<polygon fill="#4c4f5d" fill-opacity="0.501961" points="219,157 214,137 168,163" />
<polygon fill="#dfb46c" fill-opacity="0.501961" points="102,89 62,90 53,77" />
<polygon fill="#0e131e" fill-opacity="0.501961" points="-16,113 -15,145 102,127" />
<polygon fill="#717a84" fill-opacity="0.501961" points="93,111 223,109 191,83" />
<polygon fill="#59606c" fill-opacity="0.501961" points="242,28 271,101 -14,51" />
<polygon fill="#081215" fill-opacity="0.501961" points="82,185 193,151 -6,149" />
<polygon fill="#5a5b5e" fill-opacity="0.501961" points="194,-16 5,110 -16,37" />
<polygon fill="#857365" fill-opacity="0.501961" points="61,99 59,76 1,71" />
<polygon fill="#6d7a83" fill-opacity="0.501961" points="115,93 57,109 174,111" />
<polygon fill="#636e76" fill-opacity="0.501961" points="73,83 207,88 143,56" />
<polygon fill="#505153" fill-opacity="0.501961" points="91,129 97,140 53,137" />
<polygon fill="#b28b6f" fill-opacity="0.501961" points="104,99 89,85 151,90" />
<polygon fill="#57595b" fill-opacity="0.501961" points="9,2 271,69 228,-16" />
<polygon fill="#5a5f63" fill-opacity="0.501961" points="197,132 209,154 217,152" />
<polygon fill="#2c3233" fill-opacity="0.501961" points="107,153 118,111 235,112" />
<polygon fill="#131a23" fill-opacity="0.501961" points="270,118 237,149 183,123" />
<polygon fill="#bda172" fill-opacity="0.501961" points="77,76 55,75 65,94" />
<polygon fill="#555359" fill-opacity="0.501961" points="69,93 91,94 73,88" />
<polygon fill="#a28773" fill-opacity="0.501961" points="155,98 187,88 130,88" />
<polygon fill="#00060d" fill-opacity="0.501961" points="235,144 271,168 211,185" />
<polygon fill="#222623" fill-opacity="0.501961" points="49,155 26,141 90,138" />
<polygon fill="#55585e" fill-opacity="0.501961" points="14,111 56,81 -16,88" />
<polygon fill="#636b74" fill-opacity="0.501961" points="106,108 137,97 74,97" />
<polygon fill="#2b2b30" fill-opacity="0.501961" points="208,185 133,139 178,151" />
<polygon fill="#040c11" fill-opacity="0.501961" points="-12,148 114,161 -16,182" />
<polygon fill="#6a696a" fill-opacity="0.501961" points="162,123 163,118 154,123" />
<polygon fill="#171a2a" fill-opacity="0.501961" points="196,185 204,152 224,155" />
<polygon fill="#a07863" fill-opacity="0.501961" points="52,90 63,96 33,94" />
<polygon fill="#595b65" fill-opacity="0.501961" points="224,110 209,22 267,110" />
<polygon fill="#504f51" fill-opacity="0.501961" points="38,141 48,138 32,137" />
<polygon fill="#272d32" fill-opacity="0.501961" points="64,131 75,111 -1,111" />
<polygon fill="#13191a" fill-opacity="0.501961" points="-4,145 78,165 -8,113" />
<polygon fill="#59606c" fill-opacity="0.501961" points="228,71 97,36 -6,73" />
<polygon fill="#bfcfb0" fill-opacity="0.501961" points="68,84 64,88 63,78" />
<polygon fill="#1e2429" fill-opacity="0.501961" points="132,140 123,122 75,123" />
<polygon fill="#737c81" fill-opacity="0.501961" points="187,110 162,93 104,109" />
<polygon fill="#393b44" fill-opacity="0.501961" points="223,145 200,145 191,127" />
<polygon fill="#676a73" fill-opacity="0.501961" points="227,109 149,101 226,88" />
<polygon fill="#575c5d" fill-opacity="0.501961" points="203,154 192,159 179,156" />
<polygon fill="#2a302c" fill-opacity="0.501961" points="105,151 74,140 143,125" />
<polygon fill="#202833" fill-opacity="0.501961" points="249,127 258,110 188,113" />
<polygon fill="#777a7a" fill-opacity="0.501961" points="133,88 153,78 96,77" />
<polygon fill="#3b4240" fill-opacity="0.501961" points="113,110 122,122 155,110" />
<polygon fill="#5f5f62" fill-opacity="0.501961" points="17,92 -8,69 62,91" />
<polygon fill="#56595b" fill-opacity="0.501961" points="72,131 96,131 73,138" />
<polygon fill="#9f725a" fill-opacity="0.501961" points="55,95 60,88 73,90" />
<polygon fill="#191d24" fill-opacity="0.501961" points="195,122 156,166 199,146" />
<polygon fill="#0d1b18" fill-opacity="0.501961" points="57,158 78,144 111,152" />
<polygon fill="#4d555b" fill-opacity="0.501961" points="39,110 -16,110 -16,95" />
<polygon fill="#958376" fill-opacity="0.501961" points="105,93 139,85 173,99" />
<polygon fill="#222031" fill-opacity="0.501961" points="195,185 111,169 201,157" />
<polygon fill="#9b7d6a" fill-opacity="0.501961" points="79,95 110,98 122,87" />
<polygon fill="#6d6a66" fill-opacity="0.501961" points="103,74 103,85 69,80" />
<polygon fill="#10121c" fill-opacity="0.501961" points="145,144 178,185 128,159" />
<polygon fill="#64717c" fill-opacity="0.501961" points="40,109 69,100 98,111" />
<polygon fill="#a38567" fill-opacity="0.501961" points="53,80 42,75 68,76" />
<polygon fill="#4d5556" fill-opacity="0.501961" points="-12,78 33,15 -16,-16" />
<polygon fill="#5c6265" fill-opacity="0.501961" points="206,142 202,146 215,151" />
<polygon fill="#7f736f" fill-opacity="0.501961" points="179,86 184,98 221,92" />
<polygon fill="#5b5f6a" fill-opacity="0.501961" points="22,93 76,97 20,109" />
<polygon fill="#5b6570" fill-opacity="0.501961" points="79,54 216,90 183,52" />
<polygon fill="#151a29" fill-opacity="0.501961" points="61,130 112,130 87,123" />
<polygon fill="#151a22" fill-opacity="0.501961" points="271,108 250,144 207,137" />
<polygon fill="#070e1b" fill-opacity="0.501961" points="15,129 44,130 10,139" />
<polygon fill="#202426" fill-opacity="0.501961" points="-11,139 17,147 38,136" />
<polygon fill="#be9670" fill-opacity="0.501961" points="115,88 96,86 99,91" />
<polygon fill="#57595a" fill-opacity="0.501961" points="236,-16 31,2 178,28" />
<polygon fill="#1f2629" fill-opacity="0.501961" points="-16,110 31,131 75,122" />
<polygon fill="#585b66" fill-opacity="0.501961" points="255,72 198,29 95,30" />
<polygon fill="#646162" fill-opacity="0.501961" points="70,90 57,96 80,94" />
<polygon fill="#313535" fill-opacity="0.501961" points="148,134 162,112 71,113" />
<polygon fill="#0c1616" fill-opacity="0.501961" points="55,159 17,185 30,140" />
<polygon fill="#5b6471" fill-opacity="0.501961" points="251,108 213,94 204,110" />
<polygon fill="#585b61" fill-opacity="0.501961" points="-16,67 94,76 43,29" />
<polygon fill="#726d69" fill-opacity="0.501961" points="21,73 59,82 25,85" />
<polygon fill="#494c49" fill-opacity="0.501961" points="102,133 92,132 97,136" />
<polygon fill="#585a5e" fill-opacity="0.501961" points="236,106 271,105 237,38" />
<polygon fill="#0d1221" fill-opacity="0.501961" points="51,129 71,133 46,135" />
<polygon fill="#727e84" fill-opacity="0.501961" points="125,110 78,109 108,101" />
<polygon fill="#07101c" fill-opacity="0.501961" points="169,145 155,142 170,141" />
<polygon fill="#4f5656" fill-opacity="0.501961" points="246,40 271,1 196,-8" />
<polygon fill="#958173" fill-opacity="0.501961" points="194,91 146,85 167,97" />
<polygon fill="#c8a468" fill-opacity="0.501961" points="78,85 96,86 84,89" />
<polygon fill="#6c767c" fill-opacity="0.501961" points="175,111 171,99 135,98" />
<polygon fill="#2a2d2f" fill-opacity="0.501961" points="83,140 79,134 65,148" />
<polygon fill="#45474d" fill-opacity="0.501961" points="51,138 45,141 36,137" />
<polygon fill="#10131d" fill-opacity="0.501961" points="200,163 238,158 188,182" />
<polygon fill="#363640" fill-opacity="0.501961" points="220,149 205,137 220,142" />
<polygon fill="#1a2420" fill-opacity="0.501961" points="88,147 133,150 121,161" />
<polygon fill="#0b1017" fill-opacity="0.501961" points="271,151 232,161 221,142" />
<polygon fill="#272a2d" fill-opacity="0.501961" points="224,126 207,112 164,122" />
<polygon fill="#c5a063" fill-opacity="0.501961" points="77,89 76,85 62,89" />
<polygon fill="#9c7f62" fill-opacity="0.501961" points="80,75 78,84 61,76" />
<polygon fill="#6d7176" fill-opacity="0.501961" points="161,77 189,89 137,83" />
<polygon fill="#060913" fill-opacity="0.501961" points="211,126 212,131 199,131" />
<polygon fill="#2b3127" fill-opacity="0.501961" points="182,155 167,149 152,154" />
<polygon fill="#737e84" fill-opacity="0.501961" points="171,100 134,110 200,110" />
<polygon fill="#2f303a" fill-opacity="0.501961" points="180,166 206,159 174,159" />
<polygon fill="#141b1f" fill-opacity="0.501961" points="116,140 138,138 128,135" />
<polygon fill="#716865" fill-opacity="0.501961" points="74,89 98,92 85,94" />
<polygon fill="#55595a" fill-opacity="0.501961" points="99,-16 -7,79 22,-16" />
<polygon fill="#aa8066" fill-opacity="0.501961" points="52,91 40,95 60,94" />
<polygon fill="#32383c" fill-opacity="0.501961" points="74,112 49,112 74,119" />
<polygon fill="#212724" fill-opacity="0.501961" points="53,155 70,137 41,147" />
<polygon fill="#535454" fill-opacity="0.501961" points="164,124 156,118 156,124" />
<polygon fill="#83786c" fill-opacity="0.501961" points="33,80 21,75 47,76" />
<polygon fill="#575b62" fill-opacity="0.501961" points="142,40 33,49 102,11" />
<polygon fill="#2a302f" fill-opacity="0.501961" points="90,147 163,125 125,120" />
<polygon fill="#020b13" fill-opacity="0.501961" points="78,155 125,165 50,169" />
<polygon fill="#272331" fill-opacity="0.501961" points="87,167 157,176 92,185" />
<polygon fill="#bcbf96" fill-opacity="0.501961" points="68,82 61,80 60,86" />
<polygon fill="#353740" fill-opacity="0.501961" points="206,161 199,144 209,155" />
<polygon fill="#342f31" fill-opacity="0.501961" points="159,147 122,143 141,139" />
<polygon fill="#02090f" fill-opacity="0.501961" points="10,151 47,180 -11,160" />
<polygon fill="#5e6a73" fill-opacity="0.501961" points="121,61 181,82 85,75" />
<polygon fill="#272d2d" fill-opacity="0.501961" points="88,124 65,114 29,129" />
<polygon fill="#595e63" fill-opacity="0.501961" points="38,89 61,92 48,86" />
<polygon fill="#686a70" fill-opacity="0.501961" points="76,96 100,105 111,99" />
<polygon fill="#988778" fill-opacity="0.501961" points="135,96 111,86 156,88" />
<polygon fill="#1f1c23" fill-opacity="0.501961" points="209,136 230,146 248,140" />
<polygon fill="#3a3c44" fill-opacity="0.501961" points="203,142 207,135 196,133" />
<polygon fill="#2b3239" fill-opacity="0.501961" points="223,112 172,111 176,124" />
<polygon fill="#2b2c2e" fill-opacity="0.501961" points="41,137 26,139 30,135" />
<polygon fill="#ab825d" fill-opacity="0.501961" points="64,94 56,86 59,82" />
<polygon fill="#272d2e" fill-opacity="0.501961" points="151,137 186,141 164,119" />
<polygon fill="#697379" fill-opacity="0.501961" points="133,97 159,101 117,106" />
<polygon fill="#000006" fill-opacity="0.501961" points="242,163 226,185 231,167" />
<polygon fill="#19161e" fill-opacity="0.501961" points="178,130 194,124 189,120" />
<polygon fill="#676665" fill-opacity="0.501961" points="2,71 36,71 15,81" />
<polygon fill="#282b35" fill-opacity="0.501961" points="221,153 218,162 202,153" />
<polygon fill="#6b6e71" fill-opacity="0.501961" points="113,85 77,79 128,74" />
<polygon fill="#b38c71" fill-opacity="0.501961" points="124,91 116,93 126,95" />
<polygon fill="#60676f" fill-opacity="0.501961" points="186,72 179,87 214,91" />
<polygon fill="#1b2028" fill-opacity="0.501961" points="4,114 44,114 17,130" />
<polygon fill="#7c7570" fill-opacity="0.501961" points="99,92 106,91 111,95" />
<polygon fill="#455056" fill-opacity="0.501961" points="2,-15 -16,54 8,19" />
<polygon fill="#8e8174" fill-opacity="0.501961" points="131,88 106,88 109,94" />
<polygon fill="#2f3430" fill-opacity="0.501961" points="123,134 150,124 177,134" />
<polygon fill="#2f3e49" fill-opacity="0.501961" points="-13,105 14,111 -4,112" />
<polygon fill="#0f1719" fill-opacity="0.501961" points="64,164 59,153 90,143" />
<polygon fill="#2a2b2f" fill-opacity="0.501961" points="152,169 122,185 120,167" />
<polygon fill="#0e121a" fill-opacity="0.501961" points="163,162 137,148 130,166" />
<polygon fill="#0e1420" fill-opacity="0.501961" points="48,136 20,132 52,128" />
<polygon fill="#59595b" fill-opacity="0.501961" points="-16,126 18,89 -11,43" />
<polygon fill="#201e2c" fill-opacity="0.501961" points="145,167 177,158 134,185" />
<polygon fill="#57595c" fill-opacity="0.501961" points="58,-1 258,50 203,-16" />
<polygon fill="#595e69" fill-opacity="0.501961" points="80,76 112,37 50,43" />
<polygon fill="#2a2a33" fill-opacity="0.501961" points="70,138 53,139 69,146" />
<polygon fill="#2c2e38" fill-opacity="0.501961" points="192,154 198,144 200,154" />
<polygon fill="#69727a" fill-opacity="0.501961" points="151,103 188,96 197,108" />
<polygon fill="#47504e" fill-opacity="0.501961" points="205,144 198,143 203,147" />
<polygon fill="#af8e71" fill-opacity="0.501961" points="172,90 160,89 166,92" />
<polygon fill="#5c636d" fill-opacity="0.501961" points="8,106 47,109 72,94" />
<polygon fill="#515458" fill-opacity="0.501961" points="185,154 190,159 195,154" />
<polygon fill="#2f3332" fill-opacity="0.501961" points="84,136 86,132 89,138" />
<polygon fill="#af8c65" fill-opacity="0.501961" points="51,81 68,78 61,76" />
<polygon fill="#7b8286" fill-opacity="0.501961" points="167,109 130,110 149,104" />
<polygon fill="#6c6664" fill-opacity="0.501961" points="57,82 44,87 29,81" />
<polygon fill="#475257" fill-opacity="0.501961" points="256,30 237,-16 271,9" />
<polygon fill="#766d63" fill-opacity="0.501961" points="91,78 84,85 78,83" />
<polygon fill="#a77f6b" fill-opacity="0.501961" points="104,95 92,98 85,94" />
<polygon fill="#7c6b63" fill-opacity="0.501961" points="67,96 56,92 58,89" />
<polygon fill="#363a37" fill-opacity="0.501961" points="90,121 69,117 111,113" />
<polygon fill="#151a26" fill-opacity="0.501961" points="61,135 75,130 45,129" />
<polygon fill="#262c2d" fill-opacity="0.501961" points="131,144 101,131 103,152" />
<polygon fill="#171b23" fill-opacity="0.501961" points="217,155 222,148 234,160" />
<polygon fill="#3b3c3e" fill-opacity="0.501961" points="177,114 168,118 183,117" />
<polygon fill="#1d2427" fill-opacity="0.501961" points="204,122 220,118 225,140" />
<polygon fill="#b69371" fill-opacity="0.501961" points="116,86 103,92 103,86" />
<polygon fill="#a37c5e" fill-opacity="0.501961" points="58,83 53,86 51,83" />
<polygon fill="#0d1320" fill-opacity="0.501961" points="26,135 21,144 -4,125" />
<polygon fill="#1b2621" fill-opacity="0.501961" points="77,143 95,153 89,142" />
<polygon fill="#070f15" fill-opacity="0.501961" points="104,163 119,157 144,167" />
<polygon fill="#191a21" fill-opacity="0.501961" points="191,152 195,141 168,148" />
<polygon fill="#666867" fill-opacity="0.501961" points="64,72 45,74 54,76" />
<polygon fill="#2a2d2a" fill-opacity="0.501961" points="202,114 186,129 206,124" />
<polygon fill="#837674" fill-opacity="0.501961" points="183,95 155,100 151,92" />
<polygon fill="#343736" fill-opacity="0.501961" points="144,112 128,121 159,118" />
<polygon fill="#535557" fill-opacity="0.501961" points="218,152 204,151 211,149" />
<polygon fill="#5d5f63" fill-opacity="0.501961" points="27,94 19,82 59,88" />
<polygon fill="#252930" fill-opacity="0.501961" points="120,119 92,127 139,129" />
<polygon fill="#5b6267" fill-opacity="0.501961" points="74,91 87,91 73,96" />
<polygon fill="#585a5c" fill-opacity="0.501961" points="70,-16 39,13 99,32" />
<polygon fill="#222527" fill-opacity="0.501961" points="3,139 4,144 13,130" />
<polygon fill="#595d67" fill-opacity="0.501961" points="244,65 183,41 243,108" />
<polygon fill="#666669" fill-opacity="0.501961" points="231,89 211,95 242,96" />
<polygon fill="#0e171e" fill-opacity="0.501961" points="241,137 219,129 271,128" />
<polygon fill="#5d636a" fill-opacity="0.501961" points="207,143 210,145 202,147" />
<polygon fill="#737777" fill-opacity="0.501961" points="156,86 111,85 126,76" />
<polygon fill="#35363e" fill-opacity="0.501961" points="202,135 220,144 220,153" />
<polygon fill="#1b2027" fill-opacity="0.501961" points="212,126 267,122 242,115" />
<polygon fill="#c19068" fill-opacity="0.501961" points="82,96 89,94 91,96" />
<polygon fill="#4a5659" fill-opacity="0.501961" points="31,111 39,108 46,111" />
<polygon fill="#686b6b" fill-opacity="0.501961" points="71,133 75,133 74,137" />
<polygon fill="#b98b6c" fill-opacity="0.501961" points="101,86 86,89 95,91" />
<polygon fill="#07121c" fill-opacity="0.501961" points="95,165 90,152 80,170" />
<polygon fill="#676568" fill-opacity="0.501961" points="51,94 32,94 62,103" />
<polygon fill="#616a74" fill-opacity="0.501961" points="66,99 33,106 52,109" />
<polygon fill="#202326" fill-opacity="0.501961" points="43,150 39,142 51,140" />
<polygon fill="#a77961" fill-opacity="0.501961" points="73,90 68,88 78,88" />
<polygon fill="#6b767e" fill-opacity="0.501961" points="88,110 67,109 101,101" />
<polygon fill="#6b6c6e" fill-opacity="0.501961" points="98,98 81,102 73,97" />
<polygon fill="#5b626e" fill-opacity="0.501961" points="83,51 231,91 176,46" />
<polygon fill="#1d242a" fill-opacity="0.501961" points="154,134 167,135 145,146" />
<polygon fill="#272624" fill-opacity="0.501961" points="76,135 88,146 80,143" />
<polygon fill="#253845" fill-opacity="0.501961" points="204,111 194,115 185,111" />
<polygon fill="#030811" fill-opacity="0.501961" points="268,158 252,170 231,151" />
<polygon fill="#162219" fill-opacity="0.501961" points="60,147 50,153 31,148" />
<polygon fill="#363a39" fill-opacity="0.501961" points="87,143 106,132 94,131" />
<polygon fill="#798388" fill-opacity="0.501961" points="120,104 116,110 139,109" />
<polygon fill="#575a61" fill-opacity="0.501961" points="17,70 13,41 87,32" />
<polygon fill="#181f1b" fill-opacity="0.501961" points="29,164 32,156 35,160" />
<polygon fill="#272a2f" fill-opacity="0.501961" points="69,137 78,141 60,145" />
<polygon fill="#111722" fill-opacity="0.501961" points="0,138 -3,123 18,120" />
<polygon fill="#c48969" fill-opacity="0.501961" points="44,94 46,93 41,93" />
<polygon fill="#1d2128" fill-opacity="0.501961" points="204,140 181,148 170,141" />
<polygon fill="#9b8474" fill-opacity="0.501961" points="155,94 142,88 119,96" />
<polygon fill="#16151c" fill-opacity="0.501961" points="194,128 205,134 202,126" />
<polygon fill="#081011" fill-opacity="0.501961" points="29,147 16,149 32,141" />
<polygon fill="#515355" fill-opacity="0.501961" points="158,123 155,122 164,117" />
<polygon fill="#1d2227" fill-opacity="0.501961" points="215,141 240,140 234,134" />
<polygon fill="#11141e" fill-opacity="0.501961" points="167,159 173,154 178,159" />
<polygon fill="#0b0f1e" fill-opacity="0.501961" points="34,137 53,134 43,132" />
<polygon fill="#1b2321" fill-opacity="0.501961" points="75,151 79,143 58,152" />
<polygon fill="#767068" fill-opacity="0.501961" points="78,83 99,85 82,76" />
<polygon fill="#494c50" fill-opacity="0.501961" points="62,139 53,138 70,135" />
<polygon fill="#7e6c67" fill-opacity="0.501961" points="39,93 41,97 29,92" />
<polygon fill="#84746b" fill-opacity="0.501961" points="85,90 102,93 93,95" />
<polygon fill="#656f7a" fill-opacity="0.501961" points="194,98 217,108 193,110" />
<polygon fill="#27292d" fill-opacity="0.501961" points="44,116 17,117 34,121" />
<polygon fill="#232729" fill-opacity="0.501961" points="66,138 56,152 55,140" />
<polygon fill="#7f746a" fill-opacity="0.501961" points="36,74 20,78 50,79" />
<polygon fill="#6d777e" fill-opacity="0.501961" points="127,99 91,105 118,111" />
<polygon fill="#1c2228" fill-opacity="0.501961" points="4,129 61,123 30,118" />
<polygon fill="#484c53" fill-opacity="0.501961" points="176,154 186,154 184,158" />
<polygon fill="#040d11" fill-opacity="0.501961" points="109,166 102,153 90,185" />
<polygon fill="#7a8087" fill-opacity="0.501961" points="97,109 119,110 107,106" />
<polygon fill="#33312e" fill-opacity="0.501961" points="119,149 124,151 119,140" />
<polygon fill="#353d46" fill-opacity="0.501961" points="46,111 38,114 29,112" />
<polygon fill="#141b1e" fill-opacity="0.501961" points="127,146 112,163 138,156" />
<polygon fill="#8f8177" fill-opacity="0.501961" points="156,95 147,89 130,91" />
</g>
</svg>