<svg xmlns="http://www.w3.org/2000/svg" version="1.1" width="1024" height="680">
<rect x="0" y="0" width="1024" height="680" fill="#484b4f" />
<g transform="scale(4.000000) translate(0.5 0.5)">
<polygon fill="#000000" fill-opacity="0.501961" points="250,185 271,102 -16,160" />
<polygon fill="#7f8186" fill-opacity="0.501961" points="144,-16 271,111 -16,108" />
<polygon fill="#010a0d" fill-opacity="0.501961" points="-16,112 195,113 7,185" />
<polygon fill="#a7927a" fill-opacity="0.501961" points="215,92 13,70 118,111" />
<polygon fill="#5a5d62" fill-opacity="0.501961" points="271,8 7,-16 -16,100" />
<polygon fill="#00080c" fill-opacity="0.501961" points="-4,185 175,160 -16,136" />
<polygon fill="#575c63" fill-opacity="0.501961" points="-16,13 271,111 249,-16" />
<polygon fill="#323838" fill-opacity="0.501961" points="48,163 80,112 230,111" />
<polygon fill="#00000d" fill-opacity="0.501961" points="251,116 271,170 197,185" />
<polygon fill="#4b4e5c" fill-opacity="0.501961" points="221,158 214,138 168,163" />
<polygon fill="#d3aa6a" fill-opacity="0.501961" points="107,89 53,74 62,90" />
<polygon fill="#0e131e" fill-opacity="0.501961" points="-16,112 -8,144 101,127" />
<polygon fill="#717c85" fill-opacity="0.501961" points="146,87 211,110 59,111" />
<polygon fill="#585c65" fill-opacity="0.501961" points="153,-16 271,69 -16,76" />
<polygon fill="#5e6a75" fill-opacity="0.501961" points="131,36 72,85 215,84" />
<polygon fill="#a68771" fill-opacity="0.501961" points="129,81 173,96 80,96" />
<polygon fill="#050f12" fill-opacity="0.501961" points="154,152 -16,149 26,185" />
<polygon fill="#4c4d51" fill-opacity="0.501961" points="110,138 55,137 79,129" />
<polygon fill="#7c6d63" fill-opacity="0.501961" points="50,74 69,101 -7,71" />
<polygon fill="#575d61" fill-opacity="0.501961" points="195,131 221,153 205,150" />
<polygon fill="#1a232c" fill-opacity="0.501961" points="245,147 264,110 172,110" />
<polygon fill="#57595a" fill-opacity="0.501961" points="-16,4 231,-16 271,58" />
<polygon fill="#53565c" fill-opacity="0.501961" points="-5,60 46,111 -16,107" />
<polygon fill="#2c3130" fill-opacity="0.501961" points="213,112 81,134 111,159" />
<polygon fill="#756965" fill-opacity="0.501961" points="39,93 96,104 83,89" />
<polygon fill="#2c2f2c" fill-opacity="0.501961" points="30,136 47,156 84,140" />
<polygon fill="#6e757f" fill-opacity="0.501961" points="121,109 212,85 214,110" />
<polygon fill="#cbbe81" fill-opacity="0.501961" points="59,79 63,88 86,87" />
<polygon fill="#050b15" fill-opacity="0.501961" points="232,144 271,164 180,177" />
<polygon fill="#595d68" fill-opacity="0.501961" points="116,36 271,119 236,29" />
<polygon fill="#6d7479" fill-opacity="0.501961" points="186,87 130,70 104,85" />
<polygon fill="#616c77" fill-opacity="0.501961" points="76,97 152,98 113,108" />
<polygon fill="#282f33" fill-opacity="0.501961" points="62,129 0,112 85,111" />
<polygon fill="#a97f60" fill-opacity="0.501961" points="65,95 75,85 39,94" />
<polygon fill="#12161d" fill-opacity="0.501961" points="243,154 195,127 266,120" />
<polygon fill="#5a5c60" fill-opacity="0.501961" points="-1,93 147,-16 2,40" />
<polygon fill="#5d5d5e" fill-opacity="0.501961" points="160,125 155,122 166,116" />
<polygon fill="#252435" fill-opacity="0.501961" points="229,156 163,160 182,175" />
<polygon fill="#10161c" fill-opacity="0.501961" points="165,174 153,148 76,149" />
<polygon fill="#5c6773" fill-opacity="0.501961" points="79,90 73,111 20,107" />
<polygon fill="#575a5e" fill-opacity="0.501961" points="60,91 -16,93 20,80" />
<polygon fill="#4f5254" fill-opacity="0.501961" points="76,139 102,131 72,131" />
<polygon fill="#867665" fill-opacity="0.501961" points="79,84 107,78 55,74" />
<polygon fill="#555a5d" fill-opacity="0.501961" points="199,154 174,154 187,158" />
<polygon fill="#171c21" fill-opacity="0.501961" points="193,151 161,160 198,121" />
<polygon fill="#101719" fill-opacity="0.501961" points="36,170 54,155 -15,107" />
<polygon fill="#1b2128" fill-opacity="0.501961" points="50,136 -4,112 108,126" />
<polygon fill="#363742" fill-opacity="0.501961" points="190,129 219,140 222,153" />
<polygon fill="#44464e" fill-opacity="0.501961" points="46,142 36,138 54,136" />
<polygon fill="#050d12" fill-opacity="0.501961" points="-10,185 134,164 -10,147" />
<polygon fill="#595f6c" fill-opacity="0.501961" points="43,47 91,82 133,45" />
<polygon fill="#585b61" fill-opacity="0.501961" points="246,32 264,109 223,111" />
<polygon fill="#bc926b" fill-opacity="0.501961" points="95,93 115,87 77,84" />
<polygon fill="#7c878b" fill-opacity="0.501961" points="131,110 179,110 153,103" />
<polygon fill="#3a3f3d" fill-opacity="0.501961" points="152,116 104,120 119,110" />
<polygon fill="#b18f67" fill-opacity="0.501961" points="74,77 49,75 56,81" />
<polygon fill="#a98a76" fill-opacity="0.501961" points="178,91 156,87 156,93" />
<polygon fill="#5b6570" fill-opacity="0.501961" points="86,64 226,93 179,45" />
<polygon fill="#6c7881" fill-opacity="0.501961" points="84,98 124,109 52,110" />
<polygon fill="#1b1f2a" fill-opacity="0.501961" points="112,122 123,134 75,127" />
<polygon fill="#706b67" fill-opacity="0.501961" points="55,82 10,83 13,70" />
<polygon fill="#96796b" fill-opacity="0.501961" points="99,98 89,90 123,95" />
<polygon fill="#212325" fill-opacity="0.501961" points="20,149 -11,136 30,138" />
<polygon fill="#00060d" fill-opacity="0.501961" points="250,180 271,146 224,166" />
<polygon fill="#4d5556" fill-opacity="0.501961" points="-16,-8 -16,68 38,11" />
<polygon fill="#13201c" fill-opacity="0.501961" points="96,153 75,153 77,135" />
<polygon fill="#2c3237" fill-opacity="0.501961" points="242,111 160,111 202,124" />
<polygon fill="#605f61" fill-opacity="0.501961" points="66,90 58,100 92,91" />
<polygon fill="#636973" fill-opacity="0.501961" points="216,111 243,89 164,100" />
<polygon fill="#2a302f" fill-opacity="0.501961" points="76,113 28,128 70,128" />
<polygon fill="#bbc4a1" fill-opacity="0.501961" points="67,83 60,82 67,88" />
<polygon fill="#56585a" fill-opacity="0.501961" points="250,45 48,0 233,-16" />
<polygon fill="#0c121f" fill-opacity="0.501961" points="24,128 37,137 65,133" />
<polygon fill="#373e44" fill-opacity="0.501961" points="83,110 60,111 74,119" />
<polygon fill="#2a2e2f" fill-opacity="0.501961" points="111,118 191,128 115,152" />
<polygon fill="#1a211f" fill-opacity="0.501961" points="66,163 34,142 60,140" />
<polygon fill="#6e7070" fill-opacity="0.501961" points="105,72 73,83 136,85" />
<polygon fill="#82766b" fill-opacity="0.501961" points="58,74 45,81 23,76" />
<polygon fill="#606563" fill-opacity="0.501961" points="78,132 67,136 72,137" />
<polygon fill="#1d212c" fill-opacity="0.501961" points="211,172 226,153 207,154" />
<polygon fill="#272c2a" fill-opacity="0.501961" points="104,151 157,131 71,139" />
<polygon fill="#b7865a" fill-opacity="0.501961" points="58,83 63,89 53,84" />
<polygon fill="#748086" fill-opacity="0.501961" points="96,110 157,110 132,99" />
<polygon fill="#656160" fill-opacity="0.501961" points="40,79 41,85 60,82" />
<polygon fill="#a58864" fill-opacity="0.501961" points="78,90 78,76 66,75" />
<polygon fill="#af8b71" fill-opacity="0.501961" points="131,97 113,92 139,92" />
<polygon fill="#6c757c" fill-opacity="0.501961" points="175,111 189,96 129,102" />
<polygon fill="#23242f" fill-opacity="0.501961" points="67,170 105,180 95,167" />
<polygon fill="#51595b" fill-opacity="0.501961" points="206,141 213,147 197,145" />
<polygon fill="#0c121e" fill-opacity="0.501961" points="48,130 -16,128 16,138" />
<polygon fill="#7a7070" fill-opacity="0.501961" points="223,92 181,86 195,98" />
<polygon fill="#585b63" fill-opacity="0.501961" points="35,23 42,75 83,74" />
<polygon fill="#af8568" fill-opacity="0.501961" points="85,97 76,94 94,95" />
<polygon fill="#313533" fill-opacity="0.501961" points="124,116 173,131 139,135" />
<polygon fill="#1d2228" fill-opacity="0.501961" points="160,142 194,118 198,148" />
<polygon fill="#4d5557" fill-opacity="0.501961" points="270,-13 271,54 221,3" />
<polygon fill="#55585a" fill-opacity="0.501961" points="13,30 16,-4 137,39" />
<polygon fill="#33353c" fill-opacity="0.501961" points="213,139 201,143 192,130" />
<polygon fill="#938176" fill-opacity="0.501961" points="195,91 133,85 150,99" />
<polygon fill="#656971" fill-opacity="0.501961" points="85,96 58,106 112,101" />
<polygon fill="#7c716b" fill-opacity="0.501961" points="106,92 88,91 94,95" />
<polygon fill="#777a79" fill-opacity="0.501961" points="125,87 162,87 124,76" />
<polygon fill="#383b3b" fill-opacity="0.501961" points="101,133 76,136 91,142" />
<polygon fill="#545759" fill-opacity="0.501961" points="16,109 5,79 -16,109" />
<polygon fill="#585c60" fill-opacity="0.501961" points="205,150 206,143 217,154" />
<polygon fill="#1a1920" fill-opacity="0.501961" points="223,142 220,159 238,136" />
<polygon fill="#272c2e" fill-opacity="0.501961" points="154,140 166,114 183,139" />
<polygon fill="#1b2127" fill-opacity="0.501961" points="218,135 203,120 271,118" />
<polygon fill="#0c1517" fill-opacity="0.501961" points="21,163 87,145 68,164" />
<polygon fill="#5d6573" fill-opacity="0.501961" points="206,94 211,108 253,109" />
<polygon fill="#0f1720" fill-opacity="0.501961" points="133,135 124,137 128,142" />
<polygon fill="#3a3d38" fill-opacity="0.501961" points="76,117 91,121 109,114" />
<polygon fill="#27292c" fill-opacity="0.501961" points="49,147 84,142 70,137" />
<polygon fill="#bbc0a6" fill-opacity="0.501961" points="65,87 61,80 67,82" />
<polygon fill="#242230" fill-opacity="0.501961" points="177,156 216,185 103,185" />
<polygon fill="#1e2328" fill-opacity="0.501961" points="5,114 35,137 39,114" />
<polygon fill="#131820" fill-opacity="0.501961" points="217,140 193,128 245,129" />
<polygon fill="#797065" fill-opacity="0.501961" points="79,77 86,84 71,80" />
<polygon fill="#585b63" fill-opacity="0.501961" points="86,19 129,49 232,26" />
<polygon fill="#11101e" fill-opacity="0.501961" points="238,185 215,161 199,163" />
<polygon fill="#373134" fill-opacity="0.501961" points="155,146 127,142 144,139" />
<polygon fill="#1c2622" fill-opacity="0.501961" points="90,150 132,157 129,146" />
<polygon fill="#202426" fill-opacity="0.501961" points="240,140 200,116 221,142" />
<polygon fill="#111625" fill-opacity="0.501961" points="81,124 60,134 70,134" />
<polygon fill="#2e2e36" fill-opacity="0.501961" points="166,159 191,169 194,160" />
<polygon fill="#10161f" fill-opacity="0.501961" points="170,141 173,149 153,141" />
<polygon fill="#837773" fill-opacity="0.501961" points="173,99 153,95 191,91" />
<polygon fill="#515657" fill-opacity="0.501961" points="187,155 186,160 201,155" />
<polygon fill="#ae8068" fill-opacity="0.501961" points="41,94 56,94 49,91" />
<polygon fill="#292d2b" fill-opacity="0.501961" points="154,154 174,152 143,138" />
<polygon fill="#0f101c" fill-opacity="0.501961" points="145,144 156,164 129,168" />
<polygon fill="#2e303b" fill-opacity="0.501961" points="194,151 213,158 200,144" />
<polygon fill="#33373c" fill-opacity="0.501961" points="198,112 191,120 165,117" />
<polygon fill="#30313b" fill-opacity="0.501961" points="219,157 203,158 217,153" />
<polygon fill="#846d65" fill-opacity="0.501961" points="48,91 41,96 33,94" />
<polygon fill="#505356" fill-opacity="0.501961" points="64,137 59,136 57,139" />
<polygon fill="#6c7377" fill-opacity="0.501961" points="111,106 148,98 123,96" />
<polygon fill="#c19f63" fill-opacity="0.501961" points="78,84 88,88 64,89" />
<polygon fill="#be966f" fill-opacity="0.501961" points="77,86 111,86 93,91" />
<polygon fill="#111916" fill-opacity="0.501961" points="-6,146 58,157 26,142" />
<polygon fill="#25242f" fill-opacity="0.501961" points="114,167 146,168 84,185" />
<polygon fill="#455056" fill-opacity="0.501961" points="-16,41 9,20 1,-14" />
<polygon fill="#5a616c" fill-opacity="0.501961" points="77,76 176,43 86,44" />
<polygon fill="#5a5c60" fill-opacity="0.501961" points="58,89 -11,77 13,95" />
<polygon fill="#000711" fill-opacity="0.501961" points="43,185 55,165 91,156" />
<polygon fill="#090f15" fill-opacity="0.501961" points="224,145 271,151 231,165" />
<polygon fill="#af856d" fill-opacity="0.501961" points="100,93 94,97 109,96" />
<polygon fill="#0e0e1a" fill-opacity="0.501961" points="185,122 192,123 188,126" />
<polygon fill="#a08667" fill-opacity="0.501961" points="54,76 43,76 65,85" />
<polygon fill="#595c66" fill-opacity="0.501961" points="242,108 201,40 245,67" />
<polygon fill="#303132" fill-opacity="0.501961" points="25,138 39,139 31,135" />
<polygon fill="#4d4f51" fill-opacity="0.501961" points="86,130 100,133 87,134" />
<polygon fill="#56595d" fill-opacity="0.501961" points="222,32 257,41 264,127" />
<polygon fill="#8d7c69" fill-opacity="0.501961" points="35,80 34,76 24,78" />
<polygon fill="#5a5e69" fill-opacity="0.501961" points="46,99 31,94 7,107" />
<polygon fill="#4f5052" fill-opacity="0.501961" points="164,124 162,117 156,120" />
<polygon fill="#2a2c2d" fill-opacity="0.501961" points="219,126 195,115 170,120" />
<polygon fill="#bebf96" fill-opacity="0.501961" points="61,84 65,87 64,81" />
<polygon fill="#272c2f" fill-opacity="0.501961" points="94,140 120,150 126,123" />
<polygon fill="#656c73" fill-opacity="0.501961" points="159,76 172,88 203,88" />
<polygon fill="#061016" fill-opacity="0.501961" points="83,168 139,164 85,151" />
<polygon fill="#404049" fill-opacity="0.501961" points="197,137 206,134 205,139" />
<polygon fill="#6c6b6a" fill-opacity="0.501961" points="72,134 75,137 71,138" />
<polygon fill="#161a29" fill-opacity="0.501961" points="105,129 90,124 74,130" />
<polygon fill="#626365" fill-opacity="0.501961" points="76,89 72,98 82,92" />
<polygon fill="#393843" fill-opacity="0.501961" points="217,141 210,148 221,146" />
<polygon fill="#34454f" fill-opacity="0.501961" points="12,109 -14,115 -16,108" />
<polygon fill="#222524" fill-opacity="0.501961" points="10,143 -3,143 10,133" />
<polygon fill="#363936" fill-opacity="0.501961" points="107,114 159,116 129,123" />
<polygon fill="#23262e" fill-opacity="0.501961" points="72,135 64,141 70,143" />
<polygon fill="#5a5f6b" fill-opacity="0.501961" points="179,49 210,89 242,67" />
<polygon fill="#02080e" fill-opacity="0.501961" points="-16,162 12,153 23,168" />
<polygon fill="#727e84" fill-opacity="0.501961" points="194,109 158,110 177,104" />
<polygon fill="#9a8676" fill-opacity="0.501961" points="175,88 143,97 121,88" />
<polygon fill="#060914" fill-opacity="0.501961" points="212,127 200,130 208,131" />
<polygon fill="#080d1a" fill-opacity="0.501961" points="31,131 14,131 26,138" />
<polygon fill="#252b35" fill-opacity="0.501961" points="228,119 255,111 227,111" />
<polygon fill="#68717a" fill-opacity="0.501961" points="86,110 45,107 66,102" />
<polygon fill="#212426" fill-opacity="0.501961" points="39,144 52,139 66,151" />
<polygon fill="#0e121a" fill-opacity="0.501961" points="177,157 175,154 166,159" />
<polygon fill="#17181d" fill-opacity="0.501961" points="181,155 193,150 177,147" />
<polygon fill="#292b36" fill-opacity="0.501961" points="202,161 181,158 178,164" />
<polygon fill="#4f5355" fill-opacity="0.501961" points="40,140 50,137 47,140" />
<polygon fill="#3e4547" fill-opacity="0.501961" points="198,143 203,142 208,150" />
<polygon fill="#727677" fill-opacity="0.501961" points="96,77 121,86 144,80" />
<polygon fill="#585b64" fill-opacity="0.501961" points="29,71 112,30 24,46" />
<polygon fill="#1d232a" fill-opacity="0.501961" points="163,135 148,145 152,134" />
<polygon fill="#12221d" fill-opacity="0.501961" points="82,156 100,149 85,146" />
<polygon fill="#585a5b" fill-opacity="0.501961" points="54,23 29,-8 143,0" />
<polygon fill="#5e6972" fill-opacity="0.501961" points="137,64 87,76 186,79" />
<polygon fill="#7b736b" fill-opacity="0.501961" points="42,80 58,75 30,74" />
<polygon fill="#000008" fill-opacity="0.501961" points="241,162 201,185 240,185" />
<polygon fill="#222a2b" fill-opacity="0.501961" points="115,122 88,121 92,128" />
<polygon fill="#c0a063" fill-opacity="0.501961" points="70,88 64,89 72,82" />
<polygon fill="#2f373f" fill-opacity="0.501961" points="65,112 59,116 49,112" />
<polygon fill="#121b19" fill-opacity="0.501961" points="39,178 30,165 33,148" />
<polygon fill="#10181d" fill-opacity="0.501961" points="245,162 227,160 218,150" />
<polygon fill="#101718" fill-opacity="0.501961" points="75,185 88,183 63,152" />
<polygon fill="#282a2d" fill-opacity="0.501961" points="161,121 177,134 194,127" />
<polygon fill="#2a4153" fill-opacity="0.501961" points="187,112 197,111 199,114" />
<polygon fill="#6e6c69" fill-opacity="0.501961" points="77,84 85,78 103,81" />
<polygon fill="#636d78" fill-opacity="0.501961" points="192,101 230,108 196,111" />
<polygon fill="#121823" fill-opacity="0.501961" points="-16,113 -16,148 16,129" />
<polygon fill="#2a2e2e" fill-opacity="0.501961" points="82,125 77,114 40,117" />
<polygon fill="#1e2225" fill-opacity="0.501961" points="191,145 202,142 181,123" />
<polygon fill="#181a1f" fill-opacity="0.501961" points="218,133 211,138 204,132" />
<polygon fill="#2f3432" fill-opacity="0.501961" points="154,122 120,133 164,134" />
<polygon fill="#1b1823" fill-opacity="0.501961" points="199,185 261,185 197,160" />
<polygon fill="#33333c" fill-opacity="0.501961" points="215,139 225,147 209,143" />
<polygon fill="#6c7278" fill-opacity="0.501961" points="165,105 187,99 142,98" />
<polygon fill="#20251e" fill-opacity="0.501961" points="92,141 89,149 80,143" />
<polygon fill="#515558" fill-opacity="0.501961" points="81,131 73,132 86,136" />
<polygon fill="#23202b" fill-opacity="0.501961" points="150,185 88,166 91,185" />
<polygon fill="#262c29" fill-opacity="0.501961" points="92,135 103,152 126,147" />
<polygon fill="#485257" fill-opacity="0.501961" points="249,17 248,-16 271,38" />
<polygon fill="#34383b" fill-opacity="0.501961" points="107,119 115,111 83,116" />
<polygon fill="#36352d" fill-opacity="0.501961" points="98,148 101,141 89,138" />
<polygon fill="#12171d" fill-opacity="0.501961" points="142,147 161,156 111,162" />
<polygon fill="#242628" fill-opacity="0.501961" points="149,154 171,147 159,143" />
<polygon fill="#151826" fill-opacity="0.501961" points="61,135 80,128 70,128" />
<polygon fill="#a7856e" fill-opacity="0.501961" points="101,92 91,88 112,90" />
<polygon fill="#323943" fill-opacity="0.501961" points="41,113 27,114 35,111" />
<polygon fill="#b28465" fill-opacity="0.501961" points="58,92 56,95 50,92" />
<polygon fill="#5c5f69" fill-opacity="0.501961" points="253,109 239,92 216,98" />
<polygon fill="#a58a6c" fill-opacity="0.501961" points="59,76 70,79 81,75" />
<polygon fill="#1f252a" fill-opacity="0.501961" points="1,129 35,129 21,123" />
<polygon fill="#585b64" fill-opacity="0.501961" points="248,66 193,36 247,96" />
<polygon fill="#5d6468" fill-opacity="0.501961" points="100,74 75,76 75,65" />
<polygon fill="#948072" fill-opacity="0.501961" points="108,93 108,98 124,95" />
<polygon fill="#425254" fill-opacity="0.501961" points="18,111 13,108 28,108" />
<polygon fill="#14191f" fill-opacity="0.501961" points="191,147 200,147 193,144" />
<polygon fill="#251f24" fill-opacity="0.501961" points="141,150 125,148 147,144" />
<polygon fill="#535859" fill-opacity="0.501961" points="8,24 41,16 -16,72" />
<polygon fill="#23262e" fill-opacity="0.501961" points="23,120 53,116 31,113" />
<polygon fill="#696565" fill-opacity="0.501961" points="65,94 75,89 88,93" />
<polygon fill="#282f26" fill-opacity="0.501961" points="181,149 162,150 167,155" />
<polygon fill="#585c5b" fill-opacity="0.501961" points="216,152 207,152 215,148" />
<polygon fill="#6b6867" fill-opacity="0.501961" points="32,72 20,80 4,72" />
<polygon fill="#1d1b29" fill-opacity="0.501961" points="167,162 187,184 147,166" />
<polygon fill="#757f84" fill-opacity="0.501961" points="101,105 88,110 109,110" />
<polygon fill="#2d2f33" fill-opacity="0.501961" points="119,150 118,140 136,140" />
<polygon fill="#817870" fill-opacity="0.501961" points="108,91 101,93 116,94" />
<polygon fill="#2f3236" fill-opacity="0.501961" points="77,134 84,136 68,147" />
<polygon fill="#515356" fill-opacity="0.501961" points="164,118 160,123 152,122" />
<polygon fill="#5f656f" fill-opacity="0.501961" points="46,110 27,101 36,98" />
<polygon fill="#636366" fill-opacity="0.501961" points="44,93 50,90 42,82" />
<polygon fill="#8f7e75" fill-opacity="0.501961" points="146,98 137,92 167,91" />
<polygon fill="#bab895" fill-opacity="0.501961" points="66,79 62,81 64,88" />
<polygon fill="#7c7775" fill-opacity="0.501961" points="170,87 153,88 156,83" />
<polygon fill="#3e4146" fill-opacity="0.501961" points="47,138 58,136 57,140" />
</g>
</svg>