<svg xmlns="http://www.w3.org/2000/svg" version="1.1" width="1024" height="680">
<rect x="0" y="0" width="1024" height="680" fill="#484b4f" />
<g transform="scale(4.000000) translate(0.5 0.5)">
<polygon fill="#000000" fill-opacity="0.501961" points="250,185 -16,161 271,102" />
<polygon fill="#7f8186" fill-opacity="0.501961" points="-16,109 271,111 134,-16" />
<polygon fill="#010a0c" fill-opacity="0.501961" points="-16,113 6,185 195,112" />
<polygon fill="#a8927b" fill-opacity="0.501961" points="17,71 215,92 119,111" />
<polygon fill="#585d65" fill-opacity="0.501961" points="252,-16 -16,8 271,117" />
<polygon fill="#00070b" fill-opacity="0.501961" points="-11,139 8,185 169,160" />
<polygon fill="#5a5c5f" fill-opacity="0.501961" points="-16,108 269,-16 10,-16" />
<polygon fill="#34393a" fill-opacity="0.501961" points="94,152 50,113 213,110" />
<polygon fill="#00000c" fill-opacity="0.501961" points="264,108 262,167 192,185" />
<polygon fill="#505461" fill-opacity="0.501961" points="173,162 218,156 214,137" />
<polygon fill="#d7ad69" fill-opacity="0.501961" points="60,90 54,76 107,89" />
<polygon fill="#727e87" fill-opacity="0.501961" points="145,88 217,110 66,110" />
<polygon fill="#0e131f" fill-opacity="0.501961" points="-1,114 103,126 -14,146" />
<polygon fill="#3a3c3c" fill-opacity="0.501961" points="37,138 53,156 111,129" />
<polygon fill="#585e6a" fill-opacity="0.501961" points="271,93 223,16 -16,52" />
<polygon fill="#616c75" fill-opacity="0.501961" points="147,47 218,87 74,84" />
<polygon fill="#a18672" fill-opacity="0.501961" points="132,79 181,96 84,95" />
<polygon fill="#7d6e64" fill-opacity="0.501961" points="-8,70 53,75 67,100" />
<polygon fill="#2b3133" fill-opacity="0.501961" points="79,111 242,111 116,151" />
<polygon fill="#0a1416" fill-opacity="0.501961" points="17,139 173,156 -12,185" />
<polygon fill="#57595c" fill-opacity="0.501961" points="131,-16 -16,48 271,35" />
<polygon fill="#56595d" fill-opacity="0.501961" points="-15,110 6,35 39,110" />
<polygon fill="#53575a" fill-opacity="0.501961" points="100,137 84,130 61,136" />
<polygon fill="#4b4e55" fill-opacity="0.501961" points="210,154 193,130 222,145" />
<polygon fill="#121822" fill-opacity="0.501961" points="271,117 241,152 184,123" />
<polygon fill="#636f7a" fill-opacity="0.501961" points="158,100 68,96 110,112" />
<polygon fill="#5c595c" fill-opacity="0.501961" points="69,88 68,99 88,91" />
<polygon fill="#bfa97a" fill-opacity="0.501961" points="62,93 76,75 61,76" />
<polygon fill="#666c77" fill-opacity="0.501961" points="242,110 213,86 149,103" />
<polygon fill="#a27660" fill-opacity="0.501961" points="57,97 73,89 37,93" />
<polygon fill="#00060e" fill-opacity="0.501961" points="271,163 226,144 224,178" />
<polygon fill="#585c63" fill-opacity="0.501961" points="4,72 100,75 38,19" />
<polygon fill="#6a7479" fill-opacity="0.501961" points="112,85 177,87 130,71" />
<polygon fill="#1f1e2f" fill-opacity="0.501961" points="90,173 232,152 186,185" />
<polygon fill="#262d32" fill-opacity="0.501961" points="-2,111 78,111 64,130" />
<polygon fill="#232a27" fill-opacity="0.501961" points="134,126 132,156 30,149" />
<polygon fill="#666466" fill-opacity="0.501961" points="165,117 152,123 161,123" />
<polygon fill="#242d33" fill-opacity="0.501961" points="219,128 233,110 169,113" />
<polygon fill="#515659" fill-opacity="0.501961" points="190,160 177,155 203,154" />
<polygon fill="#080f16" fill-opacity="0.501961" points="138,185 153,147 2,168" />
<polygon fill="#726c68" fill-opacity="0.501961" points="61,83 13,70 13,83" />
<polygon fill="#91775e" fill-opacity="0.501961" points="82,84 81,76 57,75" />
<polygon fill="#748087" fill-opacity="0.501961" points="153,98 119,110 195,109" />
<polygon fill="#c5bb82" fill-opacity="0.501961" points="63,88 84,86 59,80" />
<polygon fill="#1a1e24" fill-opacity="0.501961" points="190,117 167,158 201,149" />
<polygon fill="#151928" fill-opacity="0.501961" points="91,122 66,130 119,129" />
<polygon fill="#070d19" fill-opacity="0.501961" points="43,130 -13,129 18,138" />
<polygon fill="#595a5e" fill-opacity="0.501961" points="54,88 -16,108 -5,75" />
<polygon fill="#6a7781" fill-opacity="0.501961" points="110,111 79,100 46,108" />
<polygon fill="#585a5e" fill-opacity="0.501961" points="243,2 271,127 176,22" />
<polygon fill="#00060c" fill-opacity="0.501961" points="50,185 8,148 -16,156" />
<polygon fill="#5b6063" fill-opacity="0.501961" points="205,142 205,150 220,152" />
<polygon fill="#be946f" fill-opacity="0.501961" points="98,91 119,87 95,85" />
<polygon fill="#2f2f39" fill-opacity="0.501961" points="192,171 202,157 168,160" />
<polygon fill="#21212a" fill-opacity="0.501961" points="214,147 204,134 251,139" />
<polygon fill="#3a3e3b" fill-opacity="0.501961" points="102,111 150,115 121,121" />
<polygon fill="#303f47" fill-opacity="0.501961" points="-3,108 8,114 27,109" />
<polygon fill="#595f6b" fill-opacity="0.501961" points="255,79 188,31 40,51" />
<polygon fill="#4f5757" fill-opacity="0.501961" points="-14,-16 61,-16 -7,65" />
<polygon fill="#a78868" fill-opacity="0.501961" points="62,74 59,80 46,78" />
<polygon fill="#6f7170" fill-opacity="0.501961" points="104,86 76,78 136,76" />
<polygon fill="#c19a60" fill-opacity="0.501961" points="92,87 63,89 73,83" />
<polygon fill="#484c4d" fill-opacity="0.501961" points="72,138 104,133 77,130" />
<polygon fill="#59626e" fill-opacity="0.501961" points="48,111 14,104 82,92" />
<polygon fill="#1a201e" fill-opacity="0.501961" points="64,140 -6,140 66,161" />
<polygon fill="#28272f" fill-opacity="0.501961" points="78,169 148,167 120,185" />
<polygon fill="#7e7472" fill-opacity="0.501961" points="194,97 225,93 177,86" />
<polygon fill="#1d2632" fill-opacity="0.501961" points="234,110 252,126 266,110" />
<polygon fill="#56595a" fill-opacity="0.501961" points="18,-3 247,-16 186,32" />
<polygon fill="#373b43" fill-opacity="0.501961" points="198,132 198,160 207,159" />
<polygon fill="#9b8675" fill-opacity="0.501961" points="114,87 180,89 146,98" />
<polygon fill="#575c68" fill-opacity="0.501961" points="271,108 212,96 230,111" />
<polygon fill="#6e6b69" fill-opacity="0.501961" points="86,74 118,85 73,83" />
<polygon fill="#030c12" fill-opacity="0.501961" points="120,165 47,169 93,150" />
<polygon fill="#2f3333" fill-opacity="0.501961" points="135,131 101,145 76,136" />
<polygon fill="#788388" fill-opacity="0.501961" points="112,103 138,110 90,110" />
<polygon fill="#3f4146" fill-opacity="0.501961" points="30,138 60,136 44,142" />
<polygon fill="#21272a" fill-opacity="0.501961" points="23,130 80,123 2,111" />
<polygon fill="#25272b" fill-opacity="0.501961" points="61,150 78,138 37,142" />
<polygon fill="#11141e" fill-opacity="0.501961" points="235,156 197,185 193,165" />
<polygon fill="#151920" fill-opacity="0.501961" points="167,156 103,152 161,172" />
<polygon fill="#6b6d6e" fill-opacity="0.501961" points="75,134 72,132 74,138" />
<polygon fill="#252934" fill-opacity="0.501961" points="197,150 217,164 221,155" />
<polygon fill="#5a646f" fill-opacity="0.501961" points="200,71 94,39 84,76" />
<polygon fill="#a0816e" fill-opacity="0.501961" points="110,88 86,97 140,95" />
<polygon fill="#86786a" fill-opacity="0.501961" points="43,81 24,77 58,75" />
<polygon fill="#303531" fill-opacity="0.501961" points="172,134 150,121 124,133" />
<polygon fill="#6d747a" fill-opacity="0.501961" points="161,111 122,96 188,100" />
<polygon fill="#151a21" fill-opacity="0.501961" points="268,105 223,135 222,158" />
<polygon fill="#595c63" fill-opacity="0.501961" points="84,22 4,70 67,75" />
<polygon fill="#827674" fill-opacity="0.501961" points="155,100 155,92 182,94" />
<polygon fill="#0c1221" fill-opacity="0.501961" points="47,128 36,136 71,133" />
<polygon fill="#0e1620" fill-opacity="0.501961" points="165,146 149,140 174,142" />
<polygon fill="#292c2b" fill-opacity="0.501961" points="174,164 150,136 123,130" />
<polygon fill="#585b63" fill-opacity="0.501961" points="184,20 254,70 97,26" />
<polygon fill="#bf8a67" fill-opacity="0.501961" points="48,92 57,92 58,95" />
<polygon fill="#bac4aa" fill-opacity="0.501961" points="68,83 63,88 63,82" />
<polygon fill="#383a42" fill-opacity="0.501961" points="214,148 221,142 204,135" />
<polygon fill="#66676a" fill-opacity="0.501961" points="56,91 103,101 78,103" />
<polygon fill="#4f5656" fill-opacity="0.501961" points="255,45 262,-5 197,-7" />
<polygon fill="#23292c" fill-opacity="0.501961" points="116,160 128,122 95,121" />
<polygon fill="#353938" fill-opacity="0.501961" points="123,111 77,117 109,122" />
<polygon fill="#7c8489" fill-opacity="0.501961" points="145,104 132,110 166,109" />
<polygon fill="#3b3234" fill-opacity="0.501961" points="130,140 147,141 130,147" />
<polygon fill="#323335" fill-opacity="0.501961" points="205,125 187,114 165,116" />
<polygon fill="#0a1415" fill-opacity="0.501961" points="10,185 29,141 55,157" />
<polygon fill="#0c1a19" fill-opacity="0.501961" points="52,155 86,146 123,159" />
<polygon fill="#97796a" fill-opacity="0.501961" points="118,97 92,90 90,98" />
<polygon fill="#6a7076" fill-opacity="0.501961" points="102,108 142,97 100,97" />
<polygon fill="#4c5053" fill-opacity="0.501961" points="98,131 84,136 72,131" />
<polygon fill="#101319" fill-opacity="0.501961" points="221,142 202,128 212,127" />
<polygon fill="#616063" fill-opacity="0.501961" points="55,82 30,94 43,79" />
<polygon fill="#55595a" fill-opacity="0.501961" points="21,-5 -4,76 90,-16" />
<polygon fill="#606670" fill-opacity="0.501961" points="87,101 35,108 48,95" />
<polygon fill="#4f5356" fill-opacity="0.501961" points="189,159 201,154 180,156" />
<polygon fill="#54585d" fill-opacity="0.501961" points="-16,105 35,111 0,93" />
<polygon fill="#727778" fill-opacity="0.501961" points="129,87 141,78 101,79" />
<polygon fill="#776e69" fill-opacity="0.501961" points="103,92 86,92 95,95" />
<polygon fill="#252b2f" fill-opacity="0.501961" points="197,123 176,141 160,139" />
<polygon fill="#b89770" fill-opacity="0.501961" points="71,79 80,76 71,76" />
<polygon fill="#121922" fill-opacity="0.501961" points="125,136 141,136 128,141" />
<polygon fill="#465157" fill-opacity="0.501961" points="11,16 -16,60 -1,-8" />
<polygon fill="#535a5d" fill-opacity="0.501961" points="206,142 214,148 198,145" />
<polygon fill="#1e2123" fill-opacity="0.501961" points="-7,137 32,139 15,148" />
<polygon fill="#383c3a" fill-opacity="0.501961" points="93,135 82,132 97,146" />
<polygon fill="#00000b" fill-opacity="0.501961" points="222,165 241,166 226,185" />
<polygon fill="#252c2d" fill-opacity="0.501961" points="95,125 32,128 62,117" />
<polygon fill="#1e242b" fill-opacity="0.501961" points="230,114 260,113 205,135" />
<polygon fill="#a47b5b" fill-opacity="0.501961" points="57,83 68,91 49,84" />
<polygon fill="#10171f" fill-opacity="0.501961" points="-13,146 -16,107 16,129" />
<polygon fill="#1b2320" fill-opacity="0.501961" points="132,156 127,147 105,155" />
<polygon fill="#5b636e" fill-opacity="0.501961" points="106,50 180,51 230,93" />
<polygon fill="#46484e" fill-opacity="0.501961" points="63,139 71,134 52,137" />
<polygon fill="#3d484e" fill-opacity="0.501961" points="26,113 48,112 39,108" />
<polygon fill="#25272c" fill-opacity="0.501961" points="73,148 49,140 70,138" />
<polygon fill="#383a37" fill-opacity="0.501961" points="117,113 133,122 158,117" />
<polygon fill="#090e15" fill-opacity="0.501961" points="271,157 236,143 224,154" />
<polygon fill="#171a29" fill-opacity="0.501961" points="92,131 101,124 108,130" />
<polygon fill="#5d5f63" fill-opacity="0.501961" points="57,92 55,87 40,91" />
<polygon fill="#151a27" fill-opacity="0.501961" points="75,124 60,135 78,130" />
<polygon fill="#16171d" fill-opacity="0.501961" points="183,155 196,146 178,149" />
<polygon fill="#2f3134" fill-opacity="0.501961" points="121,150 116,140 131,141" />
<polygon fill="#676f79" fill-opacity="0.501961" points="217,110 165,102 201,94" />
<polygon fill="#8f7267" fill-opacity="0.501961" points="32,93 42,96 48,92" />
<polygon fill="#595e69" fill-opacity="0.501961" points="60,44 77,75 138,34" />
<polygon fill="#67727a" fill-opacity="0.501961" points="87,111 91,100 62,109" />
<polygon fill="#020811" fill-opacity="0.501961" points="102,163 117,174 87,180" />
<polygon fill="#6b6766" fill-opacity="0.501961" points="9,69 8,79 41,86" />
<polygon fill="#a88b73" fill-opacity="0.501961" points="177,89 162,90 172,92" />
<polygon fill="#1b1a2a" fill-opacity="0.501961" points="176,157 162,157 148,179" />
<polygon fill="#525558" fill-opacity="0.501961" points="39,138 44,140 44,138" />
<polygon fill="#5d5f68" fill-opacity="0.501961" points="9,107 27,93 68,98" />
<polygon fill="#6f7174" fill-opacity="0.501961" points="150,84 183,89 176,81" />
<polygon fill="#2d2e39" fill-opacity="0.501961" points="171,165 178,157 196,160" />
<polygon fill="#7a7267" fill-opacity="0.501961" points="92,76 84,82 67,79" />
<polygon fill="#252928" fill-opacity="0.501961" points="36,129 34,139 21,143" />
<polygon fill="#606a74" fill-opacity="0.501961" points="198,88 110,74 152,67" />
<polygon fill="#928377" fill-opacity="0.501961" points="118,87 162,85 155,98" />
<polygon fill="#393d42" fill-opacity="0.501961" points="200,133 202,146 208,135" />
<polygon fill="#292a2e" fill-opacity="0.501961" points="162,120 198,117 175,127" />
<polygon fill="#454f55" fill-opacity="0.501961" points="63,109 50,113 47,109" />
<polygon fill="#2b3227" fill-opacity="0.501961" points="178,151 162,149 151,155" />
<polygon fill="#13171e" fill-opacity="0.501961" points="203,131 220,135 210,138" />
<polygon fill="#636264" fill-opacity="0.501961" points="75,94 77,89 88,93" />
<polygon fill="#111820" fill-opacity="0.501961" points="271,123 265,151 224,130" />
<polygon fill="#30313b" fill-opacity="0.501961" points="192,153 206,154 199,144" />
<polygon fill="#b99764" fill-opacity="0.501961" points="74,83 69,82 70,88" />
<polygon fill="#292924" fill-opacity="0.501961" points="185,128 207,118 211,125" />
<polygon fill="#22251c" fill-opacity="0.501961" points="78,143 86,147 97,141" />
<polygon fill="#181e25" fill-opacity="0.501961" points="12,114 28,114 8,138" />
<polygon fill="#1a2016" fill-opacity="0.501961" points="70,162 60,161 69,158" />
<polygon fill="#bbbc9b" fill-opacity="0.501961" points="64,86 61,79 69,82" />
<polygon fill="#a78767" fill-opacity="0.501961" points="53,80 50,76 64,78" />
<polygon fill="#555753" fill-opacity="0.501961" points="155,123 163,124 160,122" />
<polygon fill="#0d0f19" fill-opacity="0.501961" points="163,162 140,166 140,153" />
<polygon fill="#292d2d" fill-opacity="0.501961" points="70,136 74,145 58,148" />
<polygon fill="#585a5c" fill-opacity="0.501961" points="106,6 18,-13 74,37" />
<polygon fill="#777470" fill-opacity="0.501961" points="108,95 112,92 105,93" />
<polygon fill="#ac8d73" fill-opacity="0.501961" points="116,94 124,92 109,91" />
<polygon fill="#263f51" fill-opacity="0.501961" points="183,115 195,113 189,112" />
<polygon fill="#ad866f" fill-opacity="0.501961" points="108,95 107,98 98,96" />
<polygon fill="#bf946f" fill-opacity="0.501961" points="112,86 95,91 81,86" />
<polygon fill="#02060e" fill-opacity="0.501961" points="72,158 83,173 84,156" />
<polygon fill="#31373f" fill-opacity="0.501961" points="61,112 70,117 79,113" />
<polygon fill="#c08d62" fill-opacity="0.501961" points="86,95 79,94 79,96" />
<polygon fill="#151820" fill-opacity="0.501961" points="74,167 90,185 94,165" />
<polygon fill="#54585a" fill-opacity="0.501961" points="199,8 229,-16 271,74" />
<polygon fill="#575a5f" fill-opacity="0.501961" points="13,40 -1,78 76,26" />
<polygon fill="#3e3f41" fill-opacity="0.501961" points="177,118 185,115 168,115" />
<polygon fill="#58595e" fill-opacity="0.501961" points="238,77 255,108 271,48" />
<polygon fill="#0e191d" fill-opacity="0.501961" points="240,162 234,157 219,160" />
<polygon fill="#595c66" fill-opacity="0.501961" points="204,45 244,109 247,66" />
<polygon fill="#050b0f" fill-opacity="0.501961" points="-16,165 15,166 23,147" />
<polygon fill="#2b3031" fill-opacity="0.501961" points="113,137 159,128 112,118" />
<polygon fill="#1a1f28" fill-opacity="0.501961" points="215,122 264,117 247,128" />
<polygon fill="#2b3131" fill-opacity="0.501961" points="192,139 210,139 203,142" />
<polygon fill="#26232d" fill-opacity="0.501961" points="170,165 176,175 206,163" />
<polygon fill="#11111f" fill-opacity="0.501961" points="209,160 202,170 231,172" />
<polygon fill="#806a5f" fill-opacity="0.501961" points="65,94 58,92 74,90" />
<polygon fill="#646466" fill-opacity="0.501961" points="70,90 92,92 64,97" />
<polygon fill="#332f3a" fill-opacity="0.501961" points="161,170 131,168 146,175" />
<polygon fill="#85786a" fill-opacity="0.501961" points="31,80 25,78 41,74" />
<polygon fill="#595e5e" fill-opacity="0.501961" points="83,133 86,131 79,131" />
<polygon fill="#626a74" fill-opacity="0.501961" points="53,109 29,106 65,100" />
<polygon fill="#5b5e63" fill-opacity="0.501961" points="57,88 20,85 20,95" />
<polygon fill="#6c7275" fill-opacity="0.501961" points="122,76 168,83 143,86" />
<polygon fill="#1e1c22" fill-opacity="0.501961" points="246,137 222,141 253,145" />
<polygon fill="#5f6673" fill-opacity="0.501961" points="233,107 211,94 209,111" />
<polygon fill="#0e1420" fill-opacity="0.501961" points="30,132 41,129 55,136" />
<polygon fill="#737e83" fill-opacity="0.501961" points="154,107 171,105 168,111" />
<polygon fill="#272c2f" fill-opacity="0.501961" points="199,112 213,112 191,127" />
<polygon fill="#292a2f" fill-opacity="0.501961" points="167,145 142,141 155,149" />
<polygon fill="#575a5d" fill-opacity="0.501961" points="216,153 205,144 210,153" />
<polygon fill="#bb9072" fill-opacity="0.501961" points="125,92 122,94 115,92" />
<polygon fill="#857a75" fill-opacity="0.501961" points="177,97 186,89 205,91" />
<polygon fill="#475157" fill-opacity="0.501961" points="271,10 262,46 241,-16" />
<polygon fill="#10111b" fill-opacity="0.501961" points="188,123 192,121 192,124" />
<polygon fill="#1f2d1f" fill-opacity="0.501961" points="111,152 86,149 101,146" />
<polygon fill="#393741" fill-opacity="0.501961" points="214,139 217,150 220,143" />
<polygon fill="#060c1c" fill-opacity="0.501961" points="18,142 22,140 24,143" />
<polygon fill="#242b2e" fill-opacity="0.501961" points="94,120 100,129 120,122" />
<polygon fill="#01080f" fill-opacity="0.501961" points="67,174 37,169 67,163" />
<polygon fill="#15151e" fill-opacity="0.501961" points="136,150 155,160 146,145" />
<polygon fill="#2c2c38" fill-opacity="0.501961" points="164,160 177,165 175,160" />
<polygon fill="#090d19" fill-opacity="0.501961" points="206,133 199,130 213,128" />
<polygon fill="#988066" fill-opacity="0.501961" points="74,76 73,84 79,82" />
<polygon fill="#8b8176" fill-opacity="0.501961" points="123,87 125,92 109,92" />
<polygon fill="#414443" fill-opacity="0.501961" points="96,133 100,137 101,131" />
<polygon fill="#4b5050" fill-opacity="0.501961" points="92,136 84,132 90,131" />
<polygon fill="#111919" fill-opacity="0.501961" points="41,173 32,156 30,166" />
<polygon fill="#030812" fill-opacity="0.501961" points="133,161 115,165 135,166" />
<polygon fill="#6e787f" fill-opacity="0.501961" points="129,97 97,106 163,107" />
<polygon fill="#1e252a" fill-opacity="0.501961" points="150,135 171,134 148,142" />
<polygon fill="#232625" fill-opacity="0.501961" points="10,133 8,140 -8,146" />
<polygon fill="#6a686b" fill-opacity="0.501961" points="217,90 232,93 204,98" />
<polygon fill="#a68a74" fill-opacity="0.501961" points="122,95 141,95 130,91" />
<polygon fill="#00010b" fill-opacity="0.501961" points="262,163 269,185 249,158" />
<polygon fill="#1c241e" fill-opacity="0.501961" points="46,141 62,150 37,151" />
<polygon fill="#707475" fill-opacity="0.501961" points="111,86 136,80 95,76" />
<polygon fill="#636a6f" fill-opacity="0.501961" points="115,73 85,81 90,72" />
<polygon fill="#303538" fill-opacity="0.501961" points="117,111 91,114 114,120" />
<polygon fill="#b78f61" fill-opacity="0.501961" points="56,84 72,90 60,90" />
<polygon fill="#937466" fill-opacity="0.501961" points="41,93 35,93 37,96" />
<polygon fill="#151a23" fill-opacity="0.501961" points="197,142 182,144 199,147" />
<polygon fill="#6b6765" fill-opacity="0.501961" points="36,88 37,77 57,82" />
<polygon fill="#2b2f32" fill-opacity="0.501961" points="212,115 185,114 168,126" />
<polygon fill="#2f2b2e" fill-opacity="0.501961" points="199,134 182,124 193,127" />
<polygon fill="#585d64" fill-opacity="0.501961" points="203,148 211,147 208,142" />
<polygon fill="#82695f" fill-opacity="0.501961" points="56,89 66,92 57,86" />
<polygon fill="#262c35" fill-opacity="0.501961" points="249,111 225,119 221,111" />
</g>
</svg>