<svg xmlns="http://www.w3.org/2000/svg" version="1.1" width="1024" height="680">
<rect x="0" y="0" width="1024" height="680" fill="#484b4f" />
<g transform="scale(4.000000) translate(0.5 0.5)">
<polygon fill="#000000" fill-opacity="0.501961" points="-16,160 271,102 250,185" />
<polygon fill="#7f8186" fill-opacity="0.501961" points="271,111 144,-16 -16,108" />
<polygon fill="#010a0d" fill-opacity="0.501961" points="-16,112 6,185 194,113" />
<polygon fill="#a7917a" fill-opacity="0.501961" points="215,91 11,71 115,111" />
<polygon fill="#5a5d62" fill-opacity="0.501961" points="7,-16 271,8 -9,99" />
<polygon fill="#00070a" fill-opacity="0.501961" points="10,185 173,159 -16,139" />
<polygon fill="#575c63" fill-opacity="0.501961" points="260,111 -16,9 254,-16" />
<polygon fill="#323637" fill-opacity="0.501961" points="148,110 230,147 21,150" />
<polygon fill="#00000d" fill-opacity="0.501961" points="254,118 191,185 271,185" />
<polygon fill="#e0bb71" fill-opacity="0.501961" points="47,74 66,89 93,88" />
<polygon fill="#505461" fill-opacity="0.501961" points="218,157 175,160 214,138" />
<polygon fill="#6a7c89" fill-opacity="0.501961" points="63,110 126,93 179,111" />
<polygon fill="#0d121c" fill-opacity="0.501961" points="-13,148 -16,106 70,131" />
<polygon fill="#595f6b" fill-opacity="0.501961" points="-16,47 271,99 237,23" />
<polygon fill="#2f3436" fill-opacity="0.501961" points="95,147 43,111 226,111" />
<polygon fill="#b58c6d" fill-opacity="0.501961" points="146,92 101,98 78,83" />
<polygon fill="#616c76" fill-opacity="0.501961" points="79,83 128,48 214,89" />
<polygon fill="#595b5e" fill-opacity="0.501961" points="-15,122 16,18 197,-16" />
<polygon fill="#727a84" fill-opacity="0.501961" points="196,88 217,110 117,109" />
<polygon fill="#827165" fill-opacity="0.501961" points="61,98 57,76 0,72" />
<polygon fill="#161b20" fill-opacity="0.501961" points="104,159 190,125 202,152" />
<polygon fill="#081115" fill-opacity="0.501961" points="-16,179 14,139 156,165" />
<polygon fill="#585a5c" fill-opacity="0.501961" points="82,129 64,137 100,134" />
<polygon fill="#57595a" fill-opacity="0.501961" points="271,73 -12,-10 234,-16" />
<polygon fill="#bfa373" fill-opacity="0.501961" points="78,75 54,76 61,91" />
<polygon fill="#19212a" fill-opacity="0.501961" points="229,150 176,110 271,110" />
<polygon fill="#63656d" fill-opacity="0.501961" points="122,105 80,89 29,103" />
<polygon fill="#101423" fill-opacity="0.501961" points="58,130 90,122 116,131" />
<polygon fill="#18211e" fill-opacity="0.501961" points="119,149 -16,135 49,161" />
<polygon fill="#968275" fill-opacity="0.501961" points="166,98 79,96 143,80" />
<polygon fill="#00050d" fill-opacity="0.501961" points="228,146 219,185 271,162" />
<polygon fill="#54595d" fill-opacity="0.501961" points="197,131 217,153 205,153" />
<polygon fill="#a87b62" fill-opacity="0.501961" points="54,98 64,92 38,92" />
<polygon fill="#55585f" fill-opacity="0.501961" points="54,80 -16,103 25,111" />
<polygon fill="#232234" fill-opacity="0.501961" points="161,163 230,152 187,184" />
<polygon fill="#3f3e44" fill-opacity="0.501961" points="43,145 36,138 70,134" />
<polygon fill="#13171f" fill-opacity="0.501961" points="231,148 193,127 271,123" />
<polygon fill="#040c11" fill-opacity="0.501961" points="115,161 18,177 -16,147" />
<polygon fill="#5c5c5d" fill-opacity="0.501961" points="151,122 162,119 162,124" />
<polygon fill="#585b64" fill-opacity="0.501961" points="231,111 199,16 271,109" />
<polygon fill="#2c3235" fill-opacity="0.501961" points="153,111 204,126 251,111" />
<polygon fill="#59606b" fill-opacity="0.501961" points="209,61 82,37 -16,78" />
<polygon fill="#6c737a" fill-opacity="0.501961" points="154,110 188,96 105,98" />
<polygon fill="#4e5256" fill-opacity="0.501961" points="179,156 191,160 203,151" />
<polygon fill="#1e2323" fill-opacity="0.501961" points="68,138 63,164 38,142" />
<polygon fill="#6d7375" fill-opacity="0.501961" points="133,71 186,87 79,84" />
<polygon fill="#bfd0b1" fill-opacity="0.501961" points="67,88 67,81 62,80" />
<polygon fill="#9a8476" fill-opacity="0.501961" points="124,97 156,85 189,93" />
<polygon fill="#626a75" fill-opacity="0.501961" points="228,111 178,111 226,85" />
<polygon fill="#21272b" fill-opacity="0.501961" points="23,130 83,123 -16,107" />
<polygon fill="#6a757f" fill-opacity="0.501961" points="43,109 119,110 84,97" />
<polygon fill="#5c636b" fill-opacity="0.501961" points="29,111 32,94 90,98" />
<polygon fill="#7f7469" fill-opacity="0.501961" points="63,83 18,78 40,71" />
<polygon fill="#575a5c" fill-opacity="0.501961" points="58,137 73,138 85,131" />
<polygon fill="#11131f" fill-opacity="0.501961" points="153,174 169,157 124,146" />
<polygon fill="#bc976f" fill-opacity="0.501961" points="104,92 81,85 119,85" />
<polygon fill="#2a2c30" fill-opacity="0.501961" points="161,161 204,167 142,137" />
<polygon fill="#080d1a" fill-opacity="0.501961" points="11,138 -16,126 42,132" />
<polygon fill="#3b3f3b" fill-opacity="0.501961" points="130,111 103,117 149,120" />
<polygon fill="#363641" fill-opacity="0.501961" points="221,153 220,141 200,135" />
<polygon fill="#797070" fill-opacity="0.501961" points="183,86 226,93 178,99" />
<polygon fill="#262b2c" fill-opacity="0.501961" points="191,129 113,155 106,120" />
<polygon fill="#786d60" fill-opacity="0.501961" points="94,84 79,73 74,83" />
<polygon fill="#32343e" fill-opacity="0.501961" points="207,154 192,154 201,139" />
<polygon fill="#5c5d5f" fill-opacity="0.501961" points="-12,71 -1,99 60,88" />
<polygon fill="#4f5656" fill-opacity="0.501961" points="-6,60 46,10 -16,-15" />
<polygon fill="#10141d" fill-opacity="0.501961" points="199,162 238,158 177,185" />
<polygon fill="#5a6570" fill-opacity="0.501961" points="161,47 75,74 212,80" />
<polygon fill="#8f7368" fill-opacity="0.501961" points="32,93 44,91 41,96" />
<polygon fill="#5e5c5d" fill-opacity="0.501961" points="70,98 87,90 66,90" />
<polygon fill="#747f84" fill-opacity="0.501961" points="203,110 119,109 161,97" />
<polygon fill="#353b3c" fill-opacity="0.501961" points="61,110 88,122 122,113" />
<polygon fill="#2b2d2f" fill-opacity="0.501961" points="76,147 55,146 70,135" />
<polygon fill="#727677" fill-opacity="0.501961" points="119,75 156,86 102,85" />
<polygon fill="#323733" fill-opacity="0.501961" points="123,134 166,132 154,121" />
<polygon fill="#363a38" fill-opacity="0.501961" points="89,142 75,134 102,134" />
<polygon fill="#0a1517" fill-opacity="0.501961" points="24,160 91,146 37,180" />
<polygon fill="#997b6a" fill-opacity="0.501961" points="104,88 116,96 80,97" />
<polygon fill="#384852" fill-opacity="0.501961" points="14,108 -8,108 6,112" />
<polygon fill="#585b62" fill-opacity="0.501961" points="-1,71 86,74 51,25" />
<polygon fill="#585c67" fill-opacity="0.501961" points="250,78 101,23 198,31" />
<polygon fill="#232b37" fill-opacity="0.501961" points="37,111 21,117 0,111" />
<polygon fill="#191b23" fill-opacity="0.501961" points="177,142 156,171 196,141" />
<polygon fill="#b3895d" fill-opacity="0.501961" points="74,82 55,95 78,88" />
<polygon fill="#a78565" fill-opacity="0.501961" points="68,76 46,77 53,81" />
<polygon fill="#626164" fill-opacity="0.501961" points="37,85 43,80 56,82" />
<polygon fill="#6c767c" fill-opacity="0.501961" points="90,110 166,103 120,95" />
<polygon fill="#4f5657" fill-opacity="0.501961" points="271,-6 202,4 271,54" />
<polygon fill="#c1a166" fill-opacity="0.501961" points="91,91 70,85 87,84" />
<polygon fill="#a08162" fill-opacity="0.501961" points="71,83 79,77 66,76" />
<polygon fill="#928176" fill-opacity="0.501961" points="124,84 197,91 154,99" />
<polygon fill="#30313c" fill-opacity="0.501961" points="176,160 184,168 209,156" />
<polygon fill="#58595d" fill-opacity="0.501961" points="236,86 262,117 271,22" />
<polygon fill="#181d24" fill-opacity="0.501961" points="186,123 251,146 256,116" />
<polygon fill="#373732" fill-opacity="0.501961" points="30,136 21,141 36,138" />
<polygon fill="#555a5d" fill-opacity="0.501961" points="215,153 211,144 197,144" />
<polygon fill="#34383d" fill-opacity="0.501961" points="182,120 161,117 201,112" />
<polygon fill="#201d2b" fill-opacity="0.501961" points="70,170 139,185 168,165" />
<polygon fill="#0a1016" fill-opacity="0.501961" points="224,144 267,152 228,163" />
<polygon fill="#131a20" fill-opacity="0.501961" points="121,139 139,140 132,135" />
<polygon fill="#57595b" fill-opacity="0.501961" points="37,1 195,-16 256,45" />
<polygon fill="#6e7070" fill-opacity="0.501961" points="99,86 135,76 82,76" />
<polygon fill="#494b4d" fill-opacity="0.501961" points="38,137 38,142 52,137" />
<polygon fill="#373b41" fill-opacity="0.501961" points="198,134 198,161 206,134" />
<polygon fill="#232731" fill-opacity="0.501961" points="219,164 219,154 202,152" />
<polygon fill="#0c1314" fill-opacity="0.501961" points="18,152 55,185 31,140" />
<polygon fill="#a27f69" fill-opacity="0.501961" points="98,92 80,95 107,98" />
<polygon fill="#131c1c" fill-opacity="0.501961" points="148,148 124,160 100,152" />
<polygon fill="#696d75" fill-opacity="0.501961" points="146,98 178,99 162,104" />
<polygon fill="#9c8977" fill-opacity="0.501961" points="154,89 115,86 122,96" />
<polygon fill="#0d1221" fill-opacity="0.501961" points="53,136 36,129 68,132" />
<polygon fill="#020b14" fill-opacity="0.501961" points="126,164 71,155 102,170" />
<polygon fill="#7b6560" fill-opacity="0.501961" points="73,91 61,95 57,90" />
<polygon fill="#232425" fill-opacity="0.501961" points="-3,142 13,144 10,132" />
<polygon fill="#7d7069" fill-opacity="0.501961" points="99,96 98,90 81,90" />
<polygon fill="#2d2d29" fill-opacity="0.501961" points="199,119 211,124 186,128" />
<polygon fill="#55595d" fill-opacity="0.501961" points="207,143 210,150 220,152" />
<polygon fill="#5c616d" fill-opacity="0.501961" points="218,110 254,108 224,88" />
<polygon fill="#505153" fill-opacity="0.501961" points="84,133 95,131 83,130" />
<polygon fill="#c2bb87" fill-opacity="0.501961" points="59,87 68,88 68,82" />
<polygon fill="#191e2a" fill-opacity="0.501961" points="76,130 100,122 117,130" />
<polygon fill="#6e6966" fill-opacity="0.501961" points="20,82 9,72 30,71" />
<polygon fill="#0c141d" fill-opacity="0.501961" points="250,135 271,124 222,131" />
<polygon fill="#4b5056" fill-opacity="0.501961" points="191,158 179,154 178,158" />
<polygon fill="#252e20" fill-opacity="0.501961" points="79,140 105,145 108,155" />
<polygon fill="#778187" fill-opacity="0.501961" points="136,110 115,103 95,109" />
<polygon fill="#060916" fill-opacity="0.501961" points="209,132 211,128 196,130" />
<polygon fill="#c2956b" fill-opacity="0.501961" points="98,91 80,88 99,86" />
<polygon fill="#b78155" fill-opacity="0.501961" points="55,86 66,90 58,84" />
<polygon fill="#465157" fill-opacity="0.501961" points="-16,62 -2,-16 10,17" />
<polygon fill="#7d8488" fill-opacity="0.501961" points="142,104 128,110 162,110" />
<polygon fill="#202424" fill-opacity="0.501961" points="55,140 35,142 75,152" />
<polygon fill="#0d111a" fill-opacity="0.501961" points="165,159 133,150 136,168" />
<polygon fill="#585b62" fill-opacity="0.501961" points="215,43 56,43 90,9" />
<polygon fill="#272c25" fill-opacity="0.501961" points="155,144 182,154 153,155" />
<polygon fill="#292d32" fill-opacity="0.501961" points="47,123 61,128 35,127" />
<polygon fill="#010811" fill-opacity="0.501961" points="11,178 90,155 54,185" />
<polygon fill="#65696e" fill-opacity="0.501961" points="72,96 102,106 90,97" />
<polygon fill="#0c151c" fill-opacity="0.501961" points="169,142 156,143 154,139" />
<polygon fill="#252b2e" fill-opacity="0.501961" points="180,119 184,141 139,139" />
<polygon fill="#5a5e63" fill-opacity="0.501961" points="16,82 54,90 21,94" />
<polygon fill="#352d2f" fill-opacity="0.501961" points="130,138 130,149 147,143" />
<polygon fill="#292c33" fill-opacity="0.501961" points="212,147 210,137 216,145" />
<polygon fill="#20252c" fill-opacity="0.501961" points="261,111 211,117 213,133" />
<polygon fill="#0f1d1c" fill-opacity="0.501961" points="65,153 77,145 103,152" />
<polygon fill="#ad8064" fill-opacity="0.501961" points="46,93 54,91 61,95" />
<polygon fill="#36373f" fill-opacity="0.501961" points="214,140 201,142 196,131" />
<polygon fill="#000007" fill-opacity="0.501961" points="252,185 239,164 227,168" />
<polygon fill="#a88a73" fill-opacity="0.501961" points="166,92 156,89 174,88" />
<polygon fill="#374447" fill-opacity="0.501961" points="112,110 132,110 127,115" />
<polygon fill="#5a616d" fill-opacity="0.501961" points="162,46 78,75 85,46" />
<polygon fill="#57595a" fill-opacity="0.501961" points="11,107 8,34 -16,109" />
<polygon fill="#3f434a" fill-opacity="0.501961" points="208,157 195,154 206,160" />
<polygon fill="#252d2d" fill-opacity="0.501961" points="83,122 125,120 100,128" />
<polygon fill="#697071" fill-opacity="0.501961" points="107,92 104,94 110,93" />
<polygon fill="#384249" fill-opacity="0.501961" points="31,109 30,114 43,112" />
<polygon fill="#545656" fill-opacity="0.501961" points="160,119 160,124 154,124" />
<polygon fill="#686566" fill-opacity="0.501961" points="28,85 64,94 37,78" />
<polygon fill="#151a22" fill-opacity="0.501961" points="-7,146 26,114 -1,116" />
<polygon fill="#706e6b" fill-opacity="0.501961" points="110,74 70,80 98,85" />
<polygon fill="#817674" fill-opacity="0.501961" points="170,99 186,92 151,96" />
<polygon fill="#565a5a" fill-opacity="0.501961" points="198,155 192,158 181,155" />
<polygon fill="#1d242a" fill-opacity="0.501961" points="57,132 31,119 84,124" />
<polygon fill="#2f3432" fill-opacity="0.501961" points="145,134 127,119 175,132" />
<polygon fill="#606465" fill-opacity="0.501961" points="72,132 74,133 77,132" />
<polygon fill="#171a24" fill-opacity="0.501961" points="93,166 125,183 59,170" />
<polygon fill="#191b23" fill-opacity="0.501961" points="163,143 191,152 199,141" />
<polygon fill="#666464" fill-opacity="0.501961" points="75,89 66,93 90,94" />
<polygon fill="#11141b" fill-opacity="0.501961" points="145,143 157,163 142,165" />
<polygon fill="#c0906f" fill-opacity="0.501961" points="115,92 121,94 128,92" />
<polygon fill="#7c736b" fill-opacity="0.501961" points="25,74 56,75 37,82" />
<polygon fill="#646565" fill-opacity="0.501961" points="75,134 69,138 75,137" />
<polygon fill="#565959" fill-opacity="0.501961" points="109,28 11,-8 37,26" />
<polygon fill="#3b3e3f" fill-opacity="0.501961" points="76,136 86,139 101,132" />
<polygon fill="#282c2d" fill-opacity="0.501961" points="70,135 66,147 76,144" />
<polygon fill="#202429" fill-opacity="0.501961" points="34,113 27,122 -1,118" />
<polygon fill="#1c2219" fill-opacity="0.501961" points="63,157 70,161 61,162" />
<polygon fill="#02080e" fill-opacity="0.501961" points="15,168 -16,152 25,155" />
<polygon fill="#161720" fill-opacity="0.501961" points="229,145 226,158 218,150" />
<polygon fill="#424f51" fill-opacity="0.501961" points="28,113 16,108 37,109" />
<polygon fill="#292b2e" fill-opacity="0.501961" points="163,120 195,116 171,130" />
<polygon fill="#6e7274" fill-opacity="0.501961" points="119,97 144,96 133,101" />
<polygon fill="#525457" fill-opacity="0.501961" points="83,138 80,134 83,130" />
<polygon fill="#0e1120" fill-opacity="0.501961" points="48,131 34,136 63,134" />
<polygon fill="#333734" fill-opacity="0.501961" points="120,112 90,119 149,122" />
<polygon fill="#264155" fill-opacity="0.501961" points="195,114 186,114 192,111" />
<polygon fill="#2a2a39" fill-opacity="0.501961" points="164,161 185,157 175,164" />
<polygon fill="#23242b" fill-opacity="0.501961" points="162,170 114,166 100,185" />
<polygon fill="#475156" fill-opacity="0.501961" points="271,51 251,-16 246,11" />
<polygon fill="#3a3c3b" fill-opacity="0.501961" points="148,119 157,116 137,114" />
<polygon fill="#1b1e20" fill-opacity="0.501961" points="12,150 9,139 26,143" />
<polygon fill="#2f2f2b" fill-opacity="0.501961" points="88,135 73,142 86,140" />
<polygon fill="#908276" fill-opacity="0.501961" points="129,86 107,91 148,93" />
<polygon fill="#646e76" fill-opacity="0.501961" points="148,84 172,74 118,75" />
<polygon fill="#1a1f24" fill-opacity="0.501961" points="201,142 180,137 189,129" />
<polygon fill="#727778" fill-opacity="0.501961" points="127,87 152,80 99,77" />
<polygon fill="#303133" fill-opacity="0.501961" points="39,141 30,133 32,138" />
<polygon fill="#131826" fill-opacity="0.501961" points="87,130 94,125 74,128" />
<polygon fill="#0d1219" fill-opacity="0.501961" points="176,156 169,153 176,159" />
<polygon fill="#5a5f66" fill-opacity="0.501961" points="204,143 206,149 210,143" />
<polygon fill="#444546" fill-opacity="0.501961" points="154,117 159,121 167,117" />
<polygon fill="#626b77" fill-opacity="0.501961" points="56,102 35,106 69,110" />
<polygon fill="#061219" fill-opacity="0.501961" points="102,153 80,174 87,152" />
<polygon fill="#11121e" fill-opacity="0.501961" points="185,124 190,126 191,121" />
<polygon fill="#6b757c" fill-opacity="0.501961" points="104,98 83,109 127,105" />
<polygon fill="#767676" fill-opacity="0.501961" points="156,81 140,86 175,88" />
<polygon fill="#2c312f" fill-opacity="0.501961" points="133,137 142,117 159,117" />
<polygon fill="#25222c" fill-opacity="0.501961" points="193,185 201,159 140,185" />
<polygon fill="#2c3131" fill-opacity="0.501961" points="160,124 139,122 115,136" />
<polygon fill="#5d646e" fill-opacity="0.501961" points="157,55 196,90 229,90" />
<polygon fill="#363436" fill-opacity="0.501961" points="140,139 130,143 150,142" />
<polygon fill="#1f2026" fill-opacity="0.501961" points="246,142 218,131 220,142" />
<polygon fill="#636161" fill-opacity="0.501961" points="-13,70 11,71 28,86" />
<polygon fill="#babda4" fill-opacity="0.501961" points="66,81 62,83 64,87" />
<polygon fill="#0c131d" fill-opacity="0.501961" points="-1,129 23,138 38,129" />
<polygon fill="#6e6865" fill-opacity="0.501961" points="37,76 60,83 35,83" />
<polygon fill="#5b616c" fill-opacity="0.501961" points="14,103 62,96 38,111" />
<polygon fill="#636b73" fill-opacity="0.501961" points="200,90 143,80 176,76" />
<polygon fill="#2f2f3b" fill-opacity="0.501961" points="189,153 196,147 206,154" />
<polygon fill="#212022" fill-opacity="0.501961" points="114,157 126,147 144,145" />
<polygon fill="#3c3b44" fill-opacity="0.501961" points="214,145 212,140 221,143" />
<polygon fill="#595e69" fill-opacity="0.501961" points="181,33 131,38 227,73" />
<polygon fill="#927a63" fill-opacity="0.501961" points="77,78 79,83 66,78" />
<polygon fill="#737d83" fill-opacity="0.501961" points="131,111 111,109 136,102" />
<polygon fill="#151c22" fill-opacity="0.501961" points="234,137 205,138 230,126" />
<polygon fill="#1f1e2b" fill-opacity="0.501961" points="165,161 186,174 150,166" />
<polygon fill="#676e76" fill-opacity="0.501961" points="194,108 169,101 206,93" />
<polygon fill="#a68873" fill-opacity="0.501961" points="130,96 123,91 141,94" />
<polygon fill="#bc9672" fill-opacity="0.501961" points="97,86 103,91 111,86" />
<polygon fill="#b1896b" fill-opacity="0.501961" points="82,94 92,94 93,97" />
<polygon fill="#86786e" fill-opacity="0.501961" points="105,90 106,94 96,93" />
<polygon fill="#2e302c" fill-opacity="0.501961" points="108,147 93,135 96,146" />
<polygon fill="#272e29" fill-opacity="0.501961" points="61,126 83,118 48,118" />
<polygon fill="#55595c" fill-opacity="0.501961" points="59,-15 -6,59 20,72" />
<polygon fill="#494c50" fill-opacity="0.501961" points="73,134 64,138 56,136" />
<polygon fill="#595b63" fill-opacity="0.501961" points="60,37 51,75 11,67" />
<polygon fill="#595b64" fill-opacity="0.501961" points="247,65 248,109 222,46" />
<polygon fill="#5a5f6b" fill-opacity="0.501961" points="230,93 221,63 165,46" />
<polygon fill="#060b14" fill-opacity="0.501961" points="230,169 209,164 227,162" />
<polygon fill="#0e1717" fill-opacity="0.501961" points="29,164 36,145 37,171" />
<polygon fill="#0d181b" fill-opacity="0.501961" points="238,160 216,161 231,154" />
<polygon fill="#27242e" fill-opacity="0.501961" points="93,167 84,170 111,184" />
<polygon fill="#2a2f28" fill-opacity="0.501961" points="154,154 160,148 179,150" />
<polygon fill="#6a6869" fill-opacity="0.501961" points="224,96 237,93 212,90" />
<polygon fill="#be9a67" fill-opacity="0.501961" points="53,79 59,82 59,79" />
<polygon fill="#181e23" fill-opacity="0.501961" points="194,143 187,147 200,147" />
<polygon fill="#00020c" fill-opacity="0.501961" points="271,185 248,158 271,165" />
<polygon fill="#aa8766" fill-opacity="0.501961" points="60,75 67,79 55,77" />
<polygon fill="#2d3134" fill-opacity="0.501961" points="202,119 191,113 170,123" />
<polygon fill="#0f1918" fill-opacity="0.501961" points="86,142 77,148 85,155" />
</g>
</svg>