<svg xmlns="http://www.w3.org/2000/svg" version="1.1" width="1024" height="680">
<rect x="0" y="0" width="1024" height="680" fill="#484b4f" />
<g transform="scale(4.000000) translate(0.5 0.5)">
<polygon fill="#000000" fill-opacity="0.501961" points="271,102 -16,160 250,185" />
<polygon fill="#7f8186" fill-opacity="0.501961" points="-16,108 271,111 144,-16" />
<polygon fill="#010a0d" fill-opacity="0.501961" points="193,113 6,185 -16,112" />
<polygon fill="#a9937b" fill-opacity="0.501961" points="116,111 212,91 21,72" />
<polygon fill="#5a5d62" fill-opacity="0.501961" points="271,12 3,-16 -16,97" />
<polygon fill="#00060a" fill-opacity="0.501961" points="-9,137 161,162 -14,185" />
<polygon fill="#575c63" fill-opacity="0.501961" points="255,110 256,-16 8,5" />
<polygon fill="#383c3c" fill-opacity="0.501961" points="209,110 127,151 35,139" />
<polygon fill="#00000c" fill-opacity="0.501961" points="271,167 195,185 251,118" />
<polygon fill="#525662" fill-opacity="0.501961" points="173,164 221,151 209,137" />
<polygon fill="#d7ac6a" fill-opacity="0.501961" points="107,89 58,78 60,91" />
<polygon fill="#6e7c86" fill-opacity="0.501961" points="195,111 58,110 133,90" />
<polygon fill="#0b101b" fill-opacity="0.501961" points="-3,141 -12,107 70,133" />
<polygon fill="#5a5b60" fill-opacity="0.501961" points="14,24 -16,122 193,-16" />
<polygon fill="#2e3436" fill-opacity="0.501961" points="240,110 153,140 55,112" />
<polygon fill="#585f6b" fill-opacity="0.501961" points="3,48 241,28 269,97" />
<polygon fill="#0c1619" fill-opacity="0.501961" points="-6,146 197,149 81,185" />
<polygon fill="#837264" fill-opacity="0.501961" points="56,76 65,98 -7,69" />
<polygon fill="#616c76" fill-opacity="0.501961" points="217,90 76,83 151,50" />
<polygon fill="#a18573" fill-opacity="0.501961" points="132,80 188,94 75,97" />
<polygon fill="#766662" fill-opacity="0.501961" points="78,88 38,93 104,103" />
<polygon fill="#707881" fill-opacity="0.501961" points="218,109 198,87 129,111" />
<polygon fill="#57595a" fill-opacity="0.501961" points="271,68 9,1 233,-16" />
<polygon fill="#242c26" fill-opacity="0.501961" points="118,150 30,152 67,137" />
<polygon fill="#5d5f62" fill-opacity="0.501961" points="83,138 83,131 58,137" />
<polygon fill="#bca274" fill-opacity="0.501961" points="77,76 61,92 56,74" />
<polygon fill="#141a23" fill-opacity="0.501961" points="265,117 261,150 175,124" />
<polygon fill="#50555a" fill-opacity="0.501961" points="222,158 200,143 198,130" />
<polygon fill="#00060f" fill-opacity="0.501961" points="223,185 271,162 225,144" />
<polygon fill="#040c10" fill-opacity="0.501961" points="-3,175 -14,144 107,165" />
<polygon fill="#25282b" fill-opacity="0.501961" points="188,169 76,119 173,126" />
<polygon fill="#55595d" fill-opacity="0.501961" points="-3,57 -16,108 44,110" />
<polygon fill="#636f79" fill-opacity="0.501961" points="116,111 77,99 150,97" />
<polygon fill="#6d7375" fill-opacity="0.501961" points="172,87 124,72 80,84" />
<polygon fill="#303637" fill-opacity="0.501961" points="64,111 144,134 220,112" />
<polygon fill="#3c3f4b" fill-opacity="0.501961" points="190,163 222,155 176,154" />
<polygon fill="#977564" fill-opacity="0.501961" points="61,98 67,90 36,93" />
<polygon fill="#5b6671" fill-opacity="0.501961" points="21,107 82,89 67,111" />
<polygon fill="#5b5f5f" fill-opacity="0.501961" points="91,136 93,131 73,131" />
<polygon fill="#151725" fill-opacity="0.501961" points="179,185 210,185 237,135" />
<polygon fill="#11181a" fill-opacity="0.501961" points="70,161 34,166 -8,115" />
<polygon fill="#c0ceab" fill-opacity="0.501961" points="66,89 62,79 68,82" />
<polygon fill="#22282f" fill-opacity="0.501961" points="-14,111 43,132 61,111" />
<polygon fill="#758186" fill-opacity="0.501961" points="138,98 94,110 178,110" />
<polygon fill="#5b5c60" fill-opacity="0.501961" points="61,92 23,87 51,80" />
<polygon fill="#59626e" fill-opacity="0.501961" points="119,40 220,75 55,75" />
<polygon fill="#565656" fill-opacity="0.501961" points="154,123 157,117 166,124" />
<polygon fill="#a7866d" fill-opacity="0.501961" points="98,98 141,94 99,85" />
<polygon fill="#595b64" fill-opacity="0.501961" points="188,0 231,109 271,110" />
<polygon fill="#383843" fill-opacity="0.501961" points="222,143 200,133 219,153" />
<polygon fill="#0e101b" fill-opacity="0.501961" points="167,178 125,158 146,145" />
<polygon fill="#101526" fill-opacity="0.501961" points="113,131 69,128 91,123" />
<polygon fill="#252829" fill-opacity="0.501961" points="38,142 52,155 90,135" />
<polygon fill="#ae8d66" fill-opacity="0.501961" points="72,76 43,76 59,82" />
<polygon fill="#766f70" fill-opacity="0.501961" points="232,93 198,87 165,100" />
<polygon fill="#585c63" fill-opacity="0.501961" points="68,23 -16,71 89,73" />
<polygon fill="#606063" fill-opacity="0.501961" points="90,90 65,91 56,103" />
<polygon fill="#746c64" fill-opacity="0.501961" points="95,85 65,79 104,76" />
<polygon fill="#151a22" fill-opacity="0.501961" points="150,140 181,150 204,141" />
<polygon fill="#23262a" fill-opacity="0.501961" points="180,144 165,120 219,112" />
<polygon fill="#000a12" fill-opacity="0.501961" points="89,154 47,170 125,164" />
<polygon fill="#535859" fill-opacity="0.501961" points="190,153 194,157 178,158" />
<polygon fill="#262435" fill-opacity="0.501961" points="206,161 175,158 143,184" />
<polygon fill="#5b5f62" fill-opacity="0.501961" points="204,141 207,152 219,153" />
<polygon fill="#212426" fill-opacity="0.501961" points="34,136 -3,139 18,148" />
<polygon fill="#c4a365" fill-opacity="0.501961" points="63,89 89,88 71,82" />
<polygon fill="#292a36" fill-opacity="0.501961" points="198,145 212,156 188,153" />
<polygon fill="#666e76" fill-opacity="0.501961" points="150,105 174,99 126,98" />
<polygon fill="#4c4c51" fill-opacity="0.501961" points="50,138 34,137 41,141" />
<polygon fill="#ca9d72" fill-opacity="0.501961" points="104,89 93,86 112,86" />
<polygon fill="#222a32" fill-opacity="0.501961" points="257,110 221,127 183,114" />
<polygon fill="#3b3f3e" fill-opacity="0.501961" points="106,132 75,135 90,141" />
<polygon fill="#151a22" fill-opacity="0.501961" points="196,129 264,119 231,147" />
<polygon fill="#393c39" fill-opacity="0.501961" points="133,111 166,118 110,121" />
<polygon fill="#5d6472" fill-opacity="0.501961" points="190,101 237,110 240,92" />
<polygon fill="#6b757f" fill-opacity="0.501961" points="50,108 85,110 80,100" />
<polygon fill="#282d2d" fill-opacity="0.501961" points="131,117 123,151 88,144" />
<polygon fill="#33393a" fill-opacity="0.501961" points="124,113 56,110 82,125" />
<polygon fill="#0a0f1e" fill-opacity="0.501961" points="-2,130 34,129 21,140" />
<polygon fill="#977b6a" fill-opacity="0.501961" points="116,96 103,89 76,97" />
<polygon fill="#826d5e" fill-opacity="0.501961" points="48,86 61,82 49,82" />
<polygon fill="#57595b" fill-opacity="0.501961" points="16,-4 256,43 182,-16" />
<polygon fill="#7f766d" fill-opacity="0.501961" points="36,73 18,78 54,79" />
<polygon fill="#34383e" fill-opacity="0.501961" points="210,138 201,145 193,131" />
<polygon fill="#2d2f2b" fill-opacity="0.501961" points="139,140 161,156 174,151" />
<polygon fill="#666a71" fill-opacity="0.501961" points="75,106 78,96 112,99" />
<polygon fill="#5d5e61" fill-opacity="0.501961" points="50,89 -4,71 21,96" />
<polygon fill="#585b65" fill-opacity="0.501961" points="271,79 95,25 190,28" />
<polygon fill="#89705f" fill-opacity="0.501961" points="85,84 74,84 69,78" />
<polygon fill="#58595c" fill-opacity="0.501961" points="239,83 271,18 262,119" />
<polygon fill="#141a26" fill-opacity="0.501961" points="90,123 67,134 39,130" />
<polygon fill="#0f1b1b" fill-opacity="0.501961" points="82,142 102,153 59,157" />
<polygon fill="#262330" fill-opacity="0.501961" points="155,167 86,169 117,185" />
<polygon fill="#32424c" fill-opacity="0.501961" points="0,113 -1,108 15,108" />
<polygon fill="#4b5455" fill-opacity="0.501961" points="251,-16 264,23 231,21" />
<polygon fill="#a57d63" fill-opacity="0.501961" points="57,94 45,94 61,89" />
<polygon fill="#262a36" fill-opacity="0.501961" points="202,151 216,163 224,156" />
<polygon fill="#6b7277" fill-opacity="0.501961" points="136,73 97,85 178,85" />
<polygon fill="#535858" fill-opacity="0.501961" points="16,-14 73,-16 -7,77" />
<polygon fill="#20262a" fill-opacity="0.501961" points="68,127 33,117 16,130" />
<polygon fill="#10141e" fill-opacity="0.501961" points="197,163 241,155 203,173" />
<polygon fill="#111a1f" fill-opacity="0.501961" points="128,135 141,140 125,139" />
<polygon fill="#bebf93" fill-opacity="0.501961" points="70,82 62,87 60,80" />
<polygon fill="#1b212a" fill-opacity="0.501961" points="209,128 268,107 249,128" />
<polygon fill="#938276" fill-opacity="0.501961" points="145,85 193,91 143,98" />
<polygon fill="#6d6966" fill-opacity="0.501961" points="25,85 58,82 2,72" />
<polygon fill="#435155" fill-opacity="0.501961" points="9,16 -13,60 1,-10" />
<polygon fill="#2a2c2f" fill-opacity="0.501961" points="60,144 71,136 74,148" />
<polygon fill="#666161" fill-opacity="0.501961" points="51,90 59,87 58,93" />
<polygon fill="#ba8d6d" fill-opacity="0.501961" points="95,85 106,90 86,91" />
<polygon fill="#4d5153" fill-opacity="0.501961" points="190,159 198,155 178,154" />
<polygon fill="#57595d" fill-opacity="0.501961" points="51,0 112,30 4,56" />
<polygon fill="#1a1829" fill-opacity="0.501961" points="179,153 149,166 163,170" />
<polygon fill="#6d6866" fill-opacity="0.501961" points="98,94 81,93 89,90" />
<polygon fill="#2f303a" fill-opacity="0.501961" points="187,165 165,161 201,157" />
<polygon fill="#090e1e" fill-opacity="0.501961" points="36,136 56,134 35,130" />
<polygon fill="#5b5e68" fill-opacity="0.501961" points="11,110 21,95 66,95" />
<polygon fill="#ba8e68" fill-opacity="0.501961" points="79,94 78,96 84,94" />
<polygon fill="#1e252b" fill-opacity="0.501961" points="108,131 115,122 75,122" />
<polygon fill="#2d322f" fill-opacity="0.501961" points="178,132 138,118 114,135" />
<polygon fill="#aa8a68" fill-opacity="0.501961" points="69,81 81,76 69,76" />
<polygon fill="#95735e" fill-opacity="0.501961" points="60,93 50,82 70,93" />
<polygon fill="#797671" fill-opacity="0.501961" points="112,95 110,91 99,91" />
<polygon fill="#02090f" fill-opacity="0.501961" points="-16,163 9,151 34,170" />
<polygon fill="#050e11" fill-opacity="0.501961" points="101,151 122,185 93,165" />
<polygon fill="#1a1d23" fill-opacity="0.501961" points="189,121 197,147 179,155" />
<polygon fill="#907d6a" fill-opacity="0.501961" points="25,78 39,80 32,76" />
<polygon fill="#be905d" fill-opacity="0.501961" points="67,89 55,84 62,90" />
<polygon fill="#313131" fill-opacity="0.501961" points="31,134 37,138 25,139" />
<polygon fill="#2d3235" fill-opacity="0.501961" points="38,112 77,123 87,112" />
<polygon fill="#5f6977" fill-opacity="0.501961" points="221,101 223,109 192,111" />
<polygon fill="#000006" fill-opacity="0.501961" points="242,162 234,183 223,172" />
<polygon fill="#7a8186" fill-opacity="0.501961" points="126,110 173,110 147,103" />
<polygon fill="#595d65" fill-opacity="0.501961" points="83,75 16,72 70,30" />
<polygon fill="#5b6061" fill-opacity="0.501961" points="73,137 71,132 76,134" />
<polygon fill="#646667" fill-opacity="0.501961" points="161,119 163,118 161,120" />
<polygon fill="#1d2025" fill-opacity="0.501961" points="216,131 248,138 229,144" />
<polygon fill="#cd9a69" fill-opacity="0.501961" points="83,96 88,94 85,94" />
<polygon fill="#6f7071" fill-opacity="0.501961" points="97,85 123,78 77,76" />
<polygon fill="#283138" fill-opacity="0.501961" points="195,120 219,111 176,111" />
<polygon fill="#3d3e47" fill-opacity="0.501961" points="204,148 193,149 209,153" />
<polygon fill="#2f3039" fill-opacity="0.501961" points="203,133 217,142 222,154" />
<polygon fill="#5b626e" fill-opacity="0.501961" points="215,90 117,51 189,50" />
<polygon fill="#837875" fill-opacity="0.501961" points="186,92 151,92 166,99" />
<polygon fill="#8e7166" fill-opacity="0.501961" points="44,92 42,96 34,94" />
<polygon fill="#121c17" fill-opacity="0.501961" points="51,146 76,163 11,148" />
<polygon fill="#15221d" fill-opacity="0.501961" points="100,150 136,155 117,160" />
<polygon fill="#2b2d28" fill-opacity="0.501961" points="211,123 197,116 189,128" />
<polygon fill="#6e7b81" fill-opacity="0.501961" points="174,100 202,110 168,110" />
<polygon fill="#0f1017" fill-opacity="0.501961" points="210,130 200,131 190,123" />
<polygon fill="#737d83" fill-opacity="0.501961" points="122,110 76,110 102,103" />
<polygon fill="#71706f" fill-opacity="0.501961" points="72,136 73,138 75,135" />
<polygon fill="#575b62" fill-opacity="0.501961" points="98,8 133,44 67,41" />
<polygon fill="#5d6a72" fill-opacity="0.501961" points="135,64 176,77 91,77" />
<polygon fill="#9a8977" fill-opacity="0.501961" points="144,87 138,95 111,88" />
<polygon fill="#151a26" fill-opacity="0.501961" points="55,135 79,124 71,133" />
<polygon fill="#6b7379" fill-opacity="0.501961" points="158,106 126,96 94,104" />
<polygon fill="#1f2222" fill-opacity="0.501961" points="66,139 33,142 46,150" />
<polygon fill="#c19b6e" fill-opacity="0.501961" points="91,90 98,86 82,85" />
<polygon fill="#363335" fill-opacity="0.501961" points="152,143 130,142 145,138" />
<polygon fill="#34363d" fill-opacity="0.501961" points="217,139 202,139 221,146" />
<polygon fill="#363a39" fill-opacity="0.501961" points="89,117 117,110 146,120" />
<polygon fill="#a88167" fill-opacity="0.501961" points="52,98 52,93 59,94" />
<polygon fill="#5f626a" fill-opacity="0.501961" points="21,107 41,95 66,96" />
<polygon fill="#1b2026" fill-opacity="0.501961" points="16,114 4,142 36,114" />
<polygon fill="#0a1315" fill-opacity="0.501961" points="28,141 52,158 15,185" />
<polygon fill="#10161b" fill-opacity="0.501961" points="223,142 237,161 220,160" />
<polygon fill="#57595c" fill-opacity="0.501961" points="-16,14 21,109 -16,106" />
<polygon fill="#14181f" fill-opacity="0.501961" points="69,185 98,164 44,173" />
<polygon fill="#241f24" fill-opacity="0.501961" points="143,147 122,151 127,144" />
<polygon fill="#2e322a" fill-opacity="0.501961" points="92,149 111,140 90,141" />
<polygon fill="#3a484e" fill-opacity="0.501961" points="24,108 16,112 39,113" />
<polygon fill="#0c1219" fill-opacity="0.501961" points="132,152 124,167 167,159" />
<polygon fill="#3b3d46" fill-opacity="0.501961" points="218,157 214,158 213,156" />
<polygon fill="#232a2c" fill-opacity="0.501961" points="200,140 163,122 167,141" />
<polygon fill="#252931" fill-opacity="0.501961" points="76,135 76,141 80,134" />
<polygon fill="#5a5d67" fill-opacity="0.501961" points="242,111 244,66 187,38" />
<polygon fill="#595e62" fill-opacity="0.501961" points="53,82 45,84 48,81" />
<polygon fill="#292d30" fill-opacity="0.501961" points="142,128 167,113 157,112" />
<polygon fill="#636b75" fill-opacity="0.501961" points="55,110 70,101 35,106" />
<polygon fill="#a48974" fill-opacity="0.501961" points="173,93 156,90 172,88" />
<polygon fill="#747878" fill-opacity="0.501961" points="101,77 139,79 131,87" />
<polygon fill="#1f2628" fill-opacity="0.501961" points="154,143 166,134 130,136" />
<polygon fill="#1e2225" fill-opacity="0.501961" points="226,122 206,141 217,119" />
<polygon fill="#656768" fill-opacity="0.501961" points="156,120 161,123 160,120" />
<polygon fill="#778187" fill-opacity="0.501961" points="139,108 116,110 120,104" />
<polygon fill="#4e5357" fill-opacity="0.501961" points="208,143 216,148 215,152" />
<polygon fill="#252b2d" fill-opacity="0.501961" points="76,118 70,128 42,127" />
<polygon fill="#343438" fill-opacity="0.501961" points="170,115 200,115 181,123" />
<polygon fill="#877d75" fill-opacity="0.501961" points="112,90 122,88 128,92" />
<polygon fill="#131a1a" fill-opacity="0.501961" points="26,149 -3,149 23,140" />
<polygon fill="#525357" fill-opacity="0.501961" points="83,130 96,132 89,133" />
<polygon fill="#5c606c" fill-opacity="0.501961" points="229,88 194,89 213,60" />
<polygon fill="#3c3d45" fill-opacity="0.501961" points="196,132 206,135 205,143" />
<polygon fill="#312f28" fill-opacity="0.501961" points="90,136 78,140 80,144" />
<polygon fill="#0d151e" fill-opacity="0.501961" points="257,127 248,135 224,130" />
<polygon fill="#52585a" fill-opacity="0.501961" points="227,-13 201,11 270,64" />
<polygon fill="#6a6968" fill-opacity="0.501961" points="26,77 36,71 9,73" />
<polygon fill="#0c121a" fill-opacity="0.501961" points="172,155 177,156 174,159" />
<polygon fill="#59606b" fill-opacity="0.501961" points="72,48 125,42 83,76" />
<polygon fill="#0e131e" fill-opacity="0.501961" points="22,130 0,129 -16,141" />
<polygon fill="#0b111c" fill-opacity="0.501961" points="171,140 161,142 168,144" />
<polygon fill="#020b11" fill-opacity="0.501961" points="34,185 91,185 50,157" />
<polygon fill="#171b23" fill-opacity="0.501961" points="195,134 180,139 197,138" />
<polygon fill="#2b292a" fill-opacity="0.501961" points="188,129 183,126 200,124" />
<polygon fill="#01090f" fill-opacity="0.501961" points="270,153 251,150 245,185" />
<polygon fill="#696564" fill-opacity="0.501961" points="90,92 65,94 78,89" />
<polygon fill="#35343e" fill-opacity="0.501961" points="222,146 215,142 210,147" />
<polygon fill="#595c61" fill-opacity="0.501961" points="10,81 57,89 15,93" />
<polygon fill="#01040e" fill-opacity="0.501961" points="84,156 70,159 79,167" />
<polygon fill="#242725" fill-opacity="0.501961" points="4,144 9,137 -3,139" />
<polygon fill="#222b21" fill-opacity="0.501961" points="105,156 98,144 112,145" />
<polygon fill="#161a28" fill-opacity="0.501961" points="97,130 92,125 74,129" />
<polygon fill="#262c30" fill-opacity="0.501961" points="130,126 116,119 103,150" />
<polygon fill="#0c1718" fill-opacity="0.501961" points="77,145 102,160 76,153" />
<polygon fill="#223f55" fill-opacity="0.501961" points="195,114 193,112 188,113" />
<polygon fill="#22202c" fill-opacity="0.501961" points="194,159 172,185 207,162" />
<polygon fill="#aa8b70" fill-opacity="0.501961" points="93,88 124,95 113,87" />
<polygon fill="#585e69" fill-opacity="0.501961" points="225,111 240,102 256,107" />
<polygon fill="#7b7174" fill-opacity="0.501961" points="216,92 201,95 206,91" />
<polygon fill="#1b241c" fill-opacity="0.501961" points="43,151 30,148 48,147" />
<polygon fill="#595d67" fill-opacity="0.501961" points="199,55 186,35 125,36" />
<polygon fill="#7c736a" fill-opacity="0.501961" points="37,82 58,74 32,74" />
<polygon fill="#575a5f" fill-opacity="0.501961" points="223,19 147,26 235,44" />
<polygon fill="#bfa66d" fill-opacity="0.501961" points="63,79 54,79 62,83" />
<polygon fill="#020811" fill-opacity="0.501961" points="113,166 130,165 131,160" />
<polygon fill="#3d4955" fill-opacity="0.501961" points="196,112 196,114 192,114" />
<polygon fill="#525657" fill-opacity="0.501961" points="192,156 200,154 203,157" />
<polygon fill="#25232e" fill-opacity="0.501961" points="163,164 146,166 153,168" />
<polygon fill="#2d3330" fill-opacity="0.501961" points="147,123 118,135 177,133" />
<polygon fill="#01020d" fill-opacity="0.501961" points="262,185 218,165 239,166" />
<polygon fill="#7a7675" fill-opacity="0.501961" points="175,86 155,83 166,89" />
<polygon fill="#4c575a" fill-opacity="0.501961" points="34,111 24,107 13,109" />
<polygon fill="#393942" fill-opacity="0.501961" points="213,139 214,147 220,143" />
<polygon fill="#0c1217" fill-opacity="0.501961" points="271,163 254,145 226,145" />
<polygon fill="#0b0e1a" fill-opacity="0.501961" points="186,125 187,123 193,125" />
<polygon fill="#474c53" fill-opacity="0.501961" points="182,158 178,157 178,155" />
<polygon fill="#636265" fill-opacity="0.501961" points="60,89 43,85 25,94" />
<polygon fill="#191b19" fill-opacity="0.501961" points="177,150 183,155 184,151" />
<polygon fill="#232828" fill-opacity="0.501961" points="218,133 192,114 214,120" />
<polygon fill="#1a2025" fill-opacity="0.501961" points="48,120 3,118 28,126" />
<polygon fill="#43454a" fill-opacity="0.501961" points="53,137 60,136 53,139" />
<polygon fill="#192820" fill-opacity="0.501961" points="93,142 91,150 80,153" />
<polygon fill="#6a6c6c" fill-opacity="0.501961" points="94,82 76,78 106,74" />
<polygon fill="#8e7e72" fill-opacity="0.501961" points="111,88 117,88 109,98" />
<polygon fill="#a07f6b" fill-opacity="0.501961" points="98,97 83,95 100,92" />
<polygon fill="#374148" fill-opacity="0.501961" points="55,111 49,114 42,111" />
<polygon fill="#3d484a" fill-opacity="0.501961" points="143,110 132,110 139,115" />
<polygon fill="#5e6367" fill-opacity="0.501961" points="76,97 81,92 69,92" />
<polygon fill="#070c1a" fill-opacity="0.501961" points="208,133 203,132 210,128" />
</g>
</svg>