<svg xmlns="http://www.w3.org/2000/svg" version="1.1" width="1024" height="680">
<rect x="0" y="0" width="1024" height="680" fill="#484b4f" />
<g transform="scale(4.000000) translate(0.5 0.5)">
<polygon fill="#000000" fill-opacity="0.501961" points="-16,161 271,101 251,185" />
<polygon fill="#7f8186" fill-opacity="0.501961" points="-16,108 271,111 144,-16" />
<polygon fill="#010a0d" fill-opacity="0.501961" points="192,113 7,185 -16,112" />
<polygon fill="#a7917a" fill-opacity="0.501961" points="114,111 214,92 11,71" />
<polygon fill="#5a5d62" fill-opacity="0.501961" points="271,9 9,-16 -16,101" />
<polygon fill="#00070a" fill-opacity="0.501961" points="169,161 -15,137 -6,185" />
<polygon fill="#575c63" fill-opacity="0.501961" points="259,109 -16,8 255,-16" />
<polygon fill="#323638" fill-opacity="0.501961" points="239,152 23,145 154,111" />
<polygon fill="#00000d" fill-opacity="0.501961" points="189,185 256,172 257,114" />
<polygon fill="#e2bb70" fill-opacity="0.501961" points="63,89 98,88 50,76" />
<polygon fill="#4f525f" fill-opacity="0.501961" points="220,157 211,139 176,160" />
<polygon fill="#717d88" fill-opacity="0.501961" points="137,89 209,109 60,111" />
<polygon fill="#0b101b" fill-opacity="0.501961" points="-16,142 -11,110 74,132" />
<polygon fill="#1f242a" fill-opacity="0.501961" points="219,110 159,182 164,112" />
<polygon fill="#585f6b" fill-opacity="0.501961" points="232,21 -16,53 271,93" />
<polygon fill="#b08a6e" fill-opacity="0.501961" points="98,83 149,93 95,98" />
<polygon fill="#616c75" fill-opacity="0.501961" points="136,48 76,84 210,86" />
<polygon fill="#333838" fill-opacity="0.501961" points="58,112 217,111 147,136" />
<polygon fill="#0e171a" fill-opacity="0.501961" points="97,185 174,156 -16,136" />
<polygon fill="#626062" fill-opacity="0.501961" points="99,102 -13,110 -2,67" />
<polygon fill="#595c5c" fill-opacity="0.501961" points="100,135 80,130 62,138" />
<polygon fill="#57595b" fill-opacity="0.501961" points="-16,45 271,39 173,-16" />
<polygon fill="#af7f62" fill-opacity="0.501961" points="58,97 37,94 72,88" />
<polygon fill="#c2a576" fill-opacity="0.501961" points="77,76 56,75 63,85" />
<polygon fill="#191c20" fill-opacity="0.501961" points="192,128 108,156 202,151" />
<polygon fill="#030b11" fill-opacity="0.501961" points="133,163 -1,149 4,185" />
<polygon fill="#121922" fill-opacity="0.501961" points="242,152 271,114 193,127" />
<polygon fill="#262b26" fill-opacity="0.501961" points="47,157 100,139 38,141" />
<polygon fill="#6a717b" fill-opacity="0.501961" points="202,111 125,104 233,85" />
<polygon fill="#968578" fill-opacity="0.501961" points="121,78 129,97 187,91" />
<polygon fill="#595c62" fill-opacity="0.501961" points="-13,70 63,8 94,75" />
<polygon fill="#636e77" fill-opacity="0.501961" points="97,111 47,96 144,98" />
<polygon fill="#00050c" fill-opacity="0.501961" points="231,148 215,185 271,160" />
<polygon fill="#7d6f64" fill-opacity="0.501961" points="59,89 57,73 3,74" />
<polygon fill="#53585e" fill-opacity="0.501961" points="-16,40 -16,110 42,110" />
<polygon fill="#585d60" fill-opacity="0.501961" points="200,134 218,153 204,150" />
<polygon fill="#788488" fill-opacity="0.501961" points="136,111 134,101 171,110" />
<polygon fill="#262d2c" fill-opacity="0.501961" points="81,152 193,136 105,118" />
<polygon fill="#5a5c62" fill-opacity="0.501961" points="90,91 70,90 54,103" />
<polygon fill="#6c7376" fill-opacity="0.501961" points="129,72 88,84 178,87" />
<polygon fill="#595a61" fill-opacity="0.501961" points="187,42 271,40 246,111" />
<polygon fill="#6c7881" fill-opacity="0.501961" points="79,100 113,110 44,109" />
<polygon fill="#c0946a" fill-opacity="0.501961" points="111,87 84,92 84,84" />
<polygon fill="#191c2b" fill-opacity="0.501961" points="195,174 230,155 204,153" />
<polygon fill="#c2c398" fill-opacity="0.501961" points="62,90 61,80 70,83" />
<polygon fill="#101526" fill-opacity="0.501961" points="81,123 106,128 63,132" />
<polygon fill="#22282f" fill-opacity="0.501961" points="44,132 -14,112 61,111" />
<polygon fill="#5e5e5f" fill-opacity="0.501961" points="163,117 163,124 156,122" />
<polygon fill="#3d3e43" fill-opacity="0.501961" points="70,135 51,143 29,138" />
<polygon fill="#41434d" fill-opacity="0.501961" points="178,167 205,154 179,154" />
<polygon fill="#101819" fill-opacity="0.501961" points="66,159 -13,113 33,168" />
<polygon fill="#252233" fill-opacity="0.501961" points="171,157 206,162 148,181" />
<polygon fill="#57595a" fill-opacity="0.501961" points="8,44 15,-16 236,1" />
<polygon fill="#26313c" fill-opacity="0.501961" points="219,120 220,110 256,110" />
<polygon fill="#444848" fill-opacity="0.501961" points="79,130 103,132 92,141" />
<polygon fill="#59626e" fill-opacity="0.501961" points="116,32 72,71 234,76" />
<polygon fill="#3d4048" fill-opacity="0.501961" points="197,155 221,144 198,133" />
<polygon fill="#b4885a" fill-opacity="0.501961" points="59,90 65,90 54,76" />
<polygon fill="#5c626f" fill-opacity="0.501961" points="260,109 222,87 202,111" />
<polygon fill="#5e6773" fill-opacity="0.501961" points="44,94 91,103 27,108" />
<polygon fill="#222429" fill-opacity="0.501961" points="40,142 79,150 70,137" />
<polygon fill="#8f7860" fill-opacity="0.501961" points="74,84 90,76 64,76" />
<polygon fill="#0f0e1b" fill-opacity="0.501961" points="133,151 147,145 166,178" />
<polygon fill="#222426" fill-opacity="0.501961" points="16,149 36,135 -1,140" />
<polygon fill="#4b5456" fill-opacity="0.501961" points="-16,43 -16,-16 35,14" />
<polygon fill="#6e6966" fill-opacity="0.501961" points="15,84 58,83 5,69" />
<polygon fill="#393e3c" fill-opacity="0.501961" points="149,116 101,121 115,110" />
<polygon fill="#253036" fill-opacity="0.501961" points="214,112 174,110 217,127" />
<polygon fill="#191f27" fill-opacity="0.501961" points="264,111 204,122 240,144" />
<polygon fill="#9b8474" fill-opacity="0.501961" points="119,89 154,98 182,88" />
<polygon fill="#323738" fill-opacity="0.501961" points="49,112 117,112 84,124" />
<polygon fill="#6d6b6a" fill-opacity="0.501961" points="120,86 91,74 75,83" />
<polygon fill="#2d2e2b" fill-opacity="0.501961" points="137,139 162,157 176,150" />
<polygon fill="#748189" fill-opacity="0.501961" points="125,102 152,110 97,109" />
<polygon fill="#8a7267" fill-opacity="0.501961" points="87,98 84,90 109,93" />
<polygon fill="#778286" fill-opacity="0.501961" points="165,102 189,110 143,110" />
<polygon fill="#585c65" fill-opacity="0.501961" points="15,72 88,12 179,36" />
<polygon fill="#5d6166" fill-opacity="0.501961" points="212,153 208,141 205,147" />
<polygon fill="#0a1016" fill-opacity="0.501961" points="221,143 271,149 231,162" />
<polygon fill="#0a101d" fill-opacity="0.501961" points="51,130 14,129 11,140" />
<polygon fill="#515757" fill-opacity="0.501961" points="271,86 194,-16 265,11" />
<polygon fill="#2a302c" fill-opacity="0.501961" points="124,134 76,137 107,152" />
<polygon fill="#7b7373" fill-opacity="0.501961" points="185,100 171,84 220,92" />
<polygon fill="#1e2429" fill-opacity="0.501961" points="16,129 12,112 75,129" />
<polygon fill="#6b6c6d" fill-opacity="0.501961" points="70,134 75,138 75,135" />
<polygon fill="#2e3331" fill-opacity="0.501961" points="141,122 176,132 108,136" />
<polygon fill="#31323c" fill-opacity="0.501961" points="216,139 203,137 223,155" />
<polygon fill="#22202d" fill-opacity="0.501961" points="124,185 178,166 79,169" />
<polygon fill="#c3a163" fill-opacity="0.501961" points="85,84 71,84 66,90" />
<polygon fill="#181d2a" fill-opacity="0.501961" points="111,131 83,128 110,122" />
<polygon fill="#525458" fill-opacity="0.501961" points="67,138 67,134 58,138" />
<polygon fill="#b48365" fill-opacity="0.501961" points="60,92 47,93 55,95" />
<polygon fill="#88796b" fill-opacity="0.501961" points="42,81 56,75 26,78" />
<polygon fill="#181b23" fill-opacity="0.501961" points="198,141 192,153 152,140" />
<polygon fill="#121c1c" fill-opacity="0.501961" points="66,162 48,155 88,142" />
<polygon fill="#656263" fill-opacity="0.501961" points="58,82 34,86 36,79" />
<polygon fill="#4d5155" fill-opacity="0.501961" points="79,136 70,131 96,131" />
<polygon fill="#020b11" fill-opacity="0.501961" points="126,164 89,154 47,168" />
<polygon fill="#5f5e60" fill-opacity="0.501961" points="45,88 62,93 59,88" />
<polygon fill="#535858" fill-opacity="0.501961" points="190,158 179,155 202,154" />
<polygon fill="#56595d" fill-opacity="0.501961" points="271,70 252,110 221,5" />
<polygon fill="#57595c" fill-opacity="0.501961" points="-16,74 39,87 -5,112" />
<polygon fill="#30343e" fill-opacity="0.501961" points="206,154 218,158 190,161" />
<polygon fill="#a5816b" fill-opacity="0.501961" points="101,92 102,98 82,95" />
<polygon fill="#5a5d68" fill-opacity="0.501961" points="247,66 170,32 240,111" />
<polygon fill="#5d606a" fill-opacity="0.501961" points="22,107 65,96 16,95" />
<polygon fill="#a88766" fill-opacity="0.501961" points="60,75 75,78 46,81" />
<polygon fill="#262a2d" fill-opacity="0.501961" points="162,120 184,118 175,149" />
<polygon fill="#6b6361" fill-opacity="0.501961" points="76,95 72,88 88,91" />
<polygon fill="#252a28" fill-opacity="0.501961" points="76,150 39,148 71,136" />
<polygon fill="#66717c" fill-opacity="0.501961" points="215,101 187,107 220,110" />
<polygon fill="#3c464e" fill-opacity="0.501961" points="54,113 33,113 44,110" />
<polygon fill="#6b7277" fill-opacity="0.501961" points="119,108 89,97 157,99" />
<polygon fill="#0d0f18" fill-opacity="0.501961" points="199,130 218,137 210,127" />
<polygon fill="#31414b" fill-opacity="0.501961" points="-11,115 -16,108 13,108" />
<polygon fill="#1d2521" fill-opacity="0.501961" points="97,148 137,146 112,158" />
<polygon fill="#373a3c" fill-opacity="0.501961" points="90,141 77,135 98,132" />
<polygon fill="#717272" fill-opacity="0.501961" points="83,78 100,86 128,77" />
<polygon fill="#424243" fill-opacity="0.501961" points="175,118 181,115 169,115" />
<polygon fill="#0d141c" fill-opacity="0.501961" points="271,140 271,126 223,130" />
<polygon fill="#384249" fill-opacity="0.501961" points="74,114 81,110 61,110" />
<polygon fill="#4e5055" fill-opacity="0.501961" points="41,140 50,137 39,137" />
<polygon fill="#be9965" fill-opacity="0.501961" points="65,90 78,88 69,83" />
<polygon fill="#292d2c" fill-opacity="0.501961" points="200,127 229,113 188,115" />
<polygon fill="#161420" fill-opacity="0.501961" points="202,161 178,185 240,176" />
<polygon fill="#191a1d" fill-opacity="0.501961" points="181,155 193,149 170,146" />
<polygon fill="#3b3944" fill-opacity="0.501961" points="199,137 206,135 191,129" />
<polygon fill="#101720" fill-opacity="0.501961" points="138,138 125,136 126,140" />
<polygon fill="#535859" fill-opacity="0.501961" points="43,17 22,-16 -16,87" />
<polygon fill="#897a75" fill-opacity="0.501961" points="186,93 151,92 161,99" />
<polygon fill="#2d2c37" fill-opacity="0.501961" points="164,160 188,168 200,160" />
<polygon fill="#af8b70" fill-opacity="0.501961" points="133,92 114,93 128,96" />
<polygon fill="#5b636e" fill-opacity="0.501961" points="87,42 86,77 192,56" />
<polygon fill="#5c616d" fill-opacity="0.501961" points="159,61 208,55 238,100" />
<polygon fill="#58595c" fill-opacity="0.501961" points="213,17 57,36 36,-16" />
<polygon fill="#595c63" fill-opacity="0.501961" points="57,75 69,35 8,70" />
<polygon fill="#313131" fill-opacity="0.501961" points="41,142 33,134 28,138" />
<polygon fill="#2c2d3a" fill-opacity="0.501961" points="205,153 191,154 192,146" />
<polygon fill="#2b2e33" fill-opacity="0.501961" points="36,128 54,123 54,128" />
<polygon fill="#b39666" fill-opacity="0.501961" points="61,85 62,78 54,86" />
<polygon fill="#212428" fill-opacity="0.501961" points="159,150 179,137 208,140" />
<polygon fill="#6b747b" fill-opacity="0.501961" points="137,103 193,95 185,109" />
<polygon fill="#b8bfa7" fill-opacity="0.501961" points="63,85 67,85 64,79" />
<polygon fill="#050c0f" fill-opacity="0.501961" points="11,185 3,157 32,142" />
<polygon fill="#0d1120" fill-opacity="0.501961" points="42,137 63,133 33,130" />
<polygon fill="#465156" fill-opacity="0.501961" points="247,15 251,-16 268,41" />
<polygon fill="#1a201c" fill-opacity="0.501961" points="53,140 17,151 57,150" />
<polygon fill="#1d1a22" fill-opacity="0.501961" points="246,137 218,154 226,137" />
<polygon fill="#141826" fill-opacity="0.501961" points="57,135 78,124 71,133" />
<polygon fill="#5e6a73" fill-opacity="0.501961" points="98,74 128,63 171,80" />
<polygon fill="#101f1c" fill-opacity="0.501961" points="61,151 101,152 86,144" />
<polygon fill="#0d111a" fill-opacity="0.501961" points="132,152 138,167 163,159" />
<polygon fill="#000008" fill-opacity="0.501961" points="226,168 242,164 231,185" />
<polygon fill="#606061" fill-opacity="0.501961" points="57,82 48,83 43,79" />
<polygon fill="#6d696b" fill-opacity="0.501961" points="233,95 218,89 197,96" />
<polygon fill="#595a5b" fill-opacity="0.501961" points="161,122 156,124 156,119" />
<polygon fill="#20252c" fill-opacity="0.501961" points="232,112 255,113 205,136" />
<polygon fill="#7c7670" fill-opacity="0.501961" points="110,94 107,91 97,93" />
<polygon fill="#081316" fill-opacity="0.501961" points="98,177 121,162 110,153" />
<polygon fill="#382e30" fill-opacity="0.501961" points="128,141 130,147 149,141" />
<polygon fill="#262828" fill-opacity="0.501961" points="9,134 5,143 -3,140" />
<polygon fill="#10111b" fill-opacity="0.501961" points="190,121 184,124 195,125" />
<polygon fill="#5e6770" fill-opacity="0.501961" points="213,90 206,77 169,84" />
<polygon fill="#25222c" fill-opacity="0.501961" points="87,166 101,185 105,171" />
<polygon fill="#081215" fill-opacity="0.501961" points="-13,175 47,152 69,185" />
<polygon fill="#57595f" fill-opacity="0.501961" points="89,8 21,69 6,46" />
<polygon fill="#585b65" fill-opacity="0.501961" points="142,41 198,32 236,58" />
<polygon fill="#5d5f62" fill-opacity="0.501961" points="82,131 84,138 81,134" />
<polygon fill="#262b2f" fill-opacity="0.501961" points="152,122 83,121 120,132" />
<polygon fill="#131823" fill-opacity="0.501961" points="23,121 -16,151 -15,118" />
<polygon fill="#0e181c" fill-opacity="0.501961" points="225,155 240,161 217,162" />
<polygon fill="#a68667" fill-opacity="0.501961" points="58,76 64,79 51,79" />
<polygon fill="#747e84" fill-opacity="0.501961" points="152,110 120,100 89,110" />
<polygon fill="#676d76" fill-opacity="0.501961" points="84,97 109,103 56,108" />
<polygon fill="#465157" fill-opacity="0.501961" points="-9,54 -6,-16 8,11" />
<polygon fill="#b79371" fill-opacity="0.501961" points="101,92 117,87 92,86" />
<polygon fill="#917b70" fill-opacity="0.501961" points="104,98 121,98 113,93" />
<polygon fill="#393b3a" fill-opacity="0.501961" points="103,115 81,116 103,121" />
<polygon fill="#8d7167" fill-opacity="0.501961" points="38,96 49,93 31,92" />
<polygon fill="#5a5d63" fill-opacity="0.501961" points="3,103 54,87 28,87" />
<polygon fill="#9a8676" fill-opacity="0.501961" points="171,90 120,87 141,97" />
<polygon fill="#292c2e" fill-opacity="0.501961" points="69,147 43,144 90,137" />
<polygon fill="#1a1928" fill-opacity="0.501961" points="151,165 154,175 178,155" />
<polygon fill="#8d8277" fill-opacity="0.501961" points="124,86 141,93 114,90" />
<polygon fill="#294054" fill-opacity="0.501961" points="198,114 186,113 194,111" />
<polygon fill="#23282e" fill-opacity="0.501961" points="13,126 31,130 28,125" />
<polygon fill="#a4896a" fill-opacity="0.501961" points="63,80 80,77 65,75" />
<polygon fill="#b68b67" fill-opacity="0.501961" points="78,95 84,94 85,96" />
<polygon fill="#32343e" fill-opacity="0.501961" points="193,150 200,146 209,150" />
<polygon fill="#626468" fill-opacity="0.501961" points="76,101 61,94 80,91" />
<polygon fill="#1c2328" fill-opacity="0.501961" points="155,145 164,134 146,135" />
<polygon fill="#6c6e6e" fill-opacity="0.501961" points="109,76 77,79 102,84" />
<polygon fill="#918276" fill-opacity="0.501961" points="178,88 190,91 176,93" />
<polygon fill="#bc946b" fill-opacity="0.501961" points="98,85 79,88 104,91" />
<polygon fill="#606873" fill-opacity="0.501961" points="55,99 25,107 62,109" />
<polygon fill="#342e3b" fill-opacity="0.501961" points="146,168 108,171 138,185" />
<polygon fill="#53595d" fill-opacity="0.501961" points="209,143 219,151 199,144" />
<polygon fill="#313338" fill-opacity="0.501961" points="161,116 182,122 195,115" />
<polygon fill="#bcc29f" fill-opacity="0.501961" points="68,87 62,87 66,81" />
<polygon fill="#4a4d50" fill-opacity="0.501961" points="61,136 55,136 59,139" />
<polygon fill="#707677" fill-opacity="0.501961" points="145,77 99,78 123,86" />
<polygon fill="#202327" fill-opacity="0.501961" points="43,148 39,142 63,139" />
<polygon fill="#5d6368" fill-opacity="0.501961" points="75,94 88,93 82,91" />
<polygon fill="#282c30" fill-opacity="0.501961" points="132,141 119,151 89,137" />
<polygon fill="#6d7375" fill-opacity="0.501961" points="120,104 121,97 141,96" />
<polygon fill="#36363f" fill-opacity="0.501961" points="217,149 206,137 217,141" />
<polygon fill="#06121b" fill-opacity="0.501961" points="95,160 79,175 87,154" />
<polygon fill="#595e69" fill-opacity="0.501961" points="55,44 77,76 108,41" />
<polygon fill="#293239" fill-opacity="0.501961" points="202,111 211,116 227,112" />
<polygon fill="#0a121b" fill-opacity="0.501961" points="173,141 157,141 167,144" />
<polygon fill="#2f3332" fill-opacity="0.501961" points="154,116 125,121 150,139" />
<polygon fill="#2f332d" fill-opacity="0.501961" points="89,150 95,141 106,140" />
<polygon fill="#3a3f43" fill-opacity="0.501961" points="205,135 197,134 202,145" />
<polygon fill="#585c63" fill-opacity="0.501961" points="103,39 93,10 159,38" />
<polygon fill="#161b22" fill-opacity="0.501961" points="199,147 191,141 189,147" />
<polygon fill="#5e5d5e" fill-opacity="0.501961" points="3,63 -8,72 18,85" />
<polygon fill="#0f1715" fill-opacity="0.501961" points="17,154 38,146 0,144" />
<polygon fill="#1b1c22" fill-opacity="0.501961" points="251,135 231,140 252,146" />
<polygon fill="#2f2d2b" fill-opacity="0.501961" points="191,129 185,128 199,121" />
<polygon fill="#6a7075" fill-opacity="0.501961" points="164,77 184,89 137,82" />
<polygon fill="#353d2e" fill-opacity="0.501961" points="161,150 168,151 160,152" />
<polygon fill="#161c27" fill-opacity="0.501961" points="72,130 90,128 66,123" />
<polygon fill="#84776a" fill-opacity="0.501961" points="24,78 40,81 35,75" />
<polygon fill="#3d4b50" fill-opacity="0.501961" points="20,113 21,108 36,111" />
<polygon fill="#232731" fill-opacity="0.501961" points="217,163 210,154 223,156" />
<polygon fill="#8e6f5f" fill-opacity="0.501961" points="66,90 60,93 70,93" />
<polygon fill="#585a60" fill-opacity="0.501961" points="244,106 234,73 271,103" />
<polygon fill="#87776d" fill-opacity="0.501961" points="89,94 100,90 109,94" />
<polygon fill="#32333c" fill-opacity="0.501961" points="224,147 207,137 212,147" />
<polygon fill="#21292e" fill-opacity="0.501961" points="168,117 151,113 162,112" />
<polygon fill="#090d15" fill-opacity="0.501961" points="237,185 220,185 221,156" />
<polygon fill="#030a0f" fill-opacity="0.501961" points="11,150 -16,161 20,168" />
<polygon fill="#bea66c" fill-opacity="0.501961" points="71,81 74,88 67,87" />
<polygon fill="#907f6a" fill-opacity="0.501961" points="54,75 53,80 43,76" />
<polygon fill="#2b2f2f" fill-opacity="0.501961" points="76,122 72,112 43,118" />
<polygon fill="#686867" fill-opacity="0.501961" points="23,77 35,71 8,72" />
<polygon fill="#a4806d" fill-opacity="0.501961" points="104,98 110,94 92,95" />
<polygon fill="#181d18" fill-opacity="0.501961" points="62,156 70,160 61,162" />
<polygon fill="#57595d" fill-opacity="0.501961" points="133,13 223,17 251,53" />
<polygon fill="#0f1818" fill-opacity="0.501961" points="23,161 35,170 36,158" />
<polygon fill="#656e78" fill-opacity="0.501961" points="213,106 197,98 190,111" />
<polygon fill="#0c101c" fill-opacity="0.501961" points="2,137 -16,128 10,130" />
<polygon fill="#717d84" fill-opacity="0.501961" points="192,110 188,105 172,110" />
<polygon fill="#6d797f" fill-opacity="0.501961" points="133,99 154,105 112,106" />
<polygon fill="#19191c" fill-opacity="0.501961" points="210,127 197,125 184,133" />
<polygon fill="#212428" fill-opacity="0.501961" points="181,148 186,122 179,130" />
<polygon fill="#9b8373" fill-opacity="0.501961" points="122,96 136,96 133,92" />
<polygon fill="#0f1220" fill-opacity="0.501961" points="200,168 207,161 217,163" />
<polygon fill="#b08d71" fill-opacity="0.501961" points="169,89 163,91 173,91" />
<polygon fill="#7f7469" fill-opacity="0.501961" points="99,85 83,85 89,82" />
</g>
</svg>