<svg xmlns="http://www.w3.org/2000/svg" version="1.1" width="1024" height="680">
<rect x="0" y="0" width="1024" height="680" fill="#484b4f" />
<g transform="scale(4.000000) translate(0.5 0.5)">
<polygon fill="#000000" fill-opacity="0.501961" points="271,101 251,185 -16,161" />
<polygon fill="#7f8186" fill-opacity="0.501961" points="144,-16 271,111 -16,108" />
<polygon fill="#010a0c" fill-opacity="0.501961" points="-16,112 191,113 7,185" />
<polygon fill="#ac947a" fill-opacity="0.501961" points="120,110 20,72 205,90" />
<polygon fill="#5a5d62" fill-opacity="0.501961" points="-16,94 5,-16 271,12" />
<polygon fill="#00060a" fill-opacity="0.501961" points="160,162 2,139 -16,184" />
<polygon fill="#575c63" fill-opacity="0.501961" points="-16,18 253,-16 271,107" />
<polygon fill="#323839" fill-opacity="0.501961" points="69,113 55,161 228,110" />
<polygon fill="#00000c" fill-opacity="0.501961" points="192,185 271,185 271,101" />
<polygon fill="#4f525f" fill-opacity="0.501961" points="214,137 220,157 173,160" />
<polygon fill="#e1bb6f" fill-opacity="0.501961" points="96,88 54,77 60,89" />
<polygon fill="#717e89" fill-opacity="0.501961" points="221,109 150,90 86,111" />
<polygon fill="#0e131f" fill-opacity="0.501961" points="5,143 -16,112 98,127" />
<polygon fill="#595b5e" fill-opacity="0.501961" points="22,-5 -16,122 196,-16" />
<polygon fill="#5d6874" fill-opacity="0.501961" points="76,83 244,91 122,40" />
<polygon fill="#091317" fill-opacity="0.501961" points="-11,150 89,185 199,148" />
<polygon fill="#585b61" fill-opacity="0.501961" points="97,-11 250,110 271,36" />
<polygon fill="#837164" fill-opacity="0.501961" points="58,77 -4,70 65,100" />
<polygon fill="#69727a" fill-opacity="0.501961" points="75,89 44,111 149,107" />
<polygon fill="#a08672" fill-opacity="0.501961" points="76,97 132,78 170,96" />
<polygon fill="#2c3133" fill-opacity="0.501961" points="34,111 113,154 241,112" />
<polygon fill="#5c5d5f" fill-opacity="0.501961" points="102,131 71,131 74,139" />
<polygon fill="#b79a6e" fill-opacity="0.501961" points="50,75 65,95 77,76" />
<polygon fill="#565b60" fill-opacity="0.501961" points="204,151 219,152 198,132" />
<polygon fill="#111821" fill-opacity="0.501961" points="258,115 245,154 193,127" />
<polygon fill="#2c2f2d" fill-opacity="0.501961" points="51,154 26,136 88,139" />
<polygon fill="#00060e" fill-opacity="0.501961" points="226,145 268,161 222,185" />
<polygon fill="#71757b" fill-opacity="0.501961" points="164,111 111,98 210,92" />
<polygon fill="#cb9b6a" fill-opacity="0.501961" points="111,87 77,85 96,92" />
<polygon fill="#585e6b" fill-opacity="0.501961" points="201,28 15,53 271,86" />
<polygon fill="#6a7479" fill-opacity="0.501961" points="125,71 177,85 106,86" />
<polygon fill="#57595e" fill-opacity="0.501961" points="10,110 -16,81 57,82" />
<polygon fill="#2c2c32" fill-opacity="0.501961" points="178,152 201,185 135,137" />
<polygon fill="#565959" fill-opacity="0.501961" points="234,-16 38,0 267,55" />
<polygon fill="#656565" fill-opacity="0.501961" points="165,116 155,122 159,124" />
<polygon fill="#040c12" fill-opacity="0.501961" points="-16,148 133,163 3,185" />
<polygon fill="#5c5a5e" fill-opacity="0.501961" points="66,90 88,92 47,103" />
<polygon fill="#c0cca4" fill-opacity="0.501961" points="70,82 60,79 64,88" />
<polygon fill="#54555a" fill-opacity="0.501961" points="70,139 55,137 80,132" />
<polygon fill="#bf8563" fill-opacity="0.501961" points="48,91 60,94 42,95" />
<polygon fill="#111725" fill-opacity="0.501961" points="86,121 109,129 60,130" />
<polygon fill="#101818" fill-opacity="0.501961" points="68,161 36,168 -7,116" />
<polygon fill="#181a2a" fill-opacity="0.501961" points="229,153 207,153 187,185" />
<polygon fill="#595d66" fill-opacity="0.501961" points="-9,73 62,29 110,75" />
<polygon fill="#22292d" fill-opacity="0.501961" points="28,129 -16,106 81,124" />
<polygon fill="#6f7c85" fill-opacity="0.501961" points="63,109 140,110 101,99" />
<polygon fill="#788389" fill-opacity="0.501961" points="122,110 179,109 147,100" />
<polygon fill="#373942" fill-opacity="0.501961" points="201,144 193,130 222,143" />
<polygon fill="#19221f" fill-opacity="0.501961" points="27,149 108,153 69,137" />
<polygon fill="#7b7273" fill-opacity="0.501961" points="227,92 193,88 180,99" />
<polygon fill="#46484f" fill-opacity="0.501961" points="49,141 62,136 38,138" />
<polygon fill="#5a606d" fill-opacity="0.501961" points="216,110 265,110 225,90" />
<polygon fill="#4c5054" fill-opacity="0.501961" points="188,160 205,153 179,155" />
<polygon fill="#565a5f" fill-opacity="0.501961" points="-16,46 -7,110 40,110" />
<polygon fill="#1c2027" fill-opacity="0.501961" points="190,118 158,149 203,154" />
<polygon fill="#9d8575" fill-opacity="0.501961" points="185,91 142,97 157,86" />
<polygon fill="#2b2a3b" fill-opacity="0.501961" points="181,171 178,158 205,159" />
<polygon fill="#7c736a" fill-opacity="0.501961" points="61,89 44,73 12,73" />
<polygon fill="#4e5556" fill-opacity="0.501961" points="-16,-16 3,40 55,19" />
<polygon fill="#6e7171" fill-opacity="0.501961" points="106,71 73,84 154,84" />
<polygon fill="#383b38" fill-opacity="0.501961" points="128,124 92,112 159,115" />
<polygon fill="#5b6570" fill-opacity="0.501961" points="171,45 81,74 228,78" />
<polygon fill="#677178" fill-opacity="0.501961" points="170,100 116,96 143,107" />
<polygon fill="#9f7a67" fill-opacity="0.501961" points="112,98 80,95 103,90" />
<polygon fill="#616163" fill-opacity="0.501961" points="-5,70 56,91 29,94" />
<polygon fill="#9d7766" fill-opacity="0.501961" points="34,93 39,96 44,92" />
<polygon fill="#22282a" fill-opacity="0.501961" points="71,121 133,142 133,122" />
<polygon fill="#0b101d" fill-opacity="0.501961" points="14,139 -16,129 48,130" />
<polygon fill="#202324" fill-opacity="0.501961" points="30,138 -16,136 21,149" />
<polygon fill="#393d44" fill-opacity="0.501961" points="193,154 208,160 203,137" />
<polygon fill="#585a60" fill-opacity="0.501961" points="166,-13 254,110 271,67" />
<polygon fill="#212932" fill-opacity="0.501961" points="218,128 261,110 183,113" />
<polygon fill="#646b72" fill-opacity="0.501961" points="106,105 129,97 88,99" />
<polygon fill="#12161f" fill-opacity="0.501961" points="176,155 158,173 103,150" />
<polygon fill="#636c78" fill-opacity="0.501961" points="209,95 167,102 235,110" />
<polygon fill="#987c61" fill-opacity="0.501961" points="82,77 78,84 60,75" />
<polygon fill="#171d23" fill-opacity="0.501961" points="269,153 269,117 186,123" />
<polygon fill="#061315" fill-opacity="0.501961" points="104,161 61,155 81,145" />
<polygon fill="#221f2c" fill-opacity="0.501961" points="83,167 184,168 138,185" />
<polygon fill="#323732" fill-opacity="0.501961" points="166,134 153,121 121,134" />
<polygon fill="#292d27" fill-opacity="0.501961" points="156,144 153,155 183,155" />
<polygon fill="#393c3b" fill-opacity="0.501961" points="106,131 77,135 90,142" />
<polygon fill="#28292d" fill-opacity="0.501961" points="61,150 49,140 89,137" />
<polygon fill="#34353f" fill-opacity="0.501961" points="221,145 206,140 217,150" />
<polygon fill="#5c626d" fill-opacity="0.501961" points="12,96 89,96 42,110" />
<polygon fill="#80736b" fill-opacity="0.501961" points="107,93 81,95 93,90" />
<polygon fill="#131826" fill-opacity="0.501961" points="72,124 61,134 76,131" />
<polygon fill="#716f6c" fill-opacity="0.501961" points="97,85 75,78 115,77" />
<polygon fill="#5d6366" fill-opacity="0.501961" points="209,144 201,142 213,152" />
<polygon fill="#0e1119" fill-opacity="0.501961" points="228,163 249,148 222,144" />
<polygon fill="#a78974" fill-opacity="0.501961" points="113,87 142,95 117,95" />
<polygon fill="#4b5455" fill-opacity="0.501961" points="229,17 271,29 264,-16" />
<polygon fill="#151c21" fill-opacity="0.501961" points="138,137 121,136 122,141" />
<polygon fill="#1c2520" fill-opacity="0.501961" points="133,148 122,160 88,147" />
<polygon fill="#4f5255" fill-opacity="0.501961" points="47,137 49,140 38,140" />
<polygon fill="#424f55" fill-opacity="0.501961" points="3,111 0,106 18,109" />
<polygon fill="#535859" fill-opacity="0.501961" points="190,159 200,155 180,155" />
<polygon fill="#323738" fill-opacity="0.501961" points="116,115 47,111 83,123" />
<polygon fill="#020912" fill-opacity="0.501961" points="80,153 71,163 116,170" />
<polygon fill="#595d63" fill-opacity="0.501961" points="30,85 59,88 43,92" />
<polygon fill="#575a63" fill-opacity="0.501961" points="72,37 242,53 162,21" />
<polygon fill="#0b151d" fill-opacity="0.501961" points="151,139 171,142 159,144" />
<polygon fill="#262e3a" fill-opacity="0.501961" points="15,111 35,117 35,111" />
<polygon fill="#0d0f18" fill-opacity="0.501961" points="135,149 161,160 139,167" />
<polygon fill="#5b636e" fill-opacity="0.501961" points="86,41 168,63 81,73" />
<polygon fill="#060b1c" fill-opacity="0.501961" points="39,132 54,134 37,137" />
<polygon fill="#2f2e3b" fill-opacity="0.501961" points="183,166 195,159 167,161" />
<polygon fill="#84796a" fill-opacity="0.501961" points="58,74 48,79 44,74" />
<polygon fill="#887974" fill-opacity="0.501961" points="178,94 156,100 152,92" />
<polygon fill="#a47258" fill-opacity="0.501961" points="61,93 68,88 79,88" />
<polygon fill="#040b0f" fill-opacity="0.501961" points="11,178 32,142 2,157" />
<polygon fill="#272c2e" fill-opacity="0.501961" points="128,142 180,139 183,116" />
<polygon fill="#ba9370" fill-opacity="0.501961" points="88,85 93,91 114,87" />
<polygon fill="#272c2e" fill-opacity="0.501961" points="72,128 78,115 33,128" />
<polygon fill="#11121f" fill-opacity="0.501961" points="222,163 198,161 211,184" />
<polygon fill="#2c2e29" fill-opacity="0.501961" points="196,115 194,126 216,126" />
<polygon fill="#6e6866" fill-opacity="0.501961" points="40,77 59,82 21,83" />
<polygon fill="#2f343b" fill-opacity="0.501961" points="164,117 199,111 184,123" />
<polygon fill="#c29f64" fill-opacity="0.501961" points="63,90 72,82 70,90" />
<polygon fill="#445055" fill-opacity="0.501961" points="9,20 -16,41 0,-16" />
<polygon fill="#333534" fill-opacity="0.501961" points="23,140 37,139 31,135" />
<polygon fill="#060812" fill-opacity="0.501961" points="205,127 200,130 214,131" />
<polygon fill="#ab8964" fill-opacity="0.501961" points="66,75 64,80 49,79" />
<polygon fill="#57595c" fill-opacity="0.501961" points="132,-14 52,-16 -16,85" />
<polygon fill="#181f1c" fill-opacity="0.501961" points="31,147 48,140 71,163" />
<polygon fill="#ac7b5b" fill-opacity="0.501961" points="53,85 63,90 57,84" />
<polygon fill="#384249" fill-opacity="0.501961" points="59,110 51,114 46,111" />
<polygon fill="#4e4f51" fill-opacity="0.501961" points="161,120 151,122 164,124" />
<polygon fill="#373031" fill-opacity="0.501961" points="146,140 125,140 131,148" />
<polygon fill="#363740" fill-opacity="0.501961" points="201,134 218,151 221,144" />
<polygon fill="#00000b" fill-opacity="0.501961" points="222,167 231,176 243,163" />
<polygon fill="#8a7b6b" fill-opacity="0.501961" points="34,76 26,79 40,80" />
<polygon fill="#948477" fill-opacity="0.501961" points="165,85 108,89 153,98" />
<polygon fill="#494e4d" fill-opacity="0.501961" points="86,131 100,133 91,137" />
<polygon fill="#171d25" fill-opacity="0.501961" points="-3,113 25,115 9,139" />
<polygon fill="#292c37" fill-opacity="0.501961" points="219,163 220,155 193,150" />
<polygon fill="#221f2e" fill-opacity="0.501961" points="166,161 245,182 83,185" />
<polygon fill="#393c42" fill-opacity="0.501961" points="197,132 203,144 206,135" />
<polygon fill="#778185" fill-opacity="0.501961" points="148,109 107,110 135,100" />
<polygon fill="#646260" fill-opacity="0.501961" points="86,90 81,94 68,90" />
<polygon fill="#0c141d" fill-opacity="0.501961" points="245,135 222,130 265,127" />
<polygon fill="#272c28" fill-opacity="0.501961" points="92,135 101,151 124,149" />
<polygon fill="#5a5c67" fill-opacity="0.501961" points="242,63 197,46 242,111" />
<polygon fill="#1d222a" fill-opacity="0.501961" points="261,111 271,125 214,122" />
<polygon fill="#696867" fill-opacity="0.501961" points="9,72 36,71 18,79" />
<polygon fill="#575c5d" fill-opacity="0.501961" points="93,131 80,135 82,131" />
<polygon fill="#71706e" fill-opacity="0.501961" points="75,135 76,138 73,137" />
<polygon fill="#6f7b80" fill-opacity="0.501961" points="159,101 195,109 155,111" />
<polygon fill="#020b11" fill-opacity="0.501961" points="43,169 49,157 73,167" />
<polygon fill="#72787a" fill-opacity="0.501961" points="144,78 104,78 127,85" />
<polygon fill="#58595b" fill-opacity="0.501961" points="206,23 58,12 203,-16" />
<polygon fill="#626b76" fill-opacity="0.501961" points="29,107 66,109 59,100" />
<polygon fill="#223644" fill-opacity="0.501961" points="184,111 205,111 191,115" />
<polygon fill="#2b2f30" fill-opacity="0.501961" points="117,122 165,116 99,145" />
<polygon fill="#636c74" fill-opacity="0.501961" points="119,76 169,71 200,90" />
<polygon fill="#575a62" fill-opacity="0.501961" points="69,75 51,28 9,46" />
<polygon fill="#161a2a" fill-opacity="0.501961" points="108,125 106,131 93,129" />
<polygon fill="#1a1720" fill-opacity="0.501961" points="224,143 219,156 241,139" />
<polygon fill="#626165" fill-opacity="0.501961" points="43,100 28,94 51,95" />
<polygon fill="#131620" fill-opacity="0.501961" points="219,136 211,139 203,131" />
<polygon fill="#373a39" fill-opacity="0.501961" points="132,122 118,112 159,117" />
<polygon fill="#807363" fill-opacity="0.501961" points="70,80 82,77 85,85" />
<polygon fill="#b0926f" fill-opacity="0.501961" points="68,78 68,75 78,77" />
<polygon fill="#222427" fill-opacity="0.501961" points="42,142 41,150 67,139" />
<polygon fill="#0d1515" fill-opacity="0.501961" points="13,148 37,181 38,144" />
<polygon fill="#22262b" fill-opacity="0.501961" points="56,113 11,117 44,123" />
<polygon fill="#1a1b1e" fill-opacity="0.501961" points="198,146 177,146 168,155" />
<polygon fill="#575b5b" fill-opacity="0.501961" points="210,152 216,147 214,153" />
<polygon fill="#6f7274" fill-opacity="0.501961" points="155,86 144,77 173,87" />
<polygon fill="#ac8970" fill-opacity="0.501961" points="122,96 111,92 133,92" />
<polygon fill="#595e67" fill-opacity="0.501961" points="86,75 86,38 43,73" />
<polygon fill="#3b454d" fill-opacity="0.501961" points="70,110 64,113 60,110" />
<polygon fill="#66727a" fill-opacity="0.501961" points="72,110 87,111 94,101" />
<polygon fill="#b5896e" fill-opacity="0.501961" points="103,97 109,95 98,95" />
<polygon fill="#827875" fill-opacity="0.501961" points="175,98 207,92 184,90" />
<polygon fill="#2a2e2e" fill-opacity="0.501961" points="80,136 73,147 58,147" />
<polygon fill="#101d1a" fill-opacity="0.501961" points="80,156 103,152 75,145" />
<polygon fill="#302e39" fill-opacity="0.501961" points="158,183 130,167 184,174" />
<polygon fill="#b08e72" fill-opacity="0.501961" points="169,92 172,89 164,90" />
<polygon fill="#5c6671" fill-opacity="0.501961" points="138,55 114,69 195,82" />
<polygon fill="#181c24" fill-opacity="0.501961" points="94,166 106,185 76,168" />
<polygon fill="#292f27" fill-opacity="0.501961" points="176,150 163,158 161,148" />
<polygon fill="#353734" fill-opacity="0.501961" points="85,132 90,136 79,142" />
<polygon fill="#2b2e23" fill-opacity="0.501961" points="96,140 77,142 100,148" />
<polygon fill="#12141c" fill-opacity="0.501961" points="158,163 145,144 137,165" />
<polygon fill="#121624" fill-opacity="0.501961" points="71,133 53,135 65,129" />
<polygon fill="#111b1f" fill-opacity="0.501961" points="242,162 225,160 222,153" />
<polygon fill="#57595c" fill-opacity="0.501961" points="246,90 253,45 266,129" />
<polygon fill="#666a73" fill-opacity="0.501961" points="107,101 83,97 66,106" />
<polygon fill="#1e1f24" fill-opacity="0.501961" points="246,141 211,128 223,144" />
<polygon fill="#bfc4a9" fill-opacity="0.501961" points="66,83 65,85 60,85" />
<polygon fill="#6b767b" fill-opacity="0.501961" points="124,97 144,105 103,105" />
<polygon fill="#6d6866" fill-opacity="0.501961" points="59,88 46,80 28,83" />
<polygon fill="#1c2429" fill-opacity="0.501961" points="176,134 152,134 149,144" />
<polygon fill="#232025" fill-opacity="0.501961" points="124,145 146,145 124,153" />
<polygon fill="#767e83" fill-opacity="0.501961" points="118,110 85,110 105,104" />
<polygon fill="#474a4e" fill-opacity="0.501961" points="58,139 69,136 56,135" />
<polygon fill="#58595e" fill-opacity="0.501961" points="110,30 46,33 98,6" />
<polygon fill="#595a5c" fill-opacity="0.501961" points="-16,120 26,88 -16,63" />
<polygon fill="#5b606b" fill-opacity="0.501961" points="205,55 227,90 198,90" />
<polygon fill="#aa886d" fill-opacity="0.501961" points="93,88 111,88 104,92" />
<polygon fill="#000810" fill-opacity="0.501961" points="271,138 250,181 251,154" />
<polygon fill="#3b3c3c" fill-opacity="0.501961" points="87,116 106,115 98,119" />
<polygon fill="#06131c" fill-opacity="0.501961" points="90,150 80,174 92,162" />
<polygon fill="#bf9a67" fill-opacity="0.501961" points="96,86 77,87 88,90" />
<polygon fill="#30343e" fill-opacity="0.501961" points="208,155 206,160 190,159" />
<polygon fill="#525759" fill-opacity="0.501961" points="194,-16 271,73 245,2" />
<polygon fill="#2e3232" fill-opacity="0.501961" points="160,124 150,134 120,120" />
<polygon fill="#6c6664" fill-opacity="0.501961" points="90,92 76,89 85,94" />
<polygon fill="#0a0f1d" fill-opacity="0.501961" points="22,142 28,132 12,134" />
<polygon fill="#0c121c" fill-opacity="0.501961" points="-14,127 9,130 -16,155" />
<polygon fill="#222524" fill-opacity="0.501961" points="9,141 -11,145 11,133" />
<polygon fill="#6e6d68" fill-opacity="0.501961" points="77,78 86,84 93,76" />
<polygon fill="#7b7c7a" fill-opacity="0.501961" points="118,87 132,81 149,86" />
<polygon fill="#081c1a" fill-opacity="0.501961" points="112,159 109,153 114,150" />
<polygon fill="#2b3232" fill-opacity="0.501961" points="202,143 210,139 196,140" />
<polygon fill="#966e5c" fill-opacity="0.501961" points="59,88 62,91 61,93" />
<polygon fill="#595c65" fill-opacity="0.501961" points="23,85 29,109 7,107" />
<polygon fill="#43474b" fill-opacity="0.501961" points="43,141 50,138 37,139" />
<polygon fill="#5c5f68" fill-opacity="0.501961" points="224,78 252,109 233,109" />
<polygon fill="#444446" fill-opacity="0.501961" points="175,117 182,116 174,115" />
<polygon fill="#131f1e" fill-opacity="0.501961" points="71,151 94,152 85,143" />
<polygon fill="#535859" fill-opacity="0.501961" points="-16,89 24,-16 42,9" />
<polygon fill="#54595a" fill-opacity="0.501961" points="81,134 82,131 71,134" />
<polygon fill="#33333f" fill-opacity="0.501961" points="213,154 196,148 190,153" />
<polygon fill="#7a8185" fill-opacity="0.501961" points="124,110 144,103 168,110" />
<polygon fill="#2a2f2f" fill-opacity="0.501961" points="122,150 127,126 114,143" />
<polygon fill="#a6826b" fill-opacity="0.501961" points="85,95 96,94 94,98" />
<polygon fill="#0d1320" fill-opacity="0.501961" points="44,135 57,135 49,128" />
<polygon fill="#242831" fill-opacity="0.501961" points="179,158 181,161 187,158" />
<polygon fill="#282c2f" fill-opacity="0.501961" points="177,120 162,114 177,135" />
<polygon fill="#877a6b" fill-opacity="0.501961" points="35,75 47,79 55,76" />
<polygon fill="#2e332f" fill-opacity="0.501961" points="95,140 103,141 89,150" />
<polygon fill="#2e3430" fill-opacity="0.501961" points="170,132 124,135 143,123" />
<polygon fill="#ab7e68" fill-opacity="0.501961" points="47,94 44,92 41,94" />
<polygon fill="#bea166" fill-opacity="0.501961" points="68,81 82,88 70,88" />
<polygon fill="#30323a" fill-opacity="0.501961" points="225,148 213,147 205,139" />
<polygon fill="#040a0f" fill-opacity="0.501961" points="31,155 -8,149 -16,171" />
<polygon fill="#272822" fill-opacity="0.501961" points="210,134 214,126 218,131" />
<polygon fill="#0f1917" fill-opacity="0.501961" points="31,140 56,158 19,149" />
<polygon fill="#2c2e33" fill-opacity="0.501961" points="76,136 79,135 84,140" />
<polygon fill="#636a78" fill-opacity="0.501961" points="223,107 210,110 193,99" />
<polygon fill="#171a1b" fill-opacity="0.501961" points="188,134 183,127 191,131" />
<polygon fill="#010b0f" fill-opacity="0.501961" points="105,174 107,162 101,153" />
<polygon fill="#3c3c39" fill-opacity="0.501961" points="72,116 86,116 78,119" />
<polygon fill="#a58261" fill-opacity="0.501961" points="52,84 60,83 56,85" />
<polygon fill="#404848" fill-opacity="0.501961" points="199,145 204,139 205,146" />
<polygon fill="#0d1216" fill-opacity="0.501961" points="267,161 255,146 224,143" />
<polygon fill="#272a30" fill-opacity="0.501961" points="55,144 79,142 70,137" />
<polygon fill="#2d2b2a" fill-opacity="0.501961" points="179,132 184,126 194,127" />
</g>
</svg>