<svg xmlns="http://www.w3.org/2000/svg" version="1.1" width="1024" height="680">
<rect x="0" y="0" width="1024" height="680" fill="#484b4f" />
<g transform="scale(4.000000) translate(0.5 0.5)">
<polygon fill="#000000" fill-opacity="0.501961" points="-16,160 252,185 268,103" />
<polygon fill="#7f8186" fill-opacity="0.501961" points="144,-16 271,111 -16,108" />
<polygon fill="#010b0d" fill-opacity="0.501961" points="198,113 7,185 -16,112" />
<polygon fill="#a9937b" fill-opacity="0.501961" points="20,72 210,90 119,111" />
<polygon fill="#5a5d63" fill-opacity="0.501961" points="-16,93 11,-16 271,17" />
<polygon fill="#00080c" fill-opacity="0.501961" points="-4,137 172,160 0,185" />
<polygon fill="#575c63" fill-opacity="0.501961" points="-16,9 254,-16 271,115" />
<polygon fill="#313637" fill-opacity="0.501961" points="52,113 59,161 225,110" />
<polygon fill="#00000c" fill-opacity="0.501961" points="255,118 192,185 268,184" />
<polygon fill="#535663" fill-opacity="0.501961" points="221,151 212,137 172,164" />
<polygon fill="#d8ad69" fill-opacity="0.501961" points="58,90 57,76 106,90" />
<polygon fill="#707a85" fill-opacity="0.501961" points="100,110 199,84 214,111" />
<polygon fill="#0e121e" fill-opacity="0.501961" points="102,127 -3,143 -15,112" />
<polygon fill="#5a5b5f" fill-opacity="0.501961" points="2,110 198,-16 -16,38" />
<polygon fill="#575a5f" fill-opacity="0.501961" points="236,-16 98,-2 271,115" />
<polygon fill="#5b6673" fill-opacity="0.501961" points="78,85 91,37 263,85" />
<polygon fill="#697884" fill-opacity="0.501961" points="90,96 39,110 140,110" />
<polygon fill="#061013" fill-opacity="0.501961" points="161,151 -16,149 30,185" />
<polygon fill="#57585a" fill-opacity="0.501961" points="94,129 89,139 60,136" />
<polygon fill="#807064" fill-opacity="0.501961" points="53,75 69,100 -5,70" />
<polygon fill="#2d3234" fill-opacity="0.501961" points="85,111 104,154 235,111" />
<polygon fill="#a08674" fill-opacity="0.501961" points="81,98 128,80 173,93" />
<polygon fill="#111822" fill-opacity="0.501961" points="271,112 196,128 233,151" />
<polygon fill="#6c7a82" fill-opacity="0.501961" points="176,109 120,95 65,111" />
<polygon fill="#44484f" fill-opacity="0.501961" points="221,142 193,131 216,160" />
<polygon fill="#697074" fill-opacity="0.501961" points="132,66 200,88 73,83" />
<polygon fill="#b8a277" fill-opacity="0.501961" points="53,76 79,75 63,87" />
<polygon fill="#2c2f2c" fill-opacity="0.501961" points="99,138 33,137 45,156" />
<polygon fill="#7d6960" fill-opacity="0.501961" points="92,101 83,88 39,93" />
<polygon fill="#595f6b" fill-opacity="0.501961" points="13,55 267,94 227,31" />
<polygon fill="#53575c" fill-opacity="0.501961" points="-7,110 -16,47 40,109" />
<polygon fill="#000810" fill-opacity="0.501961" points="237,185 271,155 218,149" />
<polygon fill="#222233" fill-opacity="0.501961" points="231,154 180,185 152,162" />
<polygon fill="#565959" fill-opacity="0.501961" points="230,-16 271,55 -10,3" />
<polygon fill="#656565" fill-opacity="0.501961" points="154,122 162,118 161,124" />
<polygon fill="#c3cea8" fill-opacity="0.501961" points="59,80 67,87 69,81" />
<polygon fill="#c6956e" fill-opacity="0.501961" points="97,92 119,86 90,86" />
<polygon fill="#44494f" fill-opacity="0.501961" points="177,156 198,162 212,154" />
<polygon fill="#12181d" fill-opacity="0.501961" points="150,148 179,179 74,148" />
<polygon fill="#57616b" fill-opacity="0.501961" points="41,103 77,103 80,89" />
<polygon fill="#232d38" fill-opacity="0.501961" points="176,110 262,110 221,123" />
<polygon fill="#b48363" fill-opacity="0.501961" points="70,88 45,94 58,95" />
<polygon fill="#171a27" fill-opacity="0.501961" points="87,121 122,130 89,131" />
<polygon fill="#262c32" fill-opacity="0.501961" points="-2,111 88,112 43,129" />
<polygon fill="#666e76" fill-opacity="0.501961" points="118,109 77,98 148,97" />
<polygon fill="#95795e" fill-opacity="0.501961" points="85,85 81,75 55,76" />
<polygon fill="#13191c" fill-opacity="0.501961" points="-16,136 12,120 59,160" />
<polygon fill="#5c6263" fill-opacity="0.501961" points="219,153 207,151 202,139" />
<polygon fill="#757e83" fill-opacity="0.501961" points="103,109 152,96 198,110" />
<polygon fill="#7c7170" fill-opacity="0.501961" points="226,93 189,88 159,102" />
<polygon fill="#5b5d61" fill-opacity="0.501961" points="62,92 26,88 47,79" />
<polygon fill="#1d2127" fill-opacity="0.501961" points="146,155 202,153 191,120" />
<polygon fill="#575c63" fill-opacity="0.501961" points="91,75 110,9 -16,69" />
<polygon fill="#040c13" fill-opacity="0.501961" points="139,163 26,175 75,151" />
<polygon fill="#9b8374" fill-opacity="0.501961" points="189,90 166,98 136,87" />
<polygon fill="#393f3e" fill-opacity="0.501961" points="134,123 94,110 153,112" />
<polygon fill="#0e0e1b" fill-opacity="0.501961" points="194,159 227,166 218,185" />
<polygon fill="#292e2b" fill-opacity="0.501961" points="73,139 154,125 124,158" />
<polygon fill="#5d5f62" fill-opacity="0.501961" points="73,132 72,137 82,130" />
<polygon fill="#867769" fill-opacity="0.501961" points="21,78 46,74 63,83" />
<polygon fill="#575a61" fill-opacity="0.501961" points="271,108 232,19 228,111" />
<polygon fill="#515159" fill-opacity="0.501961" points="52,136 36,139 48,140" />
<polygon fill="#5d6772" fill-opacity="0.501961" points="153,49 221,92 101,67" />
<polygon fill="#4d5555" fill-opacity="0.501961" points="-16,-15 -16,69 37,13" />
<polygon fill="#292832" fill-opacity="0.501961" points="220,138 208,139 226,160" />
<polygon fill="#01080d" fill-opacity="0.501961" points="9,149 47,185 -16,169" />
<polygon fill="#4d5150" fill-opacity="0.501961" points="75,131 92,136 105,131" />
<polygon fill="#ccae68" fill-opacity="0.501961" points="69,83 84,86 81,89" />
<polygon fill="#9f7f6c" fill-opacity="0.501961" points="119,98 82,95 120,88" />
<polygon fill="#54575b" fill-opacity="0.501961" points="199,158 193,153 179,156" />
<polygon fill="#5e6673" fill-opacity="0.501961" points="248,109 219,91 194,111" />
<polygon fill="#2f2f3a" fill-opacity="0.501961" points="206,157 166,160 186,166" />
<polygon fill="#0f1b19" fill-opacity="0.501961" points="102,156 51,156 84,142" />
<polygon fill="#171e26" fill-opacity="0.501961" points="248,147 206,120 268,114" />
<polygon fill="#737778" fill-opacity="0.501961" points="156,82 123,87 91,74" />
<polygon fill="#697177" fill-opacity="0.501961" points="160,106 178,97 129,99" />
<polygon fill="#262834" fill-opacity="0.501961" points="203,160 218,155 203,152" />
<polygon fill="#565d64" fill-opacity="0.501961" points="73,91 64,97 88,92" />
<polygon fill="#212326" fill-opacity="0.501961" points="-11,139 32,136 19,147" />
<polygon fill="#0a101d" fill-opacity="0.501961" points="-12,129 17,139 48,130" />
<polygon fill="#585b63" fill-opacity="0.501961" points="238,46 129,14 45,43" />
<polygon fill="#292d2d" fill-opacity="0.501961" points="168,157 99,122 139,119" />
<polygon fill="#2e3435" fill-opacity="0.501961" points="116,113 54,112 62,127" />
<polygon fill="#3a3d43" fill-opacity="0.501961" points="200,135 209,134 196,157" />
<polygon fill="#303533" fill-opacity="0.501961" points="133,134 183,134 138,115" />
<polygon fill="#5b5c5f" fill-opacity="0.501961" points="-15,70 -16,99 52,89" />
<polygon fill="#151820" fill-opacity="0.501961" points="187,153 160,141 199,141" />
<polygon fill="#2c2734" fill-opacity="0.501961" points="133,185 32,183 92,167" />
<polygon fill="#151927" fill-opacity="0.501961" points="88,129 71,124 49,136" />
<polygon fill="#997464" fill-opacity="0.501961" points="34,96 44,94 34,93" />
<polygon fill="#5a606b" fill-opacity="0.501961" points="14,107 55,110 26,88" />
<polygon fill="#4b4c52" fill-opacity="0.501961" points="69,134 69,138 54,137" />
<polygon fill="#151c23" fill-opacity="0.501961" points="116,136 136,137 125,141" />
<polygon fill="#c1a56f" fill-opacity="0.501961" points="66,90 85,84 52,84" />
<polygon fill="#726560" fill-opacity="0.501961" points="55,82 39,79 61,91" />
<polygon fill="#17171d" fill-opacity="0.501961" points="214,127 184,122 232,147" />
<polygon fill="#0e131b" fill-opacity="0.501961" points="152,164 180,155 125,156" />
<polygon fill="#1c2227" fill-opacity="0.501961" points="-11,113 35,134 35,114" />
<polygon fill="#4d5556" fill-opacity="0.501961" points="229,28 236,-16 271,25" />
<polygon fill="#b28d72" fill-opacity="0.501961" points="136,93 115,92 123,96" />
<polygon fill="#22282a" fill-opacity="0.501961" points="88,125 38,113 18,129" />
<polygon fill="#0e1716" fill-opacity="0.501961" points="72,161 27,144 23,167" />
<polygon fill="#be986b" fill-opacity="0.501961" points="106,85 92,91 74,85" />
<polygon fill="#373c3c" fill-opacity="0.501961" points="96,140 89,141 85,133" />
<polygon fill="#737d83" fill-opacity="0.501961" points="114,111 85,109 115,103" />
<polygon fill="#57595b" fill-opacity="0.501961" points="6,48 216,3 26,-16" />
<polygon fill="#706c67" fill-opacity="0.501961" points="88,73 73,84 101,82" />
<polygon fill="#a98864" fill-opacity="0.501961" points="60,78 45,76 57,81" />
<polygon fill="#0a0f16" fill-opacity="0.501961" points="223,145 264,148 220,170" />
<polygon fill="#141f1c" fill-opacity="0.501961" points="137,151 122,160 89,150" />
<polygon fill="#202326" fill-opacity="0.501961" points="69,138 70,151 35,143" />
<polygon fill="#847369" fill-opacity="0.501961" points="92,96 109,92 89,91" />
<polygon fill="#5b626d" fill-opacity="0.501961" points="74,40 86,77 211,59" />
<polygon fill="#22262a" fill-opacity="0.501961" points="214,132 256,114 198,116" />
<polygon fill="#0c0f19" fill-opacity="0.501961" points="144,167 119,165 147,144" />
<polygon fill="#948478" fill-opacity="0.501961" points="118,87 154,99 160,86" />
<polygon fill="#333434" fill-opacity="0.501961" points="32,134 44,141 26,139" />
<polygon fill="#00000a" fill-opacity="0.501961" points="222,166 241,162 242,175" />
<polygon fill="#0c111f" fill-opacity="0.501961" points="48,137 61,131 32,133" />
<polygon fill="#353936" fill-opacity="0.501961" points="124,120 72,121 96,113" />
<polygon fill="#babe9b" fill-opacity="0.501961" points="60,83 65,88 68,81" />
<polygon fill="#33444d" fill-opacity="0.501961" points="12,109 -9,107 -10,113" />
<polygon fill="#121820" fill-opacity="0.501961" points="208,137 253,138 271,117" />
<polygon fill="#2b3026" fill-opacity="0.501961" points="171,149 154,152 163,158" />
<polygon fill="#262c2d" fill-opacity="0.501961" points="188,142 153,138 164,120" />
<polygon fill="#4b4c4d" fill-opacity="0.501961" points="164,124 155,120 163,117" />
<polygon fill="#696767" fill-opacity="0.501961" points="37,86 28,80 57,82" />
<polygon fill="#393033" fill-opacity="0.501961" points="147,141 130,140 132,148" />
<polygon fill="#7b8387" fill-opacity="0.501961" points="152,103 166,110 135,109" />
<polygon fill="#616974" fill-opacity="0.501961" points="23,108 64,107 52,98" />
<polygon fill="#6d6a6f" fill-opacity="0.501961" points="210,90 191,101 235,93" />
<polygon fill="#656566" fill-opacity="0.501961" points="35,71 1,72 9,81" />
<polygon fill="#202126" fill-opacity="0.501961" points="248,142 221,142 212,129" />
<polygon fill="#3d484e" fill-opacity="0.501961" points="51,113 43,109 29,113" />
<polygon fill="#626a71" fill-opacity="0.501961" points="164,85 170,71 206,90" />
<polygon fill="#585b61" fill-opacity="0.501961" points="132,21 3,73 72,10" />
<polygon fill="#877973" fill-opacity="0.501961" points="158,99 179,92 153,93" />
<polygon fill="#545b5e" fill-opacity="0.501961" points="207,142 213,150 199,144" />
<polygon fill="#636363" fill-opacity="0.501961" points="77,138 71,135 71,137" />
<polygon fill="#282c37" fill-opacity="0.501961" points="223,156 197,163 209,154" />
<polygon fill="#a7775c" fill-opacity="0.501961" points="62,93 69,89 63,89" />
<polygon fill="#272a31" fill-opacity="0.501961" points="71,134 70,144 66,142" />
<polygon fill="#5a5c67" fill-opacity="0.501961" points="159,25 241,62 246,109" />
<polygon fill="#57595e" fill-opacity="0.501961" points="271,67 212,19 256,110" />
<polygon fill="#444346" fill-opacity="0.501961" points="183,115 174,118 175,115" />
<polygon fill="#73706a" fill-opacity="0.501961" points="107,86 88,75 72,80" />
<polygon fill="#ad8660" fill-opacity="0.501961" points="56,86 51,84 61,83" />
<polygon fill="#ac8d72" fill-opacity="0.501961" points="162,89 167,92 175,90" />
<polygon fill="#636a75" fill-opacity="0.501961" points="222,110 180,100 212,95" />
<polygon fill="#5e686f" fill-opacity="0.501961" points="132,61 77,75 121,77" />
<polygon fill="#455157" fill-opacity="0.501961" points="-4,-16 -14,57 9,15" />
<polygon fill="#241f2e" fill-opacity="0.501961" points="138,168 139,185 177,163" />
<polygon fill="#050b18" fill-opacity="0.501961" points="201,129 211,130 202,133" />
<polygon fill="#636870" fill-opacity="0.501961" points="43,110 71,96 98,99" />
<polygon fill="#010710" fill-opacity="0.501961" points="88,156 40,174 58,185" />
<polygon fill="#121723" fill-opacity="0.501961" points="70,133 55,127 32,137" />
<polygon fill="#131920" fill-opacity="0.501961" points="50,171 57,185 93,166" />
<polygon fill="#0d181f" fill-opacity="0.501961" points="152,139 163,144 155,143" />
<polygon fill="#697177" fill-opacity="0.501961" points="118,78 145,73 174,87" />
<polygon fill="#161621" fill-opacity="0.501961" points="211,159 231,185 172,181" />
<polygon fill="#292d2d" fill-opacity="0.501961" points="214,113 201,126 189,117" />
<polygon fill="#2a2f33" fill-opacity="0.501961" points="81,138 80,134 75,135" />
<polygon fill="#b69371" fill-opacity="0.501961" points="99,90 85,85 113,87" />
<polygon fill="#5e5f66" fill-opacity="0.501961" points="49,104 20,94 51,95" />
<polygon fill="#22262a" fill-opacity="0.501961" points="169,137 172,148 208,141" />
<polygon fill="#2f303d" fill-opacity="0.501961" points="203,154 201,145 186,154" />
<polygon fill="#242a2e" fill-opacity="0.501961" points="126,121 118,154 97,121" />
<polygon fill="#595c66" fill-opacity="0.501961" points="47,42 108,38 26,72" />
<polygon fill="#a5896b" fill-opacity="0.501961" points="79,76 78,81 63,76" />
<polygon fill="#3a3d44" fill-opacity="0.501961" points="204,145 204,135 195,131" />
<polygon fill="#212424" fill-opacity="0.501961" points="-4,142 9,143 12,132" />
<polygon fill="#a87e66" fill-opacity="0.501961" points="44,94 58,93 48,91" />
<polygon fill="#252b30" fill-opacity="0.501961" points="59,121 37,127 74,129" />
<polygon fill="#283c4a" fill-opacity="0.501961" points="191,115 184,112 202,112" />
<polygon fill="#363837" fill-opacity="0.501961" points="161,115 115,114 133,123" />
<polygon fill="#363b3b" fill-opacity="0.501961" points="85,141 105,133 87,134" />
<polygon fill="#1b2a1d" fill-opacity="0.501961" points="102,146 82,151 108,152" />
<polygon fill="#2b2c33" fill-opacity="0.501961" points="180,123 162,121 198,114" />
<polygon fill="#3f4146" fill-opacity="0.501961" points="54,139 58,136 47,137" />
<polygon fill="#0f161c" fill-opacity="0.501961" points="243,164 224,158 224,147" />
<polygon fill="#1b2019" fill-opacity="0.501961" points="62,157 61,163 69,160" />
<polygon fill="#bda268" fill-opacity="0.501961" points="67,87 69,81 90,89" />
<polygon fill="#6c6764" fill-opacity="0.501961" points="45,86 58,82 38,79" />
<polygon fill="#58595d" fill-opacity="0.501961" points="171,-16 233,38 104,15" />
<polygon fill="#6f6665" fill-opacity="0.501961" points="81,90 90,90 90,94" />
<polygon fill="#7a7b7a" fill-opacity="0.501961" points="134,81 155,86 122,87" />
<polygon fill="#2b312e" fill-opacity="0.501961" points="133,132 89,148 111,130" />
<polygon fill="#53575b" fill-opacity="0.501961" points="217,149 216,153 204,144" />
<polygon fill="#a2806a" fill-opacity="0.501961" points="85,95 101,92 94,97" />
<polygon fill="#6f7070" fill-opacity="0.501961" points="124,76 100,85 77,78" />
<polygon fill="#57595e" fill-opacity="0.501961" points="70,22 -16,91 19,40" />
<polygon fill="#9a7868" fill-opacity="0.501961" points="42,92 47,94 34,95" />
<polygon fill="#03070f" fill-opacity="0.501961" points="230,151 259,158 263,176" />
<polygon fill="#0a1718" fill-opacity="0.501961" points="118,159 74,145 90,158" />
<polygon fill="#a8836e" fill-opacity="0.501961" points="114,94 98,95 103,98" />
<polygon fill="#827673" fill-opacity="0.501961" points="214,91 202,94 194,90" />
<polygon fill="#0b1111" fill-opacity="0.501961" points="33,139 17,152 26,154" />
<polygon fill="#847b72" fill-opacity="0.501961" points="113,95 114,91 100,92" />
<polygon fill="#5a616d" fill-opacity="0.501961" points="204,56 137,43 228,90" />
<polygon fill="#171e2a" fill-opacity="0.501961" points="108,130 68,130 83,122" />
<polygon fill="#6c747b" fill-opacity="0.501961" points="175,100 129,97 144,108" />
<polygon fill="#a4866e" fill-opacity="0.501961" points="110,88 113,92 97,89" />
<polygon fill="#0f191b" fill-opacity="0.501961" points="139,157 109,164 120,154" />
<polygon fill="#68727b" fill-opacity="0.501961" points="176,97 217,108 192,110" />
<polygon fill="#6b737d" fill-opacity="0.501961" points="84,103 59,107 72,110" />
<polygon fill="#5b5d63" fill-opacity="0.501961" points="36,85 16,91 51,92" />
<polygon fill="#707576" fill-opacity="0.501961" points="134,79 116,86 105,78" />
<polygon fill="#6a6f75" fill-opacity="0.501961" points="116,104 126,96 92,101" />
<polygon fill="#1a251c" fill-opacity="0.501961" points="68,150 32,151 51,145" />
<polygon fill="#515758" fill-opacity="0.501961" points="44,24 -16,49 29,-16" />
<polygon fill="#1c2129" fill-opacity="0.501961" points="216,122 271,125 262,111" />
<polygon fill="#010b0f" fill-opacity="0.501961" points="106,185 101,152 114,176" />
<polygon fill="#636062" fill-opacity="0.501961" points="54,88 62,93 52,91" />
<polygon fill="#262630" fill-opacity="0.501961" points="121,167 109,181 150,169" />
<polygon fill="#7e746b" fill-opacity="0.501961" points="58,75 40,82 21,77" />
<polygon fill="#5e6973" fill-opacity="0.501961" points="181,82 141,61 114,73" />
<polygon fill="#2d2c35" fill-opacity="0.501961" points="192,178 178,157 191,160" />
<polygon fill="#3c464d" fill-opacity="0.501961" points="65,110 84,111 73,114" />
<polygon fill="#0f161e" fill-opacity="0.501961" points="266,128 215,128 266,142" />
<polygon fill="#0d1317" fill-opacity="0.501961" points="191,130 186,130 189,134" />
<polygon fill="#4c4f51" fill-opacity="0.501961" points="87,130 83,134 79,130" />
<polygon fill="#798387" fill-opacity="0.501961" points="106,110 124,104 145,110" />
<polygon fill="#5c5f69" fill-opacity="0.501961" points="226,79 227,105 254,109" />
<polygon fill="#383740" fill-opacity="0.501961" points="220,143 219,151 213,141" />
<polygon fill="#232026" fill-opacity="0.501961" points="136,145 144,147 146,152" />
<polygon fill="#4b4f53" fill-opacity="0.501961" points="176,154 192,159 200,154" />
<polygon fill="#485257" fill-opacity="0.501961" points="240,-16 271,73 271,14" />
<polygon fill="#10121b" fill-opacity="0.501961" points="140,166 145,146 156,163" />
<polygon fill="#272a2b" fill-opacity="0.501961" points="76,148 70,137 46,145" />
<polygon fill="#27292c" fill-opacity="0.501961" points="174,121 192,127 174,136" />
<polygon fill="#595e61" fill-opacity="0.501961" points="83,132 82,136 79,133" />
<polygon fill="#181b1c" fill-opacity="0.501961" points="178,153 183,142 184,155" />
<polygon fill="#6c6866" fill-opacity="0.501961" points="32,83 15,71 14,81" />
<polygon fill="#333835" fill-opacity="0.501961" points="87,123 100,115 69,117" />
<polygon fill="#1c2127" fill-opacity="0.501961" points="13,115 16,129 53,123" />
<polygon fill="#0e1620" fill-opacity="0.501961" points="-16,127 -12,116 16,124" />
<polygon fill="#161a27" fill-opacity="0.501961" points="60,136 62,129 70,132" />
<polygon fill="#56595c" fill-opacity="0.501961" points="-16,71 -16,106 24,109" />
<polygon fill="#2a2c37" fill-opacity="0.501961" points="215,158 219,147 218,159" />
<polygon fill="#4a4d50" fill-opacity="0.501961" points="70,135 72,131 76,131" />
<polygon fill="#2d332a" fill-opacity="0.501961" points="175,149 160,149 165,153" />
<polygon fill="#121a18" fill-opacity="0.501961" points="22,140 28,151 4,146" />
<polygon fill="#837464" fill-opacity="0.501961" points="83,82 77,78 72,84" />
<polygon fill="#383b43" fill-opacity="0.501961" points="198,156 206,160 211,156" />
<polygon fill="#585b63" fill-opacity="0.501961" points="149,29 249,71 198,22" />
<polygon fill="#1b1d22" fill-opacity="0.501961" points="129,144 116,156 132,154" />
<polygon fill="#27302c" fill-opacity="0.501961" points="98,127 65,118 99,118" />
<polygon fill="#111521" fill-opacity="0.501961" points="184,124 194,126 191,123" />
<polygon fill="#2f3332" fill-opacity="0.501961" points="150,122 170,133 130,131" />
<polygon fill="#585a5b" fill-opacity="0.501961" points="21,-16 112,8 68,30" />
</g>
</svg>