<svg xmlns="http://www.w3.org/2000/svg" version="1.1" width="1024" height="680">
<rect x="0" y="0" width="1024" height="680" fill="#484b4f" />
<g transform="scale(4.000000) translate(0.5 0.5)">
<polygon fill="#000000" fill-opacity="0.501961" points="251,185 -16,161 271,101" />
<polygon fill="#7f8186" fill-opacity="0.501961" points="144,-16 271,111 -16,108" />
<polygon fill="#010a0d" fill-opacity="0.501961" points="7,185 -16,112 192,113" />
<polygon fill="#a8927a" fill-opacity="0.501961" points="117,111 14,71 210,91" />
<polygon fill="#5a5d62" fill-opacity="0.501961" points="271,10 7,-16 -16,101" />
<polygon fill="#00070b" fill-opacity="0.501961" points="5,185 -15,138 173,160" />
<polygon fill="#575c63" fill-opacity="0.501961" points="271,106 -16,19 250,-16" />
<polygon fill="#323838" fill-opacity="0.501961" points="57,159 228,111 64,112" />
<polygon fill="#00000b" fill-opacity="0.501961" points="255,119 271,185 205,172" />
<polygon fill="#535763" fill-opacity="0.501961" points="218,157 213,139 176,159" />
<polygon fill="#deb46c" fill-opacity="0.501961" points="60,90 57,77 105,90" />
<polygon fill="#6a7c8a" fill-opacity="0.501961" points="187,107 73,111 131,93" />
<polygon fill="#0e131d" fill-opacity="0.501961" points="0,144 -16,112 97,127" />
<polygon fill="#585f6b" fill-opacity="0.501961" points="236,21 -16,53 271,93" />
<polygon fill="#5a5b5e" fill-opacity="0.501961" points="29,-16 -16,122 177,-9" />
<polygon fill="#727982" fill-opacity="0.501961" points="138,111 195,86 218,108" />
<polygon fill="#616c75" fill-opacity="0.501961" points="146,44 198,88 76,83" />
<polygon fill="#827165" fill-opacity="0.501961" points="-6,69 68,100 55,76" />
<polygon fill="#071114" fill-opacity="0.501961" points="-16,144 24,185 169,155" />
<polygon fill="#535457" fill-opacity="0.501961" points="83,130 57,137 99,139" />
<polygon fill="#6a7179" fill-opacity="0.501961" points="151,111 73,88 50,109" />
<polygon fill="#b2896d" fill-opacity="0.501961" points="81,97 105,85 145,95" />
<polygon fill="#4b4e56" fill-opacity="0.501961" points="221,144 193,129 212,155" />
<polygon fill="#2a3134" fill-opacity="0.501961" points="169,110 97,153 251,111" />
<polygon fill="#b7a075" fill-opacity="0.501961" points="79,76 46,75 66,87" />
<polygon fill="#111821" fill-opacity="0.501961" points="238,152 271,116 189,124" />
<polygon fill="#57585a" fill-opacity="0.501961" points="238,-16 65,-4 266,83" />
<polygon fill="#232825" fill-opacity="0.501961" points="39,142 42,159 101,136" />
<polygon fill="#54575d" fill-opacity="0.501961" points="55,81 -16,95 14,111" />
<polygon fill="#b48062" fill-opacity="0.501961" points="40,94 55,91 62,96" />
<polygon fill="#00050d" fill-opacity="0.501961" points="233,148 271,161 213,185" />
<polygon fill="#181a2b" fill-opacity="0.501961" points="228,153 204,153 196,184" />
<polygon fill="#988578" fill-opacity="0.501961" points="106,97 190,92 133,80" />
<polygon fill="#1c2026" fill-opacity="0.501961" points="102,156 203,153 194,127" />
<polygon fill="#595b65" fill-opacity="0.501961" points="271,108 203,20 226,111" />
<polygon fill="#727c82" fill-opacity="0.501961" points="160,95 174,111 103,108" />
<polygon fill="#605f5f" fill-opacity="0.501961" points="166,116 161,123 152,124" />
<polygon fill="#282d2d" fill-opacity="0.501961" points="91,120 96,153 192,135" />
<polygon fill="#59595c" fill-opacity="0.501961" points="55,103 88,91 75,89" />
<polygon fill="#6c7377" fill-opacity="0.501961" points="166,84 94,85 120,72" />
<polygon fill="#2f2e40" fill-opacity="0.501961" points="162,160 183,168 208,157" />
<polygon fill="#13191a" fill-opacity="0.501961" points="76,163 -15,113 -16,143" />
<polygon fill="#242a31" fill-opacity="0.501961" points="-10,111 65,112 64,132" />
<polygon fill="#545858" fill-opacity="0.501961" points="79,135 99,133 83,130" />
<polygon fill="#071015" fill-opacity="0.501961" points="11,170 79,145 142,166" />
<polygon fill="#505050" fill-opacity="0.501961" points="29,138 53,137 41,141" />
<polygon fill="#c4d5ad" fill-opacity="0.501961" points="69,88 63,87 65,81" />
<polygon fill="#666f77" fill-opacity="0.501961" points="68,111 77,96 125,100" />
<polygon fill="#0f131c" fill-opacity="0.501961" points="146,147 169,173 108,159" />
<polygon fill="#595f6b" fill-opacity="0.501961" points="100,33 234,64 -16,75" />
<polygon fill="#191e2a" fill-opacity="0.501961" points="89,120 55,130 125,131" />
<polygon fill="#545b5c" fill-opacity="0.501961" points="221,154 203,140 198,145" />
<polygon fill="#333735" fill-opacity="0.501961" points="147,111 73,117 162,134" />
<polygon fill="#4d5556" fill-opacity="0.501961" points="55,21 -16,-13 -3,37" />
<polygon fill="#616671" fill-opacity="0.501961" points="253,109 180,62 206,109" />
<polygon fill="#4b4f54" fill-opacity="0.501961" points="211,160 179,156 197,153" />
<polygon fill="#272932" fill-opacity="0.501961" points="216,138 214,147 207,140" />
<polygon fill="#b79270" fill-opacity="0.501961" points="93,85 121,87 96,92" />
<polygon fill="#6f6c68" fill-opacity="0.501961" points="69,80 96,73 116,86" />
<polygon fill="#575b60" fill-opacity="0.501961" points="45,111 -10,51 -16,107" />
<polygon fill="#6b7177" fill-opacity="0.501961" points="180,97 109,97 148,108" />
<polygon fill="#a57556" fill-opacity="0.501961" points="76,89 63,93 57,88" />
<polygon fill="#5f5f62" fill-opacity="0.501961" points="-6,70 61,91 18,93" />
<polygon fill="#807471" fill-opacity="0.501961" points="171,86 222,92 187,98" />
<polygon fill="#02080d" fill-opacity="0.501961" points="26,150 -16,151 9,185" />
<polygon fill="#2f312c" fill-opacity="0.501961" points="163,157 142,141 172,151" />
<polygon fill="#758085" fill-opacity="0.501961" points="144,98 183,110 100,110" />
<polygon fill="#080f1d" fill-opacity="0.501961" points="1,129 21,137 49,130" />
<polygon fill="#18251e" fill-opacity="0.501961" points="79,152 129,158 110,145" />
<polygon fill="#585a60" fill-opacity="0.501961" points="237,107 271,107 234,39" />
<polygon fill="#5c626d" fill-opacity="0.501961" points="67,95 13,97 47,111" />
<polygon fill="#282c2d" fill-opacity="0.501961" points="143,121 144,150 96,122" />
<polygon fill="#81756a" fill-opacity="0.501961" points="60,82 43,73 21,78" />
<polygon fill="#85756c" fill-opacity="0.501961" points="113,95 89,93 111,89" />
<polygon fill="#bfc6a6" fill-opacity="0.501961" points="69,80 63,86 62,80" />
<polygon fill="#21252a" fill-opacity="0.501961" points="265,121 174,131 202,111" />
<polygon fill="#0e1322" fill-opacity="0.501961" points="74,134 56,128 38,133" />
<polygon fill="#3a3d3c" fill-opacity="0.501961" points="103,131 91,142 74,136" />
<polygon fill="#1f2326" fill-opacity="0.501961" points="38,138 -16,136 14,146" />
<polygon fill="#cd905e" fill-opacity="0.501961" points="84,95 82,96 78,94" />
<polygon fill="#997666" fill-opacity="0.501961" points="35,92 51,93 37,96" />
<polygon fill="#22282a" fill-opacity="0.501961" points="26,130 17,113 85,123" />
<polygon fill="#151b22" fill-opacity="0.501961" points="189,129 249,146 257,121" />
<polygon fill="#9c8676" fill-opacity="0.501961" points="149,98 118,87 179,90" />
<polygon fill="#6d7a82" fill-opacity="0.501961" points="83,102 101,108 60,110" />
<polygon fill="#9e7d5f" fill-opacity="0.501961" points="63,78 80,83 77,76" />
<polygon fill="#585b61" fill-opacity="0.501961" points="91,76 44,28 -16,68" />
<polygon fill="#5b656f" fill-opacity="0.501961" points="80,76 122,46 218,71" />
<polygon fill="#222826" fill-opacity="0.501961" points="75,152 32,150 71,136" />
<polygon fill="#595d68" fill-opacity="0.501961" points="111,36 202,35 252,77" />
<polygon fill="#4f5757" fill-opacity="0.501961" points="262,56 187,-16 258,-16" />
<polygon fill="#737676" fill-opacity="0.501961" points="100,76 134,80 104,86" />
<polygon fill="#57595c" fill-opacity="0.501961" points="111,43 271,-16 9,5" />
<polygon fill="#656364" fill-opacity="0.501961" points="68,90 58,100 92,92" />
<polygon fill="#0a0f16" fill-opacity="0.501961" points="267,153 230,164 222,142" />
<polygon fill="#353940" fill-opacity="0.501961" points="208,135 200,156 197,133" />
<polygon fill="#35454d" fill-opacity="0.501961" points="13,113 -2,109 24,108" />
<polygon fill="#6c6766" fill-opacity="0.501961" points="22,79 40,86 59,82" />
<polygon fill="#55595c" fill-opacity="0.501961" points="71,138 71,130 76,133" />
<polygon fill="#c3a062" fill-opacity="0.501961" points="86,89 67,89 71,83" />
<polygon fill="#0b1415" fill-opacity="0.501961" points="64,162 16,174 30,140" />
<polygon fill="#5b5e5f" fill-opacity="0.501961" points="213,148 218,152 207,152" />
<polygon fill="#2a3137" fill-opacity="0.501961" points="190,122 154,111 228,112" />
<polygon fill="#11101d" fill-opacity="0.501961" points="209,160 237,179 191,173" />
<polygon fill="#161b26" fill-opacity="0.501961" points="37,128 82,128 63,135" />
<polygon fill="#00050e" fill-opacity="0.501961" points="83,156 80,166 48,169" />
<polygon fill="#13161d" fill-opacity="0.501961" points="198,141 179,151 191,152" />
<polygon fill="#0b131b" fill-opacity="0.501961" points="132,136 130,140 121,138" />
<polygon fill="#2c3130" fill-opacity="0.501961" points="164,124 125,120 89,147" />
<polygon fill="#44454b" fill-opacity="0.501961" points="42,141 45,136 57,137" />
<polygon fill="#1b1a28" fill-opacity="0.501961" points="181,150 154,182 147,167" />
<polygon fill="#262a35" fill-opacity="0.501961" points="221,152 218,161 191,160" />
<polygon fill="#20202c" fill-opacity="0.501961" points="158,167 104,185 68,169" />
<polygon fill="#373c3a" fill-opacity="0.501961" points="107,120 118,111 148,117" />
<polygon fill="#575b63" fill-opacity="0.501961" points="97,14 36,48 186,33" />
<polygon fill="#69767f" fill-opacity="0.501961" points="179,100 182,110 215,109" />
<polygon fill="#5f646c" fill-opacity="0.501961" points="42,94 24,108 84,100" />
<polygon fill="#cd9e6f" fill-opacity="0.501961" points="99,87 91,86 93,88" />
<polygon fill="#b18c61" fill-opacity="0.501961" points="59,76 64,94 57,85" />
<polygon fill="#545558" fill-opacity="0.501961" points="162,123 160,119 151,123" />
<polygon fill="#17121b" fill-opacity="0.501961" points="186,121 182,130 191,121" />
<polygon fill="#877975" fill-opacity="0.501961" points="179,94 155,100 151,91" />
<polygon fill="#6b7176" fill-opacity="0.501961" points="131,82 174,88 156,76" />
<polygon fill="#3a3032" fill-opacity="0.501961" points="131,147 149,142 130,140" />
<polygon fill="#303638" fill-opacity="0.501961" points="54,112 87,123 114,112" />
<polygon fill="#161e1c" fill-opacity="0.501961" points="61,162 51,150 73,162" />
<polygon fill="#4b4e4f" fill-opacity="0.501961" points="101,134 84,134 91,130" />
<polygon fill="#6a7177" fill-opacity="0.501961" points="162,106 135,99 187,98" />
<polygon fill="#545859" fill-opacity="0.501961" points="-15,91 23,-16 52,14" />
<polygon fill="#7b7165" fill-opacity="0.501961" points="81,75 73,83 95,85" />
<polygon fill="#1a1f26" fill-opacity="0.501961" points="32,114 36,126 -1,114" />
<polygon fill="#282b2d" fill-opacity="0.501961" points="164,115 189,127 167,140" />
<polygon fill="#101820" fill-opacity="0.501961" points="175,141 164,145 149,140" />
<polygon fill="#64686e" fill-opacity="0.501961" points="103,100 79,105 73,96" />
<polygon fill="#000912" fill-opacity="0.501961" points="79,158 114,173 104,161" />
<polygon fill="#686564" fill-opacity="0.501961" points="41,84 38,78 58,82" />
<polygon fill="#585c61" fill-opacity="0.501961" points="57,88 13,94 12,82" />
<polygon fill="#5e6164" fill-opacity="0.501961" points="66,69 30,71 53,76" />
<polygon fill="#262d2f" fill-opacity="0.501961" points="65,129 40,127 85,118" />
<polygon fill="#ae8865" fill-opacity="0.501961" points="60,75 50,80 72,77" />
<polygon fill="#1e252c" fill-opacity="0.501961" points="215,133 258,110 206,120" />
<polygon fill="#455056" fill-opacity="0.501961" points="8,19 1,-16 -16,54" />
<polygon fill="#2b2b32" fill-opacity="0.501961" points="55,139 68,145 85,138" />
<polygon fill="#000007" fill-opacity="0.501961" points="229,168 241,163 237,177" />
<polygon fill="#5a6066" fill-opacity="0.501961" points="204,146 210,143 209,149" />
<polygon fill="#33333c" fill-opacity="0.501961" points="220,149 200,137 221,140" />
<polygon fill="#0b0b15" fill-opacity="0.501961" points="151,162 140,150 130,150" />
<polygon fill="#3b454c" fill-opacity="0.501961" points="43,109 32,112 56,114" />
<polygon fill="#231f2e" fill-opacity="0.501961" points="201,183 152,165 201,164" />
<polygon fill="#585d5d" fill-opacity="0.501961" points="185,155 198,155 191,158" />
<polygon fill="#30313b" fill-opacity="0.501961" points="194,167 179,164 178,154" />
<polygon fill="#1f2024" fill-opacity="0.501961" points="245,141 222,143 211,128" />
<polygon fill="#485157" fill-opacity="0.501961" points="239,-15 266,9 255,29" />
<polygon fill="#0c0d16" fill-opacity="0.501961" points="207,127 216,131 197,130" />
<polygon fill="#2f312e" fill-opacity="0.501961" points="25,139 23,144 33,135" />
<polygon fill="#2f3431" fill-opacity="0.501961" points="167,132 147,119 128,135" />
<polygon fill="#31352c" fill-opacity="0.501961" points="108,148 96,148 85,133" />
<polygon fill="#0a0f1f" fill-opacity="0.501961" points="37,136 48,131 52,136" />
<polygon fill="#626b76" fill-opacity="0.501961" points="232,107 179,95 199,111" />
<polygon fill="#5b636e" fill-opacity="0.501961" points="231,90 90,53 179,49" />
<polygon fill="#616b76" fill-opacity="0.501961" points="66,103 47,110 33,105" />
<polygon fill="#b78d6c" fill-opacity="0.501961" points="109,90 89,91 87,85" />
<polygon fill="#32323f" fill-opacity="0.501961" points="209,154 190,154 195,148" />
<polygon fill="#768186" fill-opacity="0.501961" points="98,106 106,110 85,110" />
<polygon fill="#161b29" fill-opacity="0.501961" points="82,130 110,129 85,123" />
<polygon fill="#757978" fill-opacity="0.501961" points="129,77 155,87 118,86" />
<polygon fill="#626669" fill-opacity="0.501961" points="74,134 76,137 75,132" />
<polygon fill="#101623" fill-opacity="0.501961" points="25,145 -16,120 11,123" />
<polygon fill="#2e302b" fill-opacity="0.501961" points="198,125 185,115 214,125" />
<polygon fill="#6d6a67" fill-opacity="0.501961" points="16,81 35,73 8,72" />
<polygon fill="#161b22" fill-opacity="0.501961" points="237,161 216,155 223,149" />
<polygon fill="#3a383c" fill-opacity="0.501961" points="170,115 185,115 179,121" />
<polygon fill="#0f1a18" fill-opacity="0.501961" points="72,152 87,158 86,142" />
<polygon fill="#57595c" fill-opacity="0.501961" points="174,-16 271,51 135,16" />
<polygon fill="#7d8588" fill-opacity="0.501961" points="155,110 135,109 148,105" />
<polygon fill="#0c141d" fill-opacity="0.501961" points="269,124 271,136 227,132" />
<polygon fill="#a57f6c" fill-opacity="0.501961" points="108,94 106,99 95,95" />
<polygon fill="#282430" fill-opacity="0.501961" points="55,185 129,185 92,167" />
<polygon fill="#54585a" fill-opacity="0.501961" points="74,132 78,134 85,131" />
<polygon fill="#20262c" fill-opacity="0.501961" points="191,134 174,142 149,135" />
<polygon fill="#6a7479" fill-opacity="0.501961" points="120,96 110,105 151,102" />
<polygon fill="#595f69" fill-opacity="0.501961" points="131,35 83,75 49,47" />
<polygon fill="#373939" fill-opacity="0.501961" points="137,121 120,114 158,116" />
<polygon fill="#242831" fill-opacity="0.501961" points="118,133 135,127 103,121" />
<polygon fill="#5f6b74" fill-opacity="0.501961" points="136,66 102,76 175,81" />
<polygon fill="#826b62" fill-opacity="0.501961" points="61,95 56,86 69,95" />
<polygon fill="#262922" fill-opacity="0.501961" points="81,147 95,144 76,136" />
<polygon fill="#6f7b80" fill-opacity="0.501961" points="167,101 170,110 200,109" />
<polygon fill="#171e23" fill-opacity="0.501961" points="137,138 130,135 121,139" />
<polygon fill="#6b6e70" fill-opacity="0.501961" points="107,75 78,79 120,85" />
<polygon fill="#b08364" fill-opacity="0.501961" points="48,93 60,95 58,92" />
<polygon fill="#1c241d" fill-opacity="0.501961" points="37,148 46,140 55,156" />
<polygon fill="#172621" fill-opacity="0.501961" points="124,155 125,149 133,157" />
<polygon fill="#c09a70" fill-opacity="0.501961" points="87,85 101,87 90,89" />
<polygon fill="#202427" fill-opacity="0.501961" points="176,145 203,141 183,138" />
<polygon fill="#a98a71" fill-opacity="0.501961" points="169,93 172,89 160,89" />
<polygon fill="#262927" fill-opacity="0.501961" points="5,143 8,134 0,143" />
<polygon fill="#4d5254" fill-opacity="0.501961" points="91,133 85,131 92,137" />
<polygon fill="#56595c" fill-opacity="0.501961" points="249,40 250,103 271,105" />
<polygon fill="#12191c" fill-opacity="0.501961" points="176,157 165,160 171,153" />
<polygon fill="#727270" fill-opacity="0.501961" points="72,134 74,138 74,136" />
<polygon fill="#222424" fill-opacity="0.501961" points="216,122 219,127 208,138" />
<polygon fill="#8f8275" fill-opacity="0.501961" points="124,86 108,91 131,92" />
<polygon fill="#938275" fill-opacity="0.501961" points="178,93 191,90 178,89" />
<polygon fill="#434649" fill-opacity="0.501961" points="59,136 49,139 60,139" />
<polygon fill="#83776a" fill-opacity="0.501961" points="39,75 22,78 35,80" />
<polygon fill="#142721" fill-opacity="0.501961" points="90,146 94,152 82,151" />
<polygon fill="#243b4f" fill-opacity="0.501961" points="185,114 190,111 200,114" />
<polygon fill="#bf9e66" fill-opacity="0.501961" points="54,85 60,84 67,89" />
<polygon fill="#5d6269" fill-opacity="0.501961" points="84,92 42,99 63,102" />
<polygon fill="#7c736b" fill-opacity="0.501961" points="38,82 30,74 58,74" />
<polygon fill="#a88d6c" fill-opacity="0.501961" points="78,77 66,78 67,75" />
<polygon fill="#5a606c" fill-opacity="0.501961" points="222,109 239,92 242,110" />
<polygon fill="#56595e" fill-opacity="0.501961" points="18,72 8,47 54,15" />
<polygon fill="#282b30" fill-opacity="0.501961" points="162,120 188,117 175,127" />
<polygon fill="#2a2e2e" fill-opacity="0.501961" points="71,138 85,139 67,147" />
<polygon fill="#141b19" fill-opacity="0.501961" points="26,154 24,138 13,146" />
<polygon fill="#171d27" fill-opacity="0.501961" points="248,129 244,117 268,114" />
<polygon fill="#575b5d" fill-opacity="0.501961" points="81,131 82,138 84,131" />
<polygon fill="#0f131c" fill-opacity="0.501961" points="134,155 140,167 166,159" />
<polygon fill="#262c26" fill-opacity="0.501961" points="177,154 160,143 154,155" />
<polygon fill="#061219" fill-opacity="0.501961" points="72,185 89,151 101,154" />
<polygon fill="#262b2e" fill-opacity="0.501961" points="116,132 107,148 94,137" />
<polygon fill="#2c3138" fill-opacity="0.501961" points="57,119 80,113 47,112" />
<polygon fill="#595e63" fill-opacity="0.501961" points="214,153 204,143 208,142" />
<polygon fill="#6d6866" fill-opacity="0.501961" points="74,101 90,96 76,96" />
<polygon fill="#a78872" fill-opacity="0.501961" points="139,95 128,90 115,94" />
<polygon fill="#5b5e67" fill-opacity="0.501961" points="43,97 11,110 21,93" />
<polygon fill="#1f252b" fill-opacity="0.501961" points="39,129 1,129 23,123" />
<polygon fill="#1d212c" fill-opacity="0.501961" points="68,132 77,131 69,125" />
<polygon fill="#727073" fill-opacity="0.501961" points="210,97 173,99 193,92" />
<polygon fill="#58595a" fill-opacity="0.501961" points="-5,71 1,108 17,85" />
<polygon fill="#171e1b" fill-opacity="0.501961" points="31,164 33,156 36,161" />
<polygon fill="#6f7a80" fill-opacity="0.501961" points="175,104 168,104 175,111" />
<polygon fill="#4b4e52" fill-opacity="0.501961" points="216,149 220,153 203,151" />
<polygon fill="#66666a" fill-opacity="0.501961" points="223,90 208,98 240,93" />
<polygon fill="#c3a56a" fill-opacity="0.501961" points="87,89 93,85 75,85" />
<polygon fill="#35302b" fill-opacity="0.501961" points="192,127 196,131 186,127" />
<polygon fill="#897f76" fill-opacity="0.501961" points="118,89 130,91 121,92" />
<polygon fill="#5a616b" fill-opacity="0.501961" points="66,75 89,47 163,46" />
<polygon fill="#2f3436" fill-opacity="0.501961" points="47,128 34,128 41,126" />
<polygon fill="#595c63" fill-opacity="0.501961" points="176,36 116,44 92,14" />
<polygon fill="#090e1c" fill-opacity="0.501961" points="-16,148 8,133 -11,135" />
<polygon fill="#424d4d" fill-opacity="0.501961" points="155,112 150,110 162,110" />
<polygon fill="#2e2f38" fill-opacity="0.501961" points="204,158 200,151 225,156" />
<polygon fill="#7c6f68" fill-opacity="0.501961" points="88,94 80,89 94,92" />
<polygon fill="#0a1417" fill-opacity="0.501961" points="227,153 233,159 218,166" />
<polygon fill="#30303a" fill-opacity="0.501961" points="169,161 181,164 194,159" />
<polygon fill="#535858" fill-opacity="0.501961" points="74,136 76,132 63,137" />
<polygon fill="#6d6562" fill-opacity="0.501961" points="55,86 41,83 65,96" />
</g>
</svg>