<svg xmlns="http://www.w3.org/2000/svg" version="1.1" width="1024" height="680">
<rect x="0" y="0" width="1024" height="680" fill="#484b4f" />
<g transform="scale(4.000000) translate(0.5 0.5)">
<polygon fill="#000000" fill-opacity="0.501961" points="271,101 251,185 -16,161" />
<polygon fill="#7f8186" fill-opacity="0.501961" points="144,-16 271,111 -16,108" />
<polygon fill="#010a0d" fill-opacity="0.501961" points="-16,112 194,112 7,185" />
<polygon fill="#a8927a" fill-opacity="0.501961" points="15,71 212,91 116,111" />
<polygon fill="#5a5d62" fill-opacity="0.501961" points="8,-16 -16,98 271,11" />
<polygon fill="#00070a" fill-opacity="0.501961" points="172,159 -16,139 8,185" />
<polygon fill="#575c63" fill-opacity="0.501961" points="271,113 253,-16 -16,8" />
<polygon fill="#323838" fill-opacity="0.501961" points="79,111 225,112 47,161" />
<polygon fill="#00000c" fill-opacity="0.501961" points="199,181 271,174 252,118" />
<polygon fill="#555a65" fill-opacity="0.501961" points="208,137 219,152 179,161" />
<polygon fill="#d3aa69" fill-opacity="0.501961" points="57,90 53,75 106,90" />
<polygon fill="#6f7d89" fill-opacity="0.501961" points="144,90 73,111 217,109" />
<polygon fill="#0f141e" fill-opacity="0.501961" points="101,123 -5,118 3,147" />
<polygon fill="#595f6b" fill-opacity="0.501961" points="237,26 271,100 -16,46" />
<polygon fill="#616c75" fill-opacity="0.501961" points="212,88 77,84 139,47" />
<polygon fill="#605e60" fill-opacity="0.501961" points="-16,115 60,88 23,19" />
<polygon fill="#a68873" fill-opacity="0.501961" points="125,82 86,97 173,94" />
<polygon fill="#061114" fill-opacity="0.501961" points="-15,148 18,185 153,151" />
<polygon fill="#2d3133" fill-opacity="0.501961" points="122,156 3,111 202,113" />
<polygon fill="#666d76" fill-opacity="0.501961" points="44,111 74,88 130,106" />
<polygon fill="#55575a" fill-opacity="0.501961" points="92,138 86,129 58,137" />
<polygon fill="#565859" fill-opacity="0.501961" points="234,-16 271,62 -16,5" />
<polygon fill="#827367" fill-opacity="0.501961" points="54,75 7,72 62,99" />
<polygon fill="#111822" fill-opacity="0.501961" points="246,152 193,128 271,113" />
<polygon fill="#494c54" fill-opacity="0.501961" points="210,153 194,131 223,144" />
<polygon fill="#bca579" fill-opacity="0.501961" points="58,96 77,76 64,75" />
<polygon fill="#4f555d" fill-opacity="0.501961" points="19,81 41,111 -16,108" />
<polygon fill="#323443" fill-opacity="0.501961" points="225,160 196,149 163,164" />
<polygon fill="#71757a" fill-opacity="0.501961" points="219,91 106,98 161,111" />
<polygon fill="#010913" fill-opacity="0.501961" points="200,163 243,185 271,144" />
<polygon fill="#0a0f23" fill-opacity="0.501961" points="111,130 68,130 90,124" />
<polygon fill="#253039" fill-opacity="0.501961" points="246,110 205,121 175,110" />
<polygon fill="#12181e" fill-opacity="0.501961" points="146,147 72,147 196,182" />
<polygon fill="#c3966e" fill-opacity="0.501961" points="115,87 102,92 82,84" />
<polygon fill="#2c2f2d" fill-opacity="0.501961" points="27,137 51,153 98,137" />
<polygon fill="#9e735e" fill-opacity="0.501961" points="43,94 68,96 61,89" />
<polygon fill="#616162" fill-opacity="0.501961" points="164,118 153,122 160,124" />
<polygon fill="#707475" fill-opacity="0.501961" points="126,71 174,88 76,83" />
<polygon fill="#121819" fill-opacity="0.501961" points="-16,145 75,163 -16,112" />
<polygon fill="#575b62" fill-opacity="0.501961" points="90,75 -5,71 94,-16" />
<polygon fill="#595b65" fill-opacity="0.501961" points="200,21 228,111 271,106" />
<polygon fill="#4f4f56" fill-opacity="0.501961" points="37,138 58,136 48,140" />
<polygon fill="#768388" fill-opacity="0.501961" points="123,109 186,110 157,100" />
<polygon fill="#171c25" fill-opacity="0.501961" points="91,127 -3,146 -7,110" />
<polygon fill="#545959" fill-opacity="0.501961" points="205,154 193,159 181,155" />
<polygon fill="#a57f66" fill-opacity="0.501961" points="79,95 100,97 114,88" />
<polygon fill="#635f5f" fill-opacity="0.501961" points="90,90 56,91 62,102" />
<polygon fill="#181c23" fill-opacity="0.501961" points="200,148 188,129 159,163" />
<polygon fill="#c5b57b" fill-opacity="0.501961" points="87,87 63,89 59,79" />
<polygon fill="#6f7d85" fill-opacity="0.501961" points="119,110 66,110 94,100" />
<polygon fill="#726962" fill-opacity="0.501961" points="90,85 67,79 99,77" />
<polygon fill="#988476" fill-opacity="0.501961" points="134,84 190,91 151,98" />
<polygon fill="#050c12" fill-opacity="0.501961" points="-16,151 21,185 139,162" />
<polygon fill="#5c5f5e" fill-opacity="0.501961" points="100,131 82,131 93,134" />
<polygon fill="#5b5e62" fill-opacity="0.501961" points="-2,73 28,92 58,89" />
<polygon fill="#59626e" fill-opacity="0.501961" points="51,74 137,41 235,77" />
<polygon fill="#191e27" fill-opacity="0.501961" points="271,105 206,175 236,116" />
<polygon fill="#aa8764" fill-opacity="0.501961" points="49,81 55,75 75,78" />
<polygon fill="#686d76" fill-opacity="0.501961" points="221,87 235,109 146,103" />
<polygon fill="#383c3a" fill-opacity="0.501961" points="127,123 113,110 164,117" />
<polygon fill="#5d6263" fill-opacity="0.501961" points="215,153 205,141 208,153" />
<polygon fill="#505758" fill-opacity="0.501961" points="50,19 0,-16 -16,81" />
<polygon fill="#282a32" fill-opacity="0.501961" points="204,139 205,134 218,147" />
<polygon fill="#272635" fill-opacity="0.501961" points="162,159 166,175 224,157" />
<polygon fill="#9e7969" fill-opacity="0.501961" points="35,92 47,93 34,96" />
<polygon fill="#272c2b" fill-opacity="0.501961" points="149,142 97,153 111,116" />
<polygon fill="#b9c9b6" fill-opacity="0.501961" points="66,80 67,87 62,85" />
<polygon fill="#57595b" fill-opacity="0.501961" points="225,0 49,-13 -11,57" />
<polygon fill="#0e1918" fill-opacity="0.501961" points="106,153 28,168 77,144" />
<polygon fill="#262d2e" fill-opacity="0.501961" points="65,115 23,129 109,125" />
<polygon fill="#9c745e" fill-opacity="0.501961" points="75,89 53,97 58,88" />
<polygon fill="#050911" fill-opacity="0.501961" points="231,172 223,142 271,167" />
<polygon fill="#636b75" fill-opacity="0.501961" points="70,111 119,99 55,97" />
<polygon fill="#4b4f53" fill-opacity="0.501961" points="188,159 200,153 177,156" />
<polygon fill="#0c1020" fill-opacity="0.501961" points="70,133 49,129 33,137" />
<polygon fill="#080f1b" fill-opacity="0.501961" points="21,139 2,130 38,129" />
<polygon fill="#585b64" fill-opacity="0.501961" points="206,41 30,45 116,18" />
<polygon fill="#1d231f" fill-opacity="0.501961" points="37,141 45,156 94,143" />
<polygon fill="#141621" fill-opacity="0.501961" points="197,161 200,185 230,158" />
<polygon fill="#303631" fill-opacity="0.501961" points="156,123 179,133 119,134" />
<polygon fill="#373837" fill-opacity="0.501961" points="34,135 24,138 44,141" />
<polygon fill="#585a5d" fill-opacity="0.501961" points="262,116 254,40 230,81" />
<polygon fill="#797171" fill-opacity="0.501961" points="189,87 180,99 229,93" />
<polygon fill="#0d0f1a" fill-opacity="0.501961" points="138,148 129,170 162,161" />
<polygon fill="#2e313c" fill-opacity="0.501961" points="203,160 219,157 199,148" />
<polygon fill="#5b636d" fill-opacity="0.501961" points="45,110 84,92 12,102" />
<polygon fill="#5d6062" fill-opacity="0.501961" points="70,133 75,139 76,132" />
<polygon fill="#5e5f63" fill-opacity="0.501961" points="17,96 38,81 58,81" />
<polygon fill="#68767d" fill-opacity="0.501961" points="122,97 110,110 156,100" />
<polygon fill="#8c7762" fill-opacity="0.501961" points="78,84 81,73 71,83" />
<polygon fill="#373b3a" fill-opacity="0.501961" points="75,135 89,141 112,131" />
<polygon fill="#0d1616" fill-opacity="0.501961" points="29,140 22,169 48,156" />
<polygon fill="#9d866b" fill-opacity="0.501961" points="43,76 58,76 54,81" />
<polygon fill="#726b67" fill-opacity="0.501961" points="22,84 -1,71 51,80" />
<polygon fill="#363b3b" fill-opacity="0.501961" points="121,111 83,116 119,121" />
<polygon fill="#707678" fill-opacity="0.501961" points="135,87 142,76 96,78" />
<polygon fill="#a38874" fill-opacity="0.501961" points="138,88 149,97 117,94" />
<polygon fill="#1d2c1f" fill-opacity="0.501961" points="88,149 102,145 122,158" />
<polygon fill="#272430" fill-opacity="0.501961" points="96,183 86,166 139,179" />
<polygon fill="#585c66" fill-opacity="0.501961" points="138,35 261,85 215,35" />
<polygon fill="#6f7a7f" fill-opacity="0.501961" points="180,99 174,111 147,111" />
<polygon fill="#0c1420" fill-opacity="0.501961" points="170,146 157,140 172,140" />
<polygon fill="#495355" fill-opacity="0.501961" points="253,-13 236,14 269,34" />
<polygon fill="#80726a" fill-opacity="0.501961" points="84,90 107,92 93,95" />
<polygon fill="#5b616d" fill-opacity="0.501961" points="257,108 209,110 221,88" />
<polygon fill="#20282f" fill-opacity="0.501961" points="200,112 217,129 256,113" />
<polygon fill="#445055" fill-opacity="0.501961" points="-16,57 10,15 -2,-16" />
<polygon fill="#333a3f" fill-opacity="0.501961" points="77,112 45,110 77,121" />
<polygon fill="#10191e" fill-opacity="0.501961" points="137,135 126,135 124,141" />
<polygon fill="#4a4c50" fill-opacity="0.501961" points="60,136 58,139 52,137" />
<polygon fill="#6c767f" fill-opacity="0.501961" points="95,109 53,109 76,102" />
<polygon fill="#15191f" fill-opacity="0.501961" points="247,128 258,150 196,129" />
<polygon fill="#1b1f2c" fill-opacity="0.501961" points="97,131 105,121 116,129" />
<polygon fill="#b99a67" fill-opacity="0.501961" points="56,84 64,90 62,80" />
<polygon fill="#5d5e5f" fill-opacity="0.501961" points="49,80 59,83 46,83" />
<polygon fill="#83776b" fill-opacity="0.501961" points="51,76 27,81 28,74" />
<polygon fill="#5a616c" fill-opacity="0.501961" points="171,49 81,41 78,75" />
<polygon fill="#646d76" fill-opacity="0.501961" points="168,72 183,89 126,74" />
<polygon fill="#242a2d" fill-opacity="0.501961" points="173,118 191,141 148,141" />
<polygon fill="#1f2024" fill-opacity="0.501961" points="223,145 208,125 243,141" />
<polygon fill="#b78767" fill-opacity="0.501961" points="46,92 56,95 56,92" />
<polygon fill="#101725" fill-opacity="0.501961" points="61,130 70,133 77,126" />
<polygon fill="#877974" fill-opacity="0.501961" points="166,99 150,92 188,94" />
<polygon fill="#1e2222" fill-opacity="0.501961" points="-16,136 14,147 33,140" />
<polygon fill="#1f242a" fill-opacity="0.501961" points="55,115 4,113 27,130" />
<polygon fill="#00040f" fill-opacity="0.501961" points="70,158 91,155 75,166" />
<polygon fill="#363b40" fill-opacity="0.501961" points="201,134 195,155 209,134" />
<polygon fill="#26292d" fill-opacity="0.501961" points="53,147 86,142 69,137" />
<polygon fill="#293135" fill-opacity="0.501961" points="201,124 208,111 153,111" />
<polygon fill="#35444c" fill-opacity="0.501961" points="8,113 20,108 -7,108" />
<polygon fill="#bd9267" fill-opacity="0.501961" points="99,91 85,85 81,89" />
<polygon fill="#778187" fill-opacity="0.501961" points="156,109 124,101 105,110" />
<polygon fill="#322f32" fill-opacity="0.501961" points="166,148 145,139 123,142" />
<polygon fill="#0f0f1b" fill-opacity="0.501961" points="185,121 187,125 194,123" />
<polygon fill="#03090e" fill-opacity="0.501961" points="-16,150 16,171 22,151" />
<polygon fill="#595c66" fill-opacity="0.501961" points="55,76 33,49 94,40" />
<polygon fill="#23202d" fill-opacity="0.501961" points="167,185 181,167 113,168" />
<polygon fill="#656263" fill-opacity="0.501961" points="64,94 49,91 54,87" />
<polygon fill="#0c1116" fill-opacity="0.501961" points="222,166 227,143 271,148" />
<polygon fill="#5e626a" fill-opacity="0.501961" points="21,94 27,108 77,98" />
<polygon fill="#5a6063" fill-opacity="0.501961" points="207,144 202,146 218,151" />
<polygon fill="#6c6c6e" fill-opacity="0.501961" points="92,77 120,84 91,85" />
<polygon fill="#2c2c37" fill-opacity="0.501961" points="206,154 195,148 192,153" />
<polygon fill="#a68a74" fill-opacity="0.501961" points="158,88 176,88 167,93" />
<polygon fill="#00000a" fill-opacity="0.501961" points="243,163 223,167 230,179" />
<polygon fill="#272d28" fill-opacity="0.501961" points="149,143 182,154 164,155" />
<polygon fill="#bd9b62" fill-opacity="0.501961" points="64,90 71,84 88,85" />
<polygon fill="#646c78" fill-opacity="0.501961" points="173,102 226,109 207,95" />
<polygon fill="#505456" fill-opacity="0.501961" points="86,136 87,131 77,132" />
<polygon fill="#272d2f" fill-opacity="0.501961" points="98,137 122,150 131,118" />
<polygon fill="#252834" fill-opacity="0.501961" points="220,164 207,153 219,154" />
<polygon fill="#585a5f" fill-opacity="0.501961" points="114,38 107,7 11,40" />
<polygon fill="#585c62" fill-opacity="0.501961" points="30,92 54,90 19,83" />
<polygon fill="#686868" fill-opacity="0.501961" points="21,78 8,71 35,72" />
<polygon fill="#5b646f" fill-opacity="0.501961" points="177,51 99,60 223,90" />
<polygon fill="#302f38" fill-opacity="0.501961" points="187,158 194,166 173,163" />
<polygon fill="#a58565" fill-opacity="0.501961" points="67,80 56,75 75,75" />
<polygon fill="#6b6664" fill-opacity="0.501961" points="67,94 94,93 81,89" />
<polygon fill="#a4836d" fill-opacity="0.501961" points="103,97 103,90 86,95" />
<polygon fill="#3c3b3f" fill-opacity="0.501961" points="179,120 170,115 182,116" />
<polygon fill="#44474c" fill-opacity="0.501961" points="45,140 40,137 36,141" />
<polygon fill="#090c15" fill-opacity="0.501961" points="211,129 205,126 201,131" />
<polygon fill="#575a5d" fill-opacity="0.501961" points="169,18 180,-16 271,78" />
<polygon fill="#2f313a" fill-opacity="0.501961" points="213,147 223,148 208,140" />
<polygon fill="#15191f" fill-opacity="0.501961" points="174,154 180,159 161,158" />
<polygon fill="#626a75" fill-opacity="0.501961" points="58,100 28,107 60,109" />
<polygon fill="#30342b" fill-opacity="0.501961" points="94,147 84,132 103,148" />
<polygon fill="#525859" fill-opacity="0.501961" points="264,62 185,-16 239,-16" />
<polygon fill="#17181e" fill-opacity="0.501961" points="180,146 179,153 201,146" />
<polygon fill="#464a4a" fill-opacity="0.501961" points="90,130 88,136 101,134" />
<polygon fill="#585a5b" fill-opacity="0.501961" points="16,110 4,52 -16,100" />
<polygon fill="#707b81" fill-opacity="0.501961" points="176,100 195,110 167,109" />
<polygon fill="#ba946e" fill-opacity="0.501961" points="81,88 96,85 109,91" />
<polygon fill="#18191e" fill-opacity="0.501961" points="145,145 158,158 135,149" />
<polygon fill="#26292c" fill-opacity="0.501961" points="49,140 65,148 86,138" />
<polygon fill="#bcbb91" fill-opacity="0.501961" points="72,83 62,79 61,82" />
<polygon fill="#8f8479" fill-opacity="0.501961" points="149,93 136,86 115,90" />
<polygon fill="#757878" fill-opacity="0.501961" points="135,79 112,86 159,86" />
<polygon fill="#2c312f" fill-opacity="0.501961" points="119,120 136,137 155,121" />
<polygon fill="#6c7377" fill-opacity="0.501961" points="155,100 121,96 115,106" />
<polygon fill="#676768" fill-opacity="0.501961" points="77,96 68,101 92,99" />
<polygon fill="#616871" fill-opacity="0.501961" points="183,88 211,90 167,70" />
<polygon fill="#595c65" fill-opacity="0.501961" points="81,75 26,70 73,35" />
<polygon fill="#10191e" fill-opacity="0.501961" points="219,157 240,163 234,157" />
<polygon fill="#857a70" fill-opacity="0.501961" points="97,93 112,94 111,89" />
<polygon fill="#2c3744" fill-opacity="0.501961" points="243,111 255,110 253,113" />
<polygon fill="#010b0f" fill-opacity="0.501961" points="101,151 102,166 112,171" />
<polygon fill="#6f6f6d" fill-opacity="0.501961" points="86,85 82,76 98,79" />
<polygon fill="#343842" fill-opacity="0.501961" points="194,158 209,161 205,156" />
<polygon fill="#292c2f" fill-opacity="0.501961" points="189,116 162,120 171,137" />
<polygon fill="#1b212b" fill-opacity="0.501961" points="73,132 104,125 63,123" />
<polygon fill="#3b3b45" fill-opacity="0.501961" points="208,137 197,132 196,140" />
<polygon fill="#1b2019" fill-opacity="0.501961" points="63,162 73,162 61,157" />
<polygon fill="#5f6b73" fill-opacity="0.501961" points="143,65 157,80 98,75" />
<polygon fill="#1d2328" fill-opacity="0.501961" points="199,142 160,135 197,130" />
<polygon fill="#1f1b2c" fill-opacity="0.501961" points="170,162 145,166 127,184" />
<polygon fill="#323832" fill-opacity="0.501961" points="99,120 77,115 71,122" />
<polygon fill="#272a28" fill-opacity="0.501961" points="199,114 213,125 193,126" />
<polygon fill="#2d3131" fill-opacity="0.501961" points="165,122 146,130 178,135" />
<polygon fill="#272d2b" fill-opacity="0.501961" points="40,118 67,127 77,117" />
<polygon fill="#16201e" fill-opacity="0.501961" points="120,159 109,151 137,155" />
<polygon fill="#36373d" fill-opacity="0.501961" points="51,136 56,139 43,137" />
<polygon fill="#282b2d" fill-opacity="0.501961" points="72,147 63,148 71,135" />
<polygon fill="#111918" fill-opacity="0.501961" points="30,165 32,142 40,181" />
<polygon fill="#1d2229" fill-opacity="0.501961" points="254,112 258,124 220,121" />
<polygon fill="#ae8c70" fill-opacity="0.501961" points="93,88 111,93 111,86" />
<polygon fill="#1b1e29" fill-opacity="0.501961" points="87,184 102,168 72,169" />
<polygon fill="#4a4e51" fill-opacity="0.501961" points="212,147 218,149 217,154" />
<polygon fill="#020b11" fill-opacity="0.501961" points="109,185 48,157 47,184" />
<polygon fill="#b78e70" fill-opacity="0.501961" points="122,95 112,92 128,92" />
<polygon fill="#111920" fill-opacity="0.501961" points="156,144 170,144 151,138" />
<polygon fill="#252827" fill-opacity="0.501961" points="9,134 5,144 2,140" />
<polygon fill="#57595d" fill-opacity="0.501961" points="271,119 251,53 246,103" />
<polygon fill="#342c2d" fill-opacity="0.501961" points="147,142 127,151 134,140" />
<polygon fill="#505253" fill-opacity="0.501961" points="161,124 162,118 155,120" />
<polygon fill="#5a5e6b" fill-opacity="0.501961" points="222,90 230,66 159,42" />
<polygon fill="#253e50" fill-opacity="0.501961" points="196,112 186,112 194,115" />
<polygon fill="#111921" fill-opacity="0.501961" points="208,137 261,123 241,138" />
<polygon fill="#13221e" fill-opacity="0.501961" points="86,142 80,152 94,152" />
<polygon fill="#050d15" fill-opacity="0.501961" points="139,167 104,164 132,159" />
<polygon fill="#2f2d38" fill-opacity="0.501961" points="141,185 145,169 132,167" />
<polygon fill="#1d2227" fill-opacity="0.501961" points="223,141 244,141 213,128" />
<polygon fill="#2a2d2e" fill-opacity="0.501961" points="190,114 227,115 194,123" />
<polygon fill="#121822" fill-opacity="0.501961" points="54,130 38,137 21,129" />
<polygon fill="#05101a" fill-opacity="0.501961" points="89,153 81,167 96,166" />
<polygon fill="#3d494f" fill-opacity="0.501961" points="78,110 89,110 89,113" />
<polygon fill="#31343b" fill-opacity="0.501961" points="201,141 213,138 218,143" />
<polygon fill="#545554" fill-opacity="0.501961" points="160,124 157,120 164,124" />
<polygon fill="#56595d" fill-opacity="0.501961" points="26,25 -15,83 80,15" />
<polygon fill="#363743" fill-opacity="0.501961" points="194,148 201,147 199,150" />
<polygon fill="#24292d" fill-opacity="0.501961" points="19,123 40,127 21,129" />
<polygon fill="#35343f" fill-opacity="0.501961" points="220,154 220,143 211,139" />
<polygon fill="#0b0f1c" fill-opacity="0.501961" points="7,133 -16,145 -16,119" />
<polygon fill="#666465" fill-opacity="0.501961" points="47,82 48,93 21,80" />
<polygon fill="#323c46" fill-opacity="0.501961" points="39,114 47,111 30,111" />
<polygon fill="#ac826c" fill-opacity="0.501961" points="96,95 102,98 108,95" />
<polygon fill="#505558" fill-opacity="0.501961" points="208,143 219,153 211,152" />
<polygon fill="#171421" fill-opacity="0.501961" points="205,163 247,175 174,185" />
<polygon fill="#a58b6c" fill-opacity="0.501961" points="68,76 72,79 83,76" />
<polygon fill="#343a3a" fill-opacity="0.501961" points="123,121 113,111 150,115" />
<polygon fill="#525659" fill-opacity="0.501961" points="179,156 188,158 196,155" />
<polygon fill="#161d19" fill-opacity="0.501961" points="47,151 39,145 20,150" />
<polygon fill="#595d62" fill-opacity="0.501961" points="95,10 88,22 132,30" />
<polygon fill="#6a6d6c" fill-opacity="0.501961" points="95,79 76,80 83,76" />
<polygon fill="#252224" fill-opacity="0.501961" points="137,145 146,144 131,150" />
<polygon fill="#0c111d" fill-opacity="0.501961" points="29,135 18,144 23,130" />
<polygon fill="#9d7a60" fill-opacity="0.501961" points="51,83 54,83 55,87" />
<polygon fill="#080e12" fill-opacity="0.501961" points="24,147 29,148 31,139" />
<polygon fill="#8b7a68" fill-opacity="0.501961" points="25,77 30,80 35,77" />
<polygon fill="#666668" fill-opacity="0.501961" points="226,97 240,94 212,88" />
</g>
</svg>